{
.appVersion = "3239";
.formatVersion = 3;
DisplayStrings = (
"h0h00h0h
h1h1h1o1o
h2h2ho2oo
h3h3o3oo
h4hh4o4o
h5hho5oo
hh6h6hoo6o
hh7hh7oo7o
h8hh8o8oo
h9hho9o9

1234567890",
"/one.dnom/two.dnom/three.dnom/four.dnom/five.dnom/six.dnom/seven.dnom/eight.dnom/nine.dnom/one.numr/two.numr/three.numr/four.numr/five.numr/six.numr/seven.numr/eight.numr/nine.numr 
⁄
h½h
h¼h
h¾h
h⅛h
h⅜h
h⅝h
h⅞h",
hrhhrhhrororo,
"0123456789
0643
0H0H0H0HOHOHoho",
"hi!",
"。.,:;!¡?¿·•*‖〃#///backslash ‿＆＊＠＼：，！＃％．？＂＇；／＿-–—_〜－₍₎(){}[]〈〉【】｛｝「」《》〔〕『』〖〗［］（）‚„“”‘’«»‹›\"'",
"。",
"hh。ho。
h.h.o.o,h,
,:;…
h!ho!¡h?h¿h·h•h*h‖〃h#ho
h//h/backslash h＊＼：，！＃．？＂＇；／＿h-ho–—_〜－h₍h₎h(0)h{h}h[]h〈〉｛｝「」［］（）‚„h“”‘’«»‹›\"'

#the king is back",
"@h&h¶§h©h",
"=5+5÷5",
"h≈h",
"h~h",
"¬",
"₩67",
"¥fggf",
hyhhyoyo,
"h₪h"
);
date = "2024-02-12 18:10:56 +0000";
familyName = Wheatpaste038;
fontMaster = (
{
iconName = Bold;
id = m01;
metricValues = (
{
over = 16;
pos = 800;
},
{
over = 16;
pos = 700;
},
{
over = 16;
pos = 500;
},
{
over = -16;
},
{
over = -16;
pos = -200;
},
{
}
);
name = Bold;
userData = {
GSCornerRadius = 111;
};
}
);
glyphs = (
{
glyphname = A;
lastChange = "2024-02-12 17:04:37 +0000";
layers = (
{
layerId = m01;
shapes = (
{
closed = 1;
nodes = (
(76,59,o),
(78,57,o),
(82,57,cs),
(100,57,o),
(156,102,o),
(161,125,cs),
(197,289,o),
(241,452,o),
(276,615,cs),
(283,649,o),
(174,547,o),
(168,521,cs),
(135,369,o),
(110,217,o),
(77,65,cs)
);
},
{
closed = 1;
nodes = (
(30,150,o),
(-10,38,o),
(-10,7,cs),
(-10,0,o),
(-7,-3,o),
(-1,3,cs),
(17,19,o),
(48,29,o),
(77,29,cs),
(104,29,o),
(130,20,o),
(144,1,cs),
(157,-17,o),
(210,122,o),
(210,160,cs),
(210,164,o),
(209,167,o),
(208,169,cs),
(193,189,o),
(166,199,o),
(136,199,cs),
(105,199,o),
(72,188,o),
(49,167,cs)
);
},
{
closed = 1;
nodes = (
(81,407,o),
(24,237,o),
(34,237,cs),
(63,237,o),
(92,237,o),
(121,237,c),
(124,236,o),
(131,243,o),
(135,243,cs),
(135,243,o),
(136,243,o),
(136,243,c),
(193,243,o),
(249,242,o),
(305,242,c),
(312,244,o),
(321,238,o),
(327,238,cs),
(328,238,o),
(329,238,o),
(330,238,c),
(365,238,o),
(401,238,o),
(437,238,cs),
(449,238,o),
(509,408,o),
(497,408,cs),
(462,408,o),
(426,408,o),
(390,408,c),
(379,405,o),
(370,394,o),
(359,392,c),
(305,391,o),
(251,390,o),
(198,389,c),
(191,392,o),
(189,404,o),
(181,407,c),
(152,407,o),
(123,407,o),
(94,407,cs)
);
},
{
closed = 1;
nodes = (
(386,719,o),
(244,615,o),
(276,615,cs),
(284,615,o),
(286,554,o),
(286,470,cs),
(286,373,o),
(283,246,o),
(283,149,cs),
(283,115,o),
(284,86,o),
(284,62,cs),
(286,18,o),
(299,0,o),
(325,0,cs),
(333,0,o),
(342,1,o),
(351,4,cs),
(381,13,o),
(475,110,o),
(475,129,cs),
(475,132,o),
(472,134,o),
(467,132,cs),
(460,130,o),
(453,129,o),
(448,129,cs),
(427,129,o),
(415,143,o),
(414,184,cs),
(413,193,o),
(413,203,o),
(413,214,cs),
(413,320,o),
(427,503,o),
(427,617,cs),
(427,678,o),
(423,719,o),
(412,719,cs)
);
},
{
closed = 1;
nodes = (
(235,598,o),
(231,563,o),
(231,537,cs),
(231,520,o),
(233,508,o),
(237,511,cs),
(266,534,o),
(295,557,o),
(325,580,cs),
(331,585,o),
(335,622,o),
(335,647,cs),
(335,664,o),
(333,675,o),
(329,672,cs),
(300,649,o),
(271,626,o),
(241,603,cs)
);
}
);
width = 534;
}
);
unicode = 65;
},
{
glyphname = AE;
lastChange = "2024-02-12 17:04:37 +0000";
layers = (
{
layerId = m01;
shapes = (
{
closed = 1;
nodes = (
(66,33,o),
(150,92,o),
(161,123,cs),
(216,294,o),
(278,463,o),
(334,634,cs),
(345,668,o),
(238,578,o),
(226,542,cs),
(175,384,o),
(129,225,o),
(77,67,cs)
);
},
{
closed = 1;
nodes = (
(25,145,o),
(-32,-25,o),
(-1,3,cs),
(18,20,o),
(50,29,o),
(81,29,cs),
(107,28,o),
(131,19,o),
(144,1,cs),
(158,-19,o),
(221,151,o),
(208,169,cs),
(193,189,o),
(165,199,o),
(135,199,cs),
(104,199,o),
(72,188,o),
(49,167,cs)
);
},
{
closed = 1;
nodes = (
(92,408,o),
(35,238,o),
(45,238,cs),
(74,238,o),
(103,238,o),
(131,239,c),
(136,243,l),
(200,243,o),
(262,242,o),
(325,242,cs),
(336,242,o),
(389,392,o),
(379,392,cs),
(319,391,o),
(258,389,o),
(198,389,c),
(192,408,l),
(163,408,o),
(134,408,o),
(105,408,cs)
);
},
{
closed = 1;
nodes = (
(431,664,o),
(347,602,o),
(344,575,cs),
(325,390,o),
(308,200,o),
(290,29,cs),
(285,-15,o),
(306,0,o),
(314,6,cs),
(345,33,o),
(348,36,o),
(401,19,cs),
(469,-2,o),
(560,-18,o),
(610,25,cs),
(633,44,o),
(679,218,o),
(652,195,cs),
(616,166,o),
(525,169,o),
(463,189,cs),
(416,204,o),
(401,203,o),
(350,160,c),
(358,152,o),
(366,144,o),
(374,137,c),
(392,314,o),
(411,472,o),
(428,635,cs)
);
},
{
closed = 1;
nodes = (
(348,438,o),
(288,268,o),
(309,268,cs),
(401,269,o),
(492,269,o),
(583,269,cs),
(603,269,o),
(665,439,o),
(643,439,cs),
(551,438,o),
(460,438,o),
(369,438,cs)
);
},
{
closed = 1;
nodes = (
(668,540,o),
(717,714,o),
(693,704,cs),
(642,684,o),
(486,724,o),
(394,693,cs),
(373,686,o),
(326,513,o),
(348,521,cs),
(438,550,o),
(592,510,o),
(647,532,cs)
);
},
{
closed = 1;
nodes = (
(295,621,o),
(290,528,o),
(301,536,cs),
(331,557,o),
(362,579,o),
(392,600,cs),
(404,609,o),
(406,702,o),
(392,692,cs),
(363,671,o),
(335,649,o),
(305,628,cs)
);
}
);
width = 699;
}
);
unicode = 198;
},
{
glyphname = B;
lastChange = "2024-02-12 17:04:37 +0000";
layers = (
{
layerId = m01;
shapes = (
{
closed = 1;
nodes = (
(291,-3,o),
(414,143,o),
(391,147,cs),
(171,188,o),
(81,195,o),
(42,168,cs),
(19,152,o),
(-40,-19,o),
(-12,0,cs),
(-5,5,o),
(73,38,o),
(271,1,cs)
);
},
{
closed = 1;
nodes = (
(172,636,o),
(81,569,o),
(74,529,cs),
(56,425,o),
(29,118,o),
(27,106,cs),
(23,66,o),
(111,135,o),
(115,172,cs),
(115,172,o),
(148,501,o),
(164,591,cs)
);
},
{
closed = 1;
nodes = (
(231,310,o),
(223,291,o),
(226,280,cs),
(230,259,o),
(272,272,o),
(316,326,cs),
(416,449,o),
(441,539,o),
(424,601,cs),
(394,709,o),
(238,734,o),
(129,705,cs),
(106,699,o),
(14,543,o),
(43,551,cs),
(168,583,o),
(261,557,o),
(292,499,cs),
(314,458,o),
(305,401,o),
(254,338,cs)
);
},
{
closed = 1;
nodes = (
(107,484,o),
(45,315,o),
(64,309,cs),
(234,256,o),
(305,222,o),
(329,195,cs),
(350,171,o),
(332,153,o),
(315,132,cs),
(279,89,o),
(269,57,o),
(277,44,cs),
(285,29,o),
(318,40,o),
(361,92,cs),
(457,206,o),
(480,278,o),
(457,328,cs),
(422,402,o),
(283,429,o),
(126,479,cs)
);
}
);
width = 494;
}
);
unicode = 66;
},
{
glyphname = C;
lastChange = "2024-02-12 17:04:37 +0000";
layers = (
{
guides = (
{
pos = (683,541);
}
);
layerId = m01;
shapes = (
{
closed = 1;
nodes = (
(405,662,o),
(275,596,o),
(224,543,cs),
(40,351,o),
(-6,208,o),
(15,114,cs),
(48,-25,o),
(229,-54,o),
(323,35,cs),
(356,66,o),
(432,249,o),
(395,213,cs),
(313,136,o),
(176,138,o),
(153,236,cs),
(136,307,o),
(180,429,o),
(352,607,cs)
);
},
{
closed = 1;
nodes = (
(404,593,o),
(457,761,o),
(425,727,cs),
(401,703,o),
(281,694,o),
(241,732,cs),
(225,747,o),
(161,579,o),
(177,564,cs),
(219,525,o),
(341,528,o),
(377,565,cs)
);
}
);
width = 464;
}
);
unicode = 67;
},
{
glyphname = D;
lastChange = "2024-02-12 17:04:37 +0000";
layers = (
{
layerId = m01;
shapes = (
{
closed = 1;
nodes = (
(96,725,o),
(32,554,o),
(50,545,cs),
(210,473,o),
(294,389,o),
(331,312,cs),
(368,235,o),
(358,164,o),
(328,115,cs),
(286,46,o),
(342,39,o),
(386,111,cs),
(459,230,o),
(470,341,o),
(428,440,cs),
(383,550,o),
(273,644,o),
(114,717,cs)
);
},
{
closed = 1;
nodes = (
(45,48,o),
(125,43,o),
(128,95,cs),
(139,309,o),
(170,614,o),
(150,641,cs),
(119,680,o),
(53,634,o),
(86,591,cs),
(87,591,o),
(61,358,o),
(48,99,cs)
);
},
{
closed = 1;
nodes = (
(304,-4,o),
(423,146,o),
(383,150,cs),
(160,174,o),
(110,202,o),
(65,167,cs),
(41,148,o),
(-16,-22,o),
(13,1,cs),
(26,12,o),
(64,22,o),
(271,0,cs)
);
}
);
width = 512;
}
);
unicode = 68;
},
{
glyphname = E;
lastChange = "2024-02-12 17:04:37 +0000";
layers = (
{
layerId = m01;
shapes = (
{
closed = 1;
nodes = (
(180,664,o),
(96,602,o),
(93,575,cs),
(74,390,o),
(57,200,o),
(39,29,cs),
(34,-15,o),
(55,0,o),
(63,6,cs),
(90,30,o),
(121,35,o),
(170,19,cs),
(238,-2,o),
(329,-18,o),
(379,25,cs),
(402,44,o),
(448,218,o),
(421,195,cs),
(385,166,o),
(294,169,o),
(232,189,cs),
(181,205,o),
(154,206,o),
(99,160,c),
(107,152,o),
(115,144,o),
(123,137,c),
(141,314,o),
(160,472,o),
(177,635,cs)
);
},
{
closed = 1;
nodes = (
(68,438,o),
(8,268,o),
(29,268,cs),
(137,269,o),
(245,269,o),
(352,269,cs),
(372,269,o),
(434,439,o),
(412,439,cs),
(304,438,o),
(196,438,o),
(89,438,cs)
);
},
{
closed = 1;
nodes = (
(440,549,o),
(487,723,o),
(460,703,cs),
(432,683,o),
(341,698,o),
(254,703,cs),
(190,707,o),
(129,706,o),
(98,681,cs),
(75,662,o),
(31,491,o),
(56,511,cs),
(90,538,o),
(173,531,o),
(252,524,cs),
(323,518,o),
(391,513,o),
(418,533,cs)
);
}
);
width = 498;
}
);
unicode = 69;
},
{
glyphname = F;
lastChange = "2024-02-12 17:04:37 +0000";
layers = (
{
layerId = m01;
shapes = (
{
closed = 1;
nodes = (
(183,673,o),
(101,602,o),
(98,574,cs),
(81,405,o),
(65,236,o),
(48,68,cs),
(45,36,o),
(127,110,o),
(130,136,cs),
(147,305,o),
(163,474,o),
(180,642,cs)
);
},
{
closed = 1;
nodes = (
(440,561,o),
(483,733,o),
(454,705,cs),
(419,672,o),
(165,715,o),
(114,690,cs),
(91,678,o),
(37,508,o),
(62,520,cs),
(109,545,o),
(367,492,o),
(414,537,cs)
);
},
{
closed = 1;
nodes = (
(367,285,o),
(415,459,o),
(389,444,cs),
(353,424,o),
(130,457,o),
(86,431,cs),
(63,418,o),
(18,245,o),
(42,259,cs),
(80,281,o),
(303,248,o),
(345,272,cs)
);
},
{
closed = 1;
nodes = (
(24,143,o),
(-32,-27,o),
(-1,2,cs),
(17,19,o),
(49,28,o),
(79,28,cs),
(105,27,o),
(130,18,o),
(144,0,cs),
(159,-19,o),
(221,150,o),
(208,168,cs),
(189,192,o),
(152,202,o),
(116,196,cs),
(91,193,o),
(67,183,o),
(49,166,cs)
);
}
);
width = 434;
}
);
unicode = 70;
},
{
glyphname = G;
lastChange = "2024-02-12 17:04:37 +0000";
layers = (
{
layerId = m01;
shapes = (
{
closed = 1;
nodes = (
(398,637,o),
(388,644,o),
(365,640,cs),
(342,636,o),
(306,621,o),
(281,599,cs),
(118,455,o),
(35,324,o),
(12,218,cs),
(-8,128,o),
(17,55,o),
(73,9,cs),
(111,-22,o),
(170,-16,o),
(184,-16,cs),
(193,-16,o),
(372,140,o),
(404,186,cs),
(424,217,o),
(415,266,o),
(392,234,cs),
(376,209,o),
(264,116,o),
(264,116,cs),
(260,116,o),
(226,115,o),
(199,137,cs),
(159,170,o),
(137,213,o),
(138,265,cs),
(140,355,o),
(211,472,o),
(373,615,cs)
);
},
{
closed = 1;
nodes = (
(248,351,o),
(160,219,o),
(221,267,cs),
(235,279,o),
(274,284,o),
(297,260,cs),
(308,248,o),
(315,229,o),
(313,200,cs),
(310,135,o),
(301,72,o),
(294,6,cs),
(288,-58,o),
(300,-105,o),
(335,-100,cs),
(362,-97,o),
(488,33,o),
(455,28,cs),
(432,25,o),
(429,50,o),
(436,114,cs),
(442,178,o),
(451,244,o),
(455,308,cs),
(457,350,o),
(433,387,o),
(400,404,cs),
(370,419,o),
(332,418,o),
(297,391,cs)
);
},
{
closed = 1;
nodes = (
(398,593,o),
(451,761,o),
(419,727,cs),
(406,714,o),
(366,706,o),
(325,706,cs),
(289,707,o),
(254,714,o),
(235,732,cs),
(219,747,o),
(155,579,o),
(171,564,cs),
(191,546,o),
(229,537,o),
(267,536,cs),
(310,535,o),
(352,545,o),
(371,565,cs)
);
}
);
width = 525;
}
);
unicode = 71;
},
{
glyphname = H;
lastChange = "2024-02-12 17:04:37 +0000";
layers = (
{
guides = (
{
pos = (103,-2);
},
{
pos = (204,711);
},
{
pos = (1015,217);
}
);
layerId = m01;
shapes = (
{
closed = 1;
nodes = (
(84,438,o),
(23,268,o),
(44,268,cs),
(188,269,o),
(333,269,o),
(477,269,cs),
(496,269,o),
(558,439,o),
(537,439,cs),
(393,438,o),
(248,438,o),
(104,438,cs)
);
},
{
closed = 1;
nodes = (
(168,702,o),
(38,571,o),
(77,580,cs),
(86,583,o),
(97,564,o),
(92,488,cs),
(82,361,o),
(72,234,o),
(63,106,cs),
(57,39,o),
(81,-4,o),
(104,0,cs),
(134,5,o),
(261,138,o),
(226,132,cs),
(191,126,o),
(203,155,o),
(207,218,cs),
(217,345,o),
(227,472,o),
(236,600,cs),
(241,660,o),
(230,717,o),
(199,710,cs)
);
},
{
closed = 1;
nodes = (
(437,702,o),
(307,571,o),
(346,580,cs),
(355,583,o),
(366,564,o),
(361,488,cs),
(351,361,o),
(341,234,o),
(332,106,cs),
(326,39,o),
(350,-4,o),
(373,0,cs),
(403,5,o),
(530,138,o),
(495,132,cs),
(460,126,o),
(472,155,o),
(476,218,cs),
(486,345,o),
(496,472,o),
(505,600,cs),
(510,660,o),
(499,717,o),
(468,710,cs)
);
}
);
width = 581;
}
);
unicode = 72;
},
{
glyphname = I;
lastChange = "2024-02-12 17:04:37 +0000";
layers = (
{
layerId = m01;
shapes = (
{
closed = 1;
nodes = (
(156,702,o),
(26,571,o),
(65,580,cs),
(74,583,o),
(85,565,o),
(80,488,cs),
(70,361,o),
(60,234,o),
(51,106,cs),
(45,39,o),
(69,-4,o),
(92,0,cs),
(122,5,o),
(249,138,o),
(214,132,cs),
(179,126,o),
(191,155,o),
(195,218,cs),
(205,345,o),
(215,472,o),
(224,600,cs),
(229,661,o),
(218,717,o),
(187,710,cs)
);
}
);
width = 275;
}
);
unicode = 73;
},
{
glyphname = J;
lastChange = "2024-02-12 17:04:37 +0000";
layers = (
{
layerId = m01;
shapes = (
{
closed = 1;
nodes = (
(103,-23,o),
(215,118,o),
(211,141,cs),
(206,161,o),
(189,189,o),
(166,212,cs),
(141,238,o),
(108,256,o),
(82,247,cs),
(54,237,o),
(-54,93,o),
(-18,105,cs),
(2,112,o),
(34,91,o),
(60,64,cs),
(79,44,o),
(94,21,o),
(97,3,cs)
);
},
{
closed = 1;
nodes = (
(322,702,o),
(192,571,o),
(231,580,cs),
(240,583,o),
(253,563,o),
(246,488,cs),
(236,399,o),
(226,309,o),
(217,219,cs),
(203,96,o),
(201,120,o),
(199,119,cs),
(128,64,o),
(56,-40,o),
(135,21,cs),
(356,193,o),
(356,281,o),
(361,331,cs),
(371,420,o),
(381,510,o),
(390,600,cs),
(397,661,o),
(384,717,o),
(353,710,cs)
);
}
);
width = 427;
}
);
unicode = 74;
},
{
glyphname = K;
lastChange = "2024-02-12 17:04:37 +0000";
layers = (
{
layerId = m01;
shapes = (
{
closed = 1;
nodes = (
(294,459,o),
(174,324,o),
(192,314,cs),
(201,309,o),
(226,238,o),
(260,166,cs),
(297,87,o),
(344,5,o),
(394,0,cs),
(416,-2,o),
(533,135,o),
(508,138,cs),
(470,141,o),
(432,199,o),
(399,264,cs),
(356,348,o),
(323,443,o),
(310,450,cs)
);
},
{
closed = 1;
nodes = (
(134,696,o),
(10,562,o),
(54,579,cs),
(64,583,o),
(71,566,o),
(66,496,cs),
(56,370,o),
(46,244,o),
(37,118,cs),
(32,54,o),
(32,0,o),
(77,0,cs),
(103,0,o),
(234,152,o),
(201,152,cs),
(178,152,o),
(177,165,o),
(181,230,cs),
(191,356,o),
(201,482,o),
(210,608,cs),
(215,663,o),
(208,723,o),
(170,709,cs)
);
},
{
closed = 1;
nodes = (
(502,572,o),
(556,740,o),
(525,711,cs),
(491,680,o),
(410,674,o),
(380,713,cs),
(366,731,o),
(301,564,o),
(316,545,cs),
(348,504,o),
(431,506,o),
(475,547,cs)
);
},
{
closed = 1;
nodes = (
(509,609,o),
(402,615,o),
(385,596,cs),
(363,570,o),
(72,259,o),
(64,251,cs),
(45,230,o),
(153,226,o),
(170,243,cs),
(178,252,o),
(468,563,o),
(491,588,cs)
);
}
);
width = 559;
}
);
unicode = 75;
},
{
glyphname = L;
lastChange = "2024-02-12 17:04:37 +0000";
layers = (
{
layerId = m01;
shapes = (
{
closed = 1;
nodes = (
(48,92,o),
(-3,-43,o),
(43,11,cs),
(70,42,o),
(122,59,o),
(169,37,cs),
(210,16,o),
(273,-19,o),
(325,18,cs),
(350,36,o),
(407,206,o),
(377,184,cs),
(337,155,o),
(304,170,o),
(263,189,cs),
(208,217,o),
(150,210,o),
(87,137,cs)
);
},
{
closed = 1;
nodes = (
(147,703,o),
(20,575,o),
(57,583,cs),
(77,587,o),
(71,561,o),
(65,490,cs),
(52,334,o),
(41,177,o),
(27,21,cs),
(24,-16,o),
(164,122,o),
(167,155,cs),
(179,303,o),
(194,450,o),
(207,598,cs),
(211,649,o),
(217,717,o),
(177,709,cs)
);
}
);
width = 426;
}
);
unicode = 76;
},
{
glyphname = M;
lastChange = "2024-02-12 17:04:37 +0000";
layers = (
{
layerId = m01;
shapes = (
{
closed = 1;
nodes = (
(264,730,o),
(137,605,o),
(147,587,cs),
(216,475,o),
(239,49,o),
(294,-2,cs),
(308,-15,o),
(435,111,o),
(420,124,cs),
(371,171,o),
(344,599,o),
(275,713,cs)
);
},
{
closed = 1;
nodes = (
(19,62,o),
(120,114,o),
(128,138,cs),
(211,372,o),
(219,654,o),
(219,657,cs),
(221,683,o),
(138,605,o),
(137,583,cs),
(136,572,o),
(114,329,o),
(30,92,cs)
);
},
{
closed = 1;
nodes = (
(289,128,o),
(389,164,o),
(398,186,cs),
(490,406,o),
(543,620,o),
(545,640,cs),
(550,673,o),
(465,614,o),
(461,584,cs),
(459,574,o),
(388,368,o),
(300,154,cs)
);
},
{
closed = 1;
nodes = (
(598,737,o),
(469,613,o),
(469,585,cs),
(471,472,o),
(459,4,o),
(533,-1,cs),
(556,-2,o),
(679,123,o),
(651,125,cs),
(587,129,o),
(601,586,o),
(599,707,cs)
);
},
{
closed = 1;
nodes = (
(-1,143,o),
(-57,-27,o),
(-26,2,cs),
(-7,19,o),
(28,29,o),
(60,27,cs),
(86,26,o),
(110,18,o),
(123,0,cs),
(137,-20,o),
(200,150,o),
(187,168,cs),
(172,188,o),
(143,198,o),
(113,198,cs),
(81,198,o),
(46,187,o),
(24,166,cs)
);
}
);
width = 715;
}
);
unicode = 77;
},
{
glyphname = N;
lastChange = "2024-02-12 17:04:37 +0000";
layers = (
{
layerId = m01;
shapes = (
{
closed = 1;
nodes = (
(175,728,o),
(54,609,o),
(64,591,cs),
(155,428,o),
(255,129,o),
(358,2,cs),
(370,-13,o),
(491,107,o),
(478,122,cs),
(377,247,o),
(277,546,o),
(186,709,cs)
);
},
{
closed = 1;
nodes = (
(-11,145,o),
(-67,-25,o),
(-36,4,cs),
(-16,23,o),
(21,32,o),
(54,29,cs),
(76,27,o),
(97,18,o),
(109,2,cs),
(124,-17,o),
(186,152,o),
(173,170,cs),
(157,190,o),
(129,200,o),
(99,200,cs),
(69,200,o),
(36,189,o),
(14,168,cs)
);
},
{
closed = 1;
nodes = (
(530,570,o),
(584,738,o),
(553,709,cs),
(533,690,o),
(496,681,o),
(463,684,cs),
(440,687,o),
(420,695,o),
(408,711,cs),
(394,729,o),
(329,562,o),
(344,543,cs),
(364,518,o),
(403,509,o),
(440,515,cs),
(464,519,o),
(486,529,o),
(503,545,cs)
);
},
{
closed = 1;
nodes = (
(23,4,o),
(113,62,o),
(122,107,cs),
(133,167,o),
(173,635,o),
(173,636,cs),
(177,683,o),
(87,621,o),
(83,578,cs),
(81,562,o),
(44,116,o),
(32,55,cs)
);
},
{
closed = 1;
nodes = (
(348,4,o),
(438,62,o),
(447,107,cs),
(458,167,o),
(498,635,o),
(498,636,cs),
(502,683,o),
(412,621,o),
(408,578,cs),
(406,562,o),
(369,116,o),
(357,55,cs)
);
}
);
width = 532;
}
);
unicode = 78;
},
{
glyphname = O;
lastChange = "2024-02-12 17:04:37 +0000";
layers = (
{
layerId = m01;
shapes = (
{
closed = 1;
nodes = (
(121,33,o),
(103,-64,o),
(214,14,cs),
(321,90,o),
(438,227,o),
(440,395,cs),
(442,494,o),
(404,602,o),
(301,715,cs),
(287,731,o),
(190,546,o),
(205,529,cs),
(272,455,o),
(308,392,o),
(324,339,cs),
(374,172,o),
(224,105,o),
(222,104,cs)
);
},
{
closed = 1;
nodes = (
(286,591,o),
(346,763,o),
(279,698,cs),
(211,632,o),
(6,344,o),
(5,153,cs),
(5,70,o),
(44,4,o),
(152,-15,cs),
(189,-22,o),
(346,119,o),
(302,127,cs),
(206,144,o),
(161,189,o),
(146,243,cs),
(111,366,o),
(229,536,o),
(229,536,cs)
);
}
);
width = 474;
}
);
unicode = 79;
},
{
glyphname = Oslash;
lastChange = "2024-02-12 17:04:37 +0000";
layers = (
{
layerId = m01;
shapes = (
{
closed = 1;
nodes = (
(121,33,o),
(103,-64,o),
(214,14,cs),
(321,90,o),
(438,227,o),
(440,395,cs),
(442,494,o),
(404,602,o),
(301,715,cs),
(287,731,o),
(190,546,o),
(205,529,cs),
(301,423,o),
(333,340,o),
(334,277,cs),
(336,155,o),
(224,105,o),
(222,104,cs)
);
},
{
closed = 1;
nodes = (
(286,591,o),
(346,763,o),
(279,698,cs),
(219,640,o),
(55,413,o),
(14,230,cs),
(-12,111,o),
(13,10,o),
(152,-15,cs),
(189,-22,o),
(346,119,o),
(302,127,cs),
(151,154,o),
(128,249,o),
(145,341,cs),
(163,440,o),
(229,536,o),
(229,536,cs)
);
},
{
closed = 1;
nodes = (
(463,708,o),
(456,722,o),
(439,721,cs),
(411,719,o),
(358,682,o),
(333,632,cs),
(312,591,o),
(52,-31,o),
(51,-33,cs),
(41,-56,o),
(44,-68,o),
(53,-71,cs),
(78,-80,o),
(148,-32,o),
(171,23,cs),
(183,51,o),
(424,631,o),
(447,676,cs)
);
}
);
width = 490;
}
);
unicode = 216;
},
{
glyphname = OE;
lastChange = "2024-02-12 17:04:37 +0000";
layers = (
{
layerId = m01;
shapes = (
{
closed = 1;
nodes = (
(486,640,o),
(483,642,o),
(479,642,cs),
(460,642,o),
(403,597,o),
(401,575,cs),
(382,390,o),
(365,200,o),
(347,29,cs),
(344,5,o),
(349,-1,o),
(356,-1,cs),
(361,-1,o),
(367,3,o),
(371,6,cs),
(387,21,o),
(406,28,o),
(429,28,cs),
(444,28,o),
(460,25,o),
(478,19,cs),
(515,8,o),
(557,-2,o),
(597,-2,cs),
(632,-2,o),
(664,5,o),
(687,25,cs),
(705,40,o),
(737,149,o),
(737,185,cs),
(737,196,o),
(735,200,o),
(729,195,cs),
(710,180,o),
(677,173,o),
(641,173,cs),
(607,173,o),
(570,179,o),
(540,189,cs),
(520,195,o),
(504,199,o),
(489,199,cs),
(464,199,o),
(441,188,o),
(407,160,c),
(415,152,o),
(423,144,o),
(431,137,c),
(449,314,o),
(468,472,o),
(485,635,cs)
);
},
{
closed = 1;
nodes = (
(397,438,o),
(351,314,o),
(351,278,cs),
(351,272,o),
(352,268,o),
(355,268,cs),
(457,269,o),
(559,269,o),
(660,269,cs),
(677,269,o),
(724,392,o),
(724,429,cs),
(724,435,o),
(723,439,o),
(720,439,cs),
(618,438,o),
(516,438,o),
(415,438,cs)
);
},
{
closed = 1;
nodes = (
(743,545,o),
(776,657,o),
(776,693,cs),
(776,703,o),
(774,708,o),
(768,703,cs),
(758,696,o),
(740,693,o),
(717,693,cs),
(663,693,o),
(581,708,o),
(514,708,cs),
(473,708,o),
(437,703,o),
(416,685,cs),
(398,670,o),
(367,560,o),
(367,524,cs),
(367,515,o),
(369,511,o),
(374,515,cs),
(392,529,o),
(422,533,o),
(457,533,cs),
(521,533,o),
(602,519,o),
(661,519,cs),
(689,519,o),
(712,523,o),
(726,533,cs)
);
},
{
closed = 1;
nodes = (
(174,66,o),
(143,21,o),
(143,-1,cs),
(143,-10,o),
(148,-15,o),
(157,-15,cs),
(170,-15,o),
(190,-7,o),
(219,14,cs),
(327,90,o),
(445,230,o),
(445,400,cs),
(445,497,o),
(407,604,o),
(306,715,cs),
(292,731,o),
(195,546,o),
(210,529,cs),
(293,437,o),
(328,363,o),
(337,303,cs),
(339,292,o),
(339,282,o),
(339,273,cs),
(339,154,o),
(229,105,o),
(227,104,cs)
);
},
{
closed = 1;
nodes = (
(273,574,o),
(313,666,o),
(313,700,cs),
(313,707,o),
(311,712,o),
(306,712,cs),
(302,712,o),
(294,708,o),
(284,698,cs),
(216,632,o),
(10,344,o),
(10,153,cs),
(10,69,o),
(50,4,o),
(157,-15,cs),
(190,-21,o),
(314,87,o),
(314,119,cs),
(314,123,o),
(312,126,o),
(307,127,cs),
(183,149,o),
(145,217,o),
(145,292,cs),
(145,407,o),
(234,536,o),
(234,536,cs)
);
}
);
width = 796;
}
);
unicode = 338;
},
{
glyphname = P;
lastChange = "2024-02-12 17:04:37 +0000";
layers = (
{
guides = (
{
pos = (113,716);
},
{
pos = (-217,587);
},
{
pos = (-226,373);
}
);
layerId = m01;
shapes = (
{
closed = 1;
nodes = (
(197,226,o),
(266,221,o),
(330,305,cs),
(435,441,o),
(455,541,o),
(427,609,cs),
(389,701,o),
(262,732,o),
(140,707,cs),
(118,702,o),
(35,564,o),
(62,569,cs),
(197,597,o),
(278,563,o),
(306,502,cs),
(330,450,o),
(314,377,o),
(260,307,cs)
);
},
{
closed = 1;
nodes = (
(266,214,o),
(383,364,o),
(334,369,cs),
(182,386,o),
(130,407,o),
(98,394,cs),
(76,386,o),
(17,216,o),
(40,226,cs),
(48,229,o),
(86,234,o),
(224,219,cs)
);
},
{
closed = 1;
nodes = (
(217,629,o),
(76,519,o),
(74,492,cs),
(66,363,o),
(58,235,o),
(49,106,cs),
(45,42,o),
(58,0,o),
(89,0,cs),
(113,0,o),
(240,130,o),
(211,130,cs),
(190,130,o),
(186,150,o),
(191,214,cs),
(199,343,o),
(207,471,o),
(216,600,cs)
);
}
);
width = 443;
}
);
unicode = 80;
},
{
glyphname = Q;
lastChange = "2024-02-12 17:04:37 +0000";
layers = (
{
layerId = m01;
shapes = (
{
closed = 1;
nodes = (
(263,335,o),
(219,290,o),
(221,273,cs),
(229,215,o),
(265,97,o),
(326,31,cs),
(359,-4,o),
(398,-25,o),
(444,-13,cs),
(468,-7,o),
(541,194,o),
(514,187,cs),
(469,176,o),
(420,181,o),
(377,197,cs),
(318,220,o),
(272,264,o),
(265,319,cs)
);
},
{
closed = 1;
nodes = (
(136,33,o),
(118,-64,o),
(229,14,cs),
(344,95,o),
(470,247,o),
(454,432,cs),
(446,520,o),
(406,616,o),
(316,715,cs),
(302,731,o),
(205,546,o),
(220,529,cs),
(275,468,o),
(309,414,o),
(329,367,cs),
(406,179,o),
(239,106,o),
(237,104,cs)
);
},
{
closed = 1;
nodes = (
(301,591,o),
(361,763,o),
(294,698,cs),
(226,632,o),
(22,346,o),
(20,155,cs),
(19,70,o),
(59,4,o),
(167,-15,cs),
(204,-22,o),
(361,119,o),
(317,127,cs),
(199,148,o),
(159,210,o),
(155,280,cs),
(148,397,o),
(244,536,o),
(244,536,cs)
);
}
);
width = 580;
}
);
unicode = 81;
},
{
glyphname = R;
lastChange = "2024-02-12 17:04:37 +0000";
layers = (
{
guides = (
{
angle = 180;
pos = (332,360);
},
{
pos = (178,564);
}
);
layerId = m01;
shapes = (
{
closed = 1;
nodes = (
(174,621,o),
(103,470,o),
(105,421,cs),
(110,268,o),
(323,-23,o),
(394,0,cs),
(414,7,o),
(476,178,o),
(452,170,cs),
(363,139,o),
(180,442,o),
(175,575,cs)
);
},
{
closed = 1;
nodes = (
(14,143,o),
(-42,-27,o),
(-11,2,cs),
(23,33,o),
(104,39,o),
(134,0,cs),
(149,-19,o),
(211,150,o),
(198,168,cs),
(166,209,o),
(83,207,o),
(39,166,cs)
);
},
{
closed = 1;
nodes = (
(173,642,o),
(80,560,o),
(76,462,cs),
(68,287,o),
(74,300,o),
(54,63,cs),
(50,17,o),
(129,64,o),
(132,105,cs),
(154,358,o),
(160,373,o),
(168,540,cs)
);
},
{
closed = 1;
nodes = (
(190,257,o),
(236,226,o),
(308,308,cs),
(429,444,o),
(456,540,o),
(434,604,cs),
(396,715,o),
(212,731,o),
(111,695,cs),
(87,687,o),
(-4,530,o),
(25,541,cs),
(160,588,o),
(265,561,o),
(300,498,cs),
(323,456,o),
(314,398,o),
(260,336,cs)
);
}
);
width = 517;
}
);
unicode = 82;
},
{
glyphname = S;
lastChange = "2024-02-12 17:04:37 +0000";
layers = (
{
layerId = m01;
shapes = (
{
closed = 1;
nodes = (
(265,418,o),
(389,525,o),
(415,574,cs),
(435,615,o),
(419,677,o),
(374,703,cs),
(336,725,o),
(277,721,o),
(203,660,cs),
(134,603,o),
(93,526,o),
(169,588,cs),
(193,608,o),
(242,590,o),
(273,557,cs),
(295,533,o),
(307,501,o),
(291,470,cs)
);
},
{
closed = 1;
nodes = (
(204,663,o),
(78,551,o),
(60,509,cs),
(16,409,o),
(93,359,o),
(162,294,cs),
(227,234,o),
(302,188,o),
(260,86,cs),
(245,49,o),
(370,163,o),
(386,202,cs),
(438,326,o),
(349,356,o),
(284,416,cs),
(215,479,o),
(150,539,o),
(186,623,cs)
);
},
{
closed = 1;
nodes = (
(155,274,o),
(27,159,o),
(10,117,cs),
(-4,83,o),
(12,33,o),
(49,5,cs),
(89,-25,o),
(154,-29,o),
(235,40,cs),
(305,99,o),
(340,171,o),
(263,106,cs),
(247,93,o),
(193,111,o),
(159,145,cs),
(137,167,o),
(123,196,o),
(136,227,cs)
);
}
);
width = 464;
}
);
unicode = 83;
},
{
glyphname = Germandbls;
lastChange = "2024-02-12 16:29:26 +0000";
layers = (
{
layerId = m01;
shapes = (
{
closed = 1;
nodes = (
(528.429,573.213,o),
(617.45,730.341,o),
(577.559,715.049,cs),
(519.201,692.679,o),
(178.724,730.168,o),
(138.632,712.196,cs),
(102.129,695.833,o),
(38.935,526.99,o),
(85.368,547.804,cs),
(103.276,555.832,o),
(434.799,537.321,o),
(496.441,560.951,cs)
);
},
{
closed = 1;
nodes = (
(229.44,328.972,o),
(248.272,278.28,o),
(307.768,330.848,cs),
(349,367,o),
(415,367,o),
(453,330,cs),
(482,302,o),
(493,251,o),
(457.634,178.918,cs),
(424.429,109.986,o),
(530.702,219.503,o),
(560.366,281.082,cs),
(600,363,o),
(586,436,o),
(535,464,cs),
(484,492,o),
(396,476,o),
(286.232,379.152,cs)
);
},
{
closed = 1;
nodes = (
(585.291,304.894,o),
(591.324,398.599,o),
(551.257,314.144,cs),
(498,203,o),
(393,121,o),
(347,145,cs),
(327,155,o),
(317,183,o),
(326.394,236.623,cs),
(332.386,271.604,o),
(203.156,149.784,o),
(197.606,117.377,cs),
(187,56,o),
(209,18,o),
(247,4,cs),
(294,-13,o),
(368,9,o),
(437,72,cs),
(478,109,o),
(517,161,o),
(548.743,227.856,cs)
);
},
{
closed = 1;
nodes = (
(577.126,634.499,o),
(473.05,640.934,o),
(414.725,587.911,cs),
(382.109,558.26,o),
(269.57,364.268,o),
(268.594,362.765,cs),
(228.927,301.677,o),
(358.47,349.432,o),
(393.406,403.235,cs),
(397.754,409.93,o),
(516.945,579.789,o),
(517.275,580.089,cs)
);
},
{
closed = 1;
nodes = (
(125.727,714.153,o),
(-8.297,583.847,o),
(21.281,583.847,cs),
(40.195,583.847,o),
(45.614,562.959,o),
(40.522,494.328,cs),
(31.074,366.979,o),
(21.253,239.657,o),
(11.522,112.328,cs),
(6.406,45.38,o),
(12.685,15.426,o),
(31.788,1.417,cs),
(47.586,-10.168,o),
(178.398,120.713,o),
(162.212,132.583,cs),
(151.315,140.574,o),
(151.659,160.615,o),
(156.478,223.672,cs),
(166.208,351,o),
(176.03,478.322,o),
(185.478,605.672,cs),
(190.636,675.194,o),
(178.106,714.153,o),
(148.719,714.153,cs)
);
}
);
width = 626;
}
);
unicode = 7838;
},
{
glyphname = T;
lastChange = "2024-02-12 17:04:37 +0000";
layers = (
{
layerId = m01;
shapes = (
{
closed = 1;
nodes = (
(427,565,o),
(487,733,o),
(440,710,cs),
(388,685,o),
(145,739,o),
(85,686,cs),
(61,665,o),
(18,494,o),
(43,516,cs),
(93,559,o),
(320,513,o),
(388,546,cs)
);
},
{
closed = 1;
nodes = (
(347,628,o),
(296,646,o),
(263,602,cs),
(139,443,o),
(78,262,o),
(70,164,cs),
(61,53,o),
(126,-31,o),
(210,-14,cs),
(243,-7,o),
(374,106,o),
(336,98,cs),
(274,85,o),
(192,177,o),
(200,280,cs),
(205,336,o),
(229,475,o),
(311,582,cs)
);
}
);
width = 422;
}
);
unicode = 84;
},
{
glyphname = U;
lastChange = "2024-02-12 17:04:37 +0000";
layers = (
{
layerId = m01;
shapes = (
{
closed = 1;
nodes = (
(393,364,o),
(383,372,o),
(372,373,cs),
(363,373,o),
(354,368,o),
(352,355,cs),
(325,114,o),
(253,124,o),
(241,124,cs),
(192,120,o),
(180,203,o),
(189,293,cs),
(200,394,o),
(209,495,o),
(219,596,cs),
(226,664,o),
(194,723,o),
(142,706,cs),
(109,695,o),
(-13,565,o),
(28,578,cs),
(72,593,o),
(79,550,o),
(75,502,cs),
(64,401,o),
(55,300,o),
(45,199,cs),
(34,96,o),
(97,-23,o),
(193,-16,cs),
(317,-6,o),
(377,220,o),
(392,351,cs)
);
},
{
closed = 1;
nodes = (
(415,-1,o),
(531,117,o),
(503,117,cs),
(461,117,o),
(463,199,o),
(472,293,cs),
(483,394,o),
(493,495,o),
(503,596,cs),
(510,664,o),
(477,723,o),
(425,706,cs),
(392,695,o),
(270,565,o),
(311,578,cs),
(355,593,o),
(364,550,o),
(359,502,cs),
(348,401,o),
(338,300,o),
(328,199,cs),
(316,88,o),
(338,-1,o),
(391,-1,cs)
);
}
);
width = 567;
}
);
unicode = 85;
},
{
glyphname = V;
lastChange = "2024-02-12 17:04:37 +0000";
layers = (
{
layerId = m01;
shapes = (
{
closed = 1;
nodes = (
(505,648,o),
(409,626,o),
(403,605,cs),
(344,404,o),
(253,121,o),
(239,30,cs),
(235,8,o),
(344,111,o),
(347,134,cs),
(357,195,o),
(446,446,o),
(499,625,cs)
);
},
{
closed = 1;
nodes = (
(533,572,o),
(587,740,o),
(556,711,cs),
(537,694,o),
(504,684,o),
(473,686,cs),
(448,687,o),
(424,695,o),
(411,713,cs),
(397,731,o),
(332,564,o),
(347,545,cs),
(364,523,o),
(396,513,o),
(429,516,cs),
(457,517,o),
(486,528,o),
(506,547,cs)
);
},
{
closed = 1;
nodes = (
(248,6,o),
(372,144,o),
(321,121,cs),
(309,115,o),
(243,487,o),
(215,635,cs),
(205,689,o),
(158,721,o),
(124,711,cs),
(92,701,o),
(-31,571,o),
(8,583,cs),
(46,595,o),
(77,563,o),
(87,511,cs),
(113,371,o),
(163,-33,o),
(203,-15,cs)
);
}
);
width = 505;
}
);
unicode = 86;
},
{
glyphname = W;
lastChange = "2024-02-12 17:04:37 +0000";
layers = (
{
layerId = m01;
shapes = (
{
closed = 1;
nodes = (
(382,-18,o),
(510,110,o),
(500,127,cs),
(442,232,o),
(457,659,o),
(399,711,cs),
(385,724,o),
(264,605,o),
(279,591,cs),
(331,543,o),
(312,110,o),
(372,1,cs)
);
},
{
closed = 1;
nodes = (
(682,646,o),
(577,599,o),
(568,574,cs),
(484,331,o),
(408,37,o),
(405,26,cs),
(397,-1,o),
(512,110,o),
(519,138,cs),
(522,149,o),
(589,376,o),
(672,618,cs)
);
},
{
closed = 1;
nodes = (
(429,637,o),
(335,597,o),
(325,571,cs),
(284,463,o),
(181,70,o),
(180,70,cs),
(124,-1,o),
(204,57,o),
(260,126,cs),
(295,171,o),
(391,535,o),
(419,609,cs)
);
},
{
closed = 1;
nodes = (
(128,-19,o),
(256,109,o),
(249,128,cs),
(194,280,o),
(241,745,o),
(126,709,cs),
(94,700,o),
(-21,577,o),
(18,589,cs),
(115,618,o),
(55,182,o),
(121,2,cs)
);
},
{
closed = 1;
nodes = (
(699,573,o),
(753,742,o),
(722,712,cs),
(703,694,o),
(667,685,o),
(634,687,cs),
(609,688,o),
(586,697,o),
(573,714,cs),
(559,732,o),
(495,566,o),
(509,546,cs),
(527,522,o),
(565,513,o),
(602,517,cs),
(628,521,o),
(654,531,o),
(672,548,cs)
);
}
);
width = 701;
}
);
unicode = 87;
},
{
glyphname = X;
lastChange = "2024-02-12 17:04:37 +0000";
layers = (
{
layerId = m01;
shapes = (
{
closed = 1;
nodes = (
(483,616,o),
(374,594,o),
(358,570,cs),
(338,541,o),
(88,128,o),
(88,128,cs),
(79,114,o),
(110,115,o),
(141,123,cs),
(165,129,o),
(190,139,o),
(196,149,cs),
(209,170,o),
(436,545,o),
(466,590,cs)
);
},
{
closed = 1;
nodes = (
(402,-4,o),
(508,140,o),
(472,127,cs),
(440,116,o),
(382,273,o),
(321,428,cs),
(261,582,o),
(198,734,o),
(156,713,cs),
(123,696,o),
(19,552,o),
(60,573,cs),
(91,589,o),
(152,426,o),
(215,267,cs),
(274,117,o),
(334,-28,o),
(372,-15,cs)
);
},
{
closed = 1;
nodes = (
(85,-47,o),
(198,91,o),
(200,122,cs),
(201,148,o),
(184,180,o),
(163,206,cs),
(145,229,o),
(123,246,o),
(106,250,cs),
(88,255,o),
(-24,113,o),
(-2,108,cs),
(10,104,o),
(32,84,o),
(52,59,cs),
(71,35,o),
(87,7,o),
(86,-12,cs)
);
},
{
closed = 1;
nodes = (
(454,448,o),
(565,591,o),
(543,596,cs),
(528,601,o),
(503,624,o),
(483,650,cs),
(467,673,o),
(454,698,o),
(455,716,cs),
(456,749,o),
(343,616,o),
(341,582,cs),
(340,560,o),
(353,533,o),
(370,510,cs),
(391,482,o),
(417,458,o),
(435,454,cs)
);
}
);
width = 541;
}
);
unicode = 88;
},
{
glyphname = Y;
lastChange = "2024-02-12 17:04:37 +0000";
layers = (
{
layerId = m01;
shapes = (
{
closed = 1;
nodes = (
(520,670,o),
(492,671,o),
(460,654,cs),
(433,639,o),
(404,610,o),
(394,579,cs),
(390,566,o),
(159,112,o),
(151,98,cs),
(132,60,o),
(148,48,o),
(174,56,cs),
(200,63,o),
(236,89,o),
(255,126,cs),
(257,130,o),
(495,592,o),
(508,631,cs)
);
},
{
closed = 1;
nodes = (
(531,572,o),
(585,740,o),
(554,711,cs),
(535,694,o),
(502,684,o),
(471,686,cs),
(446,687,o),
(422,695,o),
(409,713,cs),
(395,731,o),
(330,564,o),
(345,545,cs),
(362,524,o),
(391,514,o),
(423,515,cs),
(452,516,o),
(483,527,o),
(504,547,cs)
);
},
{
closed = 1;
nodes = (
(272,336,o),
(381,461,o),
(327,433,cs),
(298,418,o),
(270,502,o),
(240,581,cs),
(212,654,o),
(182,723,o),
(147,709,cs),
(111,695,o),
(-9,565,o),
(35,583,cs),
(65,594,o),
(90,508,o),
(120,428,cs),
(148,355,o),
(181,288,o),
(225,311,cs)
);
},
{
closed = 1;
nodes = (
(114,143,o),
(58,-27,o),
(89,2,cs),
(107,19,o),
(138,28,o),
(168,28,cs),
(194,27,o),
(220,19,o),
(234,0,cs),
(249,-19,o),
(311,150,o),
(298,168,cs),
(283,187,o),
(256,197,o),
(228,198,cs),
(196,198,o),
(162,187,o),
(139,166,cs)
);
}
);
width = 513;
}
);
unicode = 89;
},
{
glyphname = Z;
lastChange = "2024-02-12 17:04:37 +0000";
layers = (
{
layerId = m01;
shapes = (
{
closed = 1;
nodes = (
(22,122,o),
(-25,-40,o),
(30,6,cs),
(62,34,o),
(107,28,o),
(156,17,cs),
(224,2,o),
(299,-22,o),
(354,25,cs),
(377,44,o),
(423,218,o),
(396,195,cs),
(348,155,o),
(289,177,o),
(228,190,cs),
(175,201,o),
(120,205,o),
(66,160,cs)
);
},
{
closed = 1;
nodes = (
(97,657,o),
(42,487,o),
(76,524,cs),
(101,550,o),
(157,544,o),
(222,538,cs),
(281,532,o),
(345,525,o),
(399,540,cs),
(420,546,o),
(481,717,o),
(457,710,cs),
(396,692,o),
(325,705,o),
(262,712,cs),
(205,718,o),
(154,718,o),
(124,686,cs)
);
},
{
closed = 1;
nodes = (
(433,604,o),
(335,590,o),
(326,568,cs),
(268,426,o),
(81,211,o),
(46,100,cs),
(39,78,o),
(138,94,o),
(144,114,cs),
(177,219,o),
(364,434,o),
(424,582,cs)
);
},
{
closed = 1;
nodes = (
(135,444,o),
(76,273,o),
(104,292,cs),
(123,305,o),
(157,293,o),
(194,278,cs),
(237,260,o),
(283,240,o),
(312,252,cs),
(334,261,o),
(394,431,o),
(368,420,cs),
(347,412,o),
(314,425,o),
(279,439,cs),
(234,458,o),
(186,479,o),
(158,460,cs)
);
}
);
width = 467;
}
);
unicode = 90;
},
{
glyphname = a;
lastChange = "2024-02-12 17:04:37 +0000";
layers = (
{
background = {
shapes = (
{
closed = 1;
nodes = (
);
}
);
};
guides = (
{
pos = (289,715);
}
);
layerId = m01;
shapes = (
{
closed = 1;
nodes = (
(286,-3,o),
(319,24,o),
(350,56,cs),
(390,96,o),
(428,143,o),
(412.498,146.49,cs),
(387.585,152.115,o),
(398.143,241.06,o),
(411.399,427.812,cs),
(415.368,483.718,o),
(418.545,507.564,o),
(424.61,578.565,cs),
(429,630,o),
(410,710,o),
(351,713,cs),
(310,716,o),
(250,681,o),
(164.746,570.971,cs),
(98.828,485.743,o),
(145.077,480.882,o),
(213.254,569.029,cs),
(214,570,o),
(238,574,o),
(258,553,cs),
(273,537,o),
(285,505,o),
(279.39,445.435,cs),
(273.128,372.122,o),
(270.724,350.276,o),
(266.601,292.188,cs),
(252.171,88.917,o),
(238.415,7.885,o),
(275.502,-0.49,cs)
);
},
{
closed = 1;
nodes = (
(54.063,397.675,o),
(-6.603,228.223,o),
(13.998,228.275,cs),
(146.331,228.608,o),
(278.665,228.942,o),
(410.998,229.275,cs),
(430.491,229.324,o),
(492.496,398.779,o),
(471.002,398.725,cs),
(338.669,398.392,o),
(206.335,398.058,o),
(74.002,397.725,cs)
);
},
{
closed = 1;
nodes = (
(261.086,666.733,o),
(166.917,592.022,o),
(131.625,525.852,cs),
(116.951,498.337,o),
(99.821,453.624,o),
(92.945,407.147,cs),
(78.351,308.487,o),
(62.965,154.09,o),
(45.452,15.927,cs),
(42,-12,o),
(68,-4,o),
(94,17,cs),
(114,33,o),
(134,58,o),
(136.548,78.073,cs),
(155.035,223.91,o),
(171.68,384.917,o),
(187.055,488.853,cs),
(194.044,536.1,o),
(221.049,591.663,o),
(222.375,594.148,cs)
);
}
);
width = 505;
}
);
unicode = 97;
},
{
glyphname = ae;
lastChange = "2024-02-12 17:04:37 +0000";
layers = (
{
layerId = m01;
shapes = (
{
closed = 1;
nodes = (
(299,-6,o),
(440,140,o),
(412,146,cs),
(388,152,o),
(398,241,o),
(411,428,cs),
(415,484,o),
(419,508,o),
(425,579,cs),
(429,627,o),
(412,701,o),
(361,712,cs),
(320,721,o),
(256,690,o),
(165,571,cs),
(99,486,o),
(145,481,o),
(213,569,cs),
(214,570,o),
(238,574,o),
(257,554,cs),
(272,538,o),
(285,507,o),
(279,445,cs),
(273,372,o),
(271,350,o),
(267,292,cs),
(252,89,o),
(238,8,o),
(276,0,cs)
);
},
{
closed = 1;
nodes = (
(53,397,o),
(-7,227,o),
(14,227,cs),
(129,228,o),
(243,228,o),
(357,228,cs),
(377,228,o),
(439,398,o),
(417,398,cs),
(302,397,o),
(188,397,o),
(74,397,cs)
);
},
{
closed = 1;
nodes = (
(261,667,o),
(167,592,o),
(132,526,cs),
(117,498,o),
(100,454,o),
(93,407,cs),
(78,308,o),
(63,154,o),
(45,16,cs),
(42,-13,o),
(70,-3,o),
(95,18,cs),
(115,35,o),
(134,59,o),
(137,78,cs),
(155,224,o),
(172,385,o),
(187,489,cs),
(194,536,o),
(221,592,o),
(222,594,cs)
);
},
{
closed = 1;
nodes = (
(552,455,o),
(679,583,o),
(672,602,cs),
(634,705,o),
(559,730,o),
(508,706,cs),
(296,606,o),
(294,144,o),
(275,45,cs),
(264,-12,o),
(285,3,o),
(286,4,cs),
(329,19,o),
(362,23,o),
(412,14,cs),
(472,4,o),
(553,-27,o),
(618,26,cs),
(660,61,o),
(701,227,o),
(650,186,cs),
(627,167,o),
(528,174,o),
(472,184,cs),
(428,191,o),
(395,197,o),
(348,180,c),
(351,167,o),
(355,153,o),
(359,139,c),
(408,391,o),
(424,538,o),
(458,554,cs),
(484,566,o),
(508,572,o),
(544,476,cs)
);
},
{
closed = 1;
nodes = (
(297,430,o),
(237,260,o),
(258,260,cs),
(357,261,o),
(456,261,o),
(554,261,cs),
(574,261,o),
(636,431,o),
(614,431,cs),
(515,430,o),
(416,430,o),
(318,430,cs)
);
}
);
width = 724;
}
);
unicode = 230;
},
{
glyphname = b;
lastChange = "2024-02-12 17:04:37 +0000";
layers = (
{
guides = (
{
pos = (310,715);
}
);
layerId = m01;
shapes = (
{
closed = 1;
nodes = (
(230,643,o),
(107,571,o),
(83,518,cs),
(51,446,o),
(38,356,o),
(33,280,cs),
(27,193,o),
(32,124,o),
(32,119,cs),
(32,77,o),
(143,154,o),
(142,193,cs),
(142,194,o),
(148,459,o),
(203,582,cs)
);
},
{
closed = 1;
nodes = (
(46,207,o),
(59,101,o),
(79,184,cs),
(103,286,o),
(265,332,o),
(342,280,cs),
(378,256,o),
(395,208,o),
(367,133,cs),
(345,76,o),
(455,196,o),
(475,249,cs),
(507,331,o),
(484,391,o),
(436,426,cs),
(331,502,o),
(107,461,o),
(63,278,cs)
);
},
{
closed = 1;
nodes = (
(159,376,o),
(150,285,o),
(231,345,cs),
(516,555,o),
(459,708,o),
(336,716,cs),
(247,721,o),
(123,652,o),
(66,473,cs),
(32,364,o),
(110,342,o),
(146,455,cs),
(168,527,o),
(239,559,o),
(281,556,cs),
(326,553,o),
(340,510,o),
(233,431,cs)
);
},
{
closed = 1;
nodes = (
(502,334,o),
(477,354,o),
(443,257,cs),
(413,175,o),
(316,142,o),
(239,152,cs),
(163,161,o),
(105,211,o),
(150,295,cs),
(188,368,o),
(91,277,o),
(52,203,cs),
(-6,93,o),
(69,-3,o),
(175,-13,cs),
(273,-22,o),
(397,42,o),
(467,237,cs)
);
}
);
width = 520;
}
);
unicode = 98;
},
{
glyphname = c;
lastChange = "2024-02-12 17:04:37 +0000";
layers = (
{
guides = (
{
pos = (324,715);
}
);
layerId = m01;
shapes = (
{
closed = 1;
nodes = (
(286,642,o),
(218,636,o),
(151,545,cs),
(35,388,o),
(12,226,o),
(43,117,cs),
(67,32,o),
(125,-21,o),
(197,-16,cs),
(248,-12,o),
(306,21,o),
(366,91,cs),
(442,179,o),
(451,282,o),
(368,185,cs),
(290,94,o),
(197,164,o),
(167,281,cs),
(146,361,o),
(155,464,o),
(219,551,cs)
);
},
{
closed = 1;
nodes = (
(343,483,o),
(470,610,o),
(461,628,cs),
(448,653,o),
(419,715,o),
(361,715,cs),
(332,715,o),
(295,699,o),
(249,652,cs),
(179,582,o),
(141,482,o),
(217,560,cs),
(246,589,o),
(304,557,o),
(333,502,cs)
);
}
);
width = 471;
}
);
unicode = 99;
},
{
glyphname = d;
lastChange = "2024-02-12 17:04:37 +0000";
layers = (
{
guides = (
{
pos = (295,715);
}
);
layerId = m01;
shapes = (
{
closed = 1;
nodes = (
(124,725,o),
(47,562,o),
(65,553,cs),
(203,476,o),
(278,397,o),
(317,334,cs),
(357,268,o),
(360,220,o),
(356,213,cs),
(306,111,o),
(378,121,o),
(428,223,cs),
(481,332,o),
(470,424,o),
(410,507,cs),
(356,581,o),
(263,649,o),
(141,715,cs)
);
},
{
closed = 1;
nodes = (
(171,592,o),
(89,567,o),
(87,546,cs),
(73,394,o),
(60,242,o),
(47,90,cs),
(45,68,o),
(127,94,o),
(129,114,cs),
(143,266,o),
(156,418,o),
(169,570,cs)
);
},
{
closed = 1;
nodes = (
(48,233,o),
(-15,49,o),
(3,37,cs),
(43,8,o),
(90,-14,o),
(141,-15,cs),
(215,-17,o),
(298,24,o),
(385,152,cs),
(441,232,o),
(404,281,o),
(347,198,cs),
(327,169,o),
(285,149,o),
(229,154,cs),
(183,157,o),
(128,177,o),
(65,221,cs)
);
}
);
width = 512;
}
);
unicode = 100;
},
{
glyphname = e;
lastChange = "2024-02-12 17:04:37 +0000";
layers = (
{
guides = (
{
pos = (301,715);
}
);
layerId = m01;
shapes = (
{
closed = 1;
nodes = (
(306,455,o),
(433,583,o),
(426,602,cs),
(388,705,o),
(313,730,o),
(262,706,cs),
(147,652,o),
(93,490,o),
(65,337,cs),
(42,208,o),
(37,86,o),
(28,41,cs),
(17,-16,o),
(37,-1,o),
(39,0,cs),
(84,15,o),
(116,23,o),
(166,14,cs),
(226,4,o),
(307,-27,o),
(372,26,cs),
(414,61,o),
(455,227,o),
(404,186,cs),
(381,167,o),
(282,174,o),
(226,184,cs),
(182,191,o),
(146,193,o),
(101,176,c),
(104,163,o),
(108,149,o),
(112,135,c),
(129,220,o),
(142,294,o),
(153,355,cs),
(174,474,o),
(189,544,o),
(212,554,cs),
(238,566,o),
(262,572,o),
(298,476,cs)
);
},
{
closed = 1;
nodes = (
(58,438,o),
(-2,268,o),
(19,268,cs),
(127,269,o),
(235,269,o),
(342,269,cs),
(362,269,o),
(424,439,o),
(402,439,cs),
(294,438,o),
(186,438,o),
(79,438,cs)
);
}
);
width = 478;
}
);
unicode = 101;
},
{
glyphname = f;
lastChange = "2024-02-12 17:04:37 +0000";
layers = (
{
layerId = m01;
shapes = (
{
closed = 1;
nodes = (
(443,604,o),
(479,759,o),
(435,701,cs),
(414,674,o),
(351,659,o),
(309,659,cs),
(254,659,o),
(192,681,o),
(159,710,cs),
(129,738,o),
(80,578,o),
(80,574,cs),
(61,383,o),
(37,200,o),
(20,17,cs),
(17,-8,o),
(43,-3,o),
(67,15,cs),
(89,31,o),
(110,56,o),
(112,77,cs),
(132,282,o),
(145,487,o),
(164,684,c),
(138,638,o),
(111,593,o),
(85,548,c),
(124,511,o),
(192,489,o),
(249,489,cs),
(303,489,o),
(352,486,o),
(403,553,cs)
);
},
{
closed = 1;
nodes = (
(343,226,o),
(393,399,o),
(372,400,cs),
(274,400,o),
(175,401,o),
(77,402,cs),
(58,402,o),
(8,229,o),
(29,228,cs),
(127,228,o),
(226,227,o),
(324,226,cs)
);
}
);
width = 431;
}
);
unicode = 102;
},
{
glyphname = g;
lastChange = "2024-02-12 17:04:37 +0000";
layers = (
{
layerId = m01;
shapes = (
{
closed = 1;
nodes = (
(271,641,o),
(207,632,o),
(139,541,cs),
(15,377,o),
(-9,208,o),
(23,101,cs),
(43,31,o),
(86,-13,o),
(141,-15,cs),
(190,-16,o),
(248,17,o),
(306,95,cs),
(384,200,o),
(395,284,o),
(314,175,cs),
(262,105,o),
(181,167,o),
(151,273,cs),
(128,353,o),
(133,458,o),
(203,551,cs)
);
},
{
closed = 1;
nodes = (
(269,350,o),
(181,218,o),
(242,266,cs),
(256,278,o),
(291,286,o),
(313,270,cs),
(327,260,o),
(336,242,o),
(334,209,cs),
(332,168,o),
(324,126,o),
(319,85,cs),
(311,14,o),
(335,-5,o),
(343,-14,cs),
(356,-29,o),
(484,98,o),
(471,112,cs),
(465,119,o),
(453,128,o),
(461,193,cs),
(465,234,o),
(473,275,o),
(476,317,cs),
(478,354,o),
(460,385,o),
(433,402,cs),
(401,421,o),
(358,421,o),
(318,390,cs)
);
},
{
closed = 1;
nodes = (
(354,482,o),
(481,609,o),
(471,626,cs),
(458,649,o),
(430,695,o),
(385,709,cs),
(350,719,o),
(306,711,o),
(249,659,cs),
(185,601,o),
(126,482,o),
(199,549,cs),
(251,596,o),
(313,551,o),
(343,500,cs)
);
}
);
width = 526;
}
);
unicode = 103;
},
{
glyphname = h;
lastChange = "2024-02-12 17:04:37 +0000";
layers = (
{
layerId = m01;
shapes = (
{
closed = 1;
nodes = (
(74,437,o),
(13,267,o),
(34,267,cs),
(178,268,o),
(323,268,o),
(467,268,cs),
(486,268,o),
(548,438,o),
(527,438,cs),
(383,437,o),
(238,437,o),
(94,437,cs)
);
},
{
closed = 1;
nodes = (
(195,726,o),
(65,603,o),
(75,584,cs),
(92,552,o),
(93,548,o),
(88,500,cs),
(77,369,o),
(69,237,o),
(59,106,cs),
(54,39,o),
(68,20,o),
(97,0,cs),
(113,-11,o),
(240,116,o),
(223,128,cs),
(200,144,o),
(196,153,o),
(201,214,cs),
(211,345,o),
(218,477,o),
(230,608,cs),
(234,662,o),
(224,674,o),
(205,708,cs)
);
},
{
closed = 1;
nodes = (
(463,726,o),
(333,603,o),
(343,584,cs),
(360,553,o),
(360,548,o),
(356,500,cs),
(346,369,o),
(337,237,o),
(327,106,cs),
(322,39,o),
(336,20,o),
(365,0,cs),
(381,-11,o),
(508,116,o),
(491,128,cs),
(468,144,o),
(464,153,o),
(469,214,cs),
(479,345,o),
(488,477,o),
(498,608,cs),
(502,662,o),
(492,673,o),
(473,708,cs)
);
}
);
width = 571;
}
);
unicode = 104;
},
{
glyphname = i;
lastChange = "2024-02-12 17:04:37 +0000";
layers = (
{
layerId = m01;
shapes = (
{
closed = 1;
nodes = (
(187,726,o),
(57,603,o),
(67,584,cs),
(84,553,o),
(85,548,o),
(80,490,cs),
(70,362,o),
(61,234,o),
(51,106,cs),
(46,39,o),
(60,20,o),
(89,0,cs),
(105,-11,o),
(232,116,o),
(215,128,cs),
(192,144,o),
(188,153,o),
(193,214,cs),
(202,342,o),
(211,470,o),
(222,598,cs),
(227,662,o),
(216,673,o),
(197,708,cs)
);
}
);
width = 273;
}
);
unicode = 105;
},
{
glyphname = j;
lastChange = "2024-02-12 17:04:37 +0000";
layers = (
{
layerId = m01;
shapes = (
{
closed = 1;
nodes = (
(149,307,o),
(20,198,o),
(-2,153,cs),
(-32,92,o),
(-7,25,o),
(46,-3,cs),
(98,-31,o),
(178,-20,o),
(254,77,cs),
(303,141,o),
(308,230,o),
(254,161,cs),
(229,128,o),
(189,118,o),
(158,128,cs),
(117,141,o),
(89,187,o),
(124,257,cs)
);
},
{
closed = 1;
nodes = (
(435,741,o),
(299,652,o),
(274,597,cs),
(263,572,o),
(263,566,o),
(257,506,cs),
(247,379,o),
(239,253,o),
(229,126,cs),
(221,13,o),
(279,132,o),
(278,131,cs),
(226,99,o),
(123,-24,o),
(186,15,cs),
(271,67,o),
(368,203,o),
(371,234,cs),
(380,361,o),
(388,488,o),
(399,614,cs),
(404,676,o),
(405,674,o),
(410,685,cs)
);
},
{
closed = 1;
nodes = (
(354,618,o),
(419,727,o),
(366,685,cs),
(340,664,o),
(308,659,o),
(279,663,cs),
(235,668,o),
(196,692,o),
(187,713,cs),
(178,735,o),
(75,590,o),
(85,567,cs),
(92,549,o),
(126,530,o),
(174,530,cs),
(213,530,o),
(260,543,o),
(308,581,cs)
);
}
);
width = 443;
}
);
unicode = 106;
},
{
glyphname = k;
lastChange = "2024-02-12 17:40:51 +0000";
layers = (
{
guides = (
{
pos = (169,711);
}
);
layerId = m01;
shapes = (
{
closed = 1;
nodes = (
(157,721,o),
(26,591,o),
(42,578,cs),
(47,575,o),
(65,551,o),
(61,496,cs),
(51,370,o),
(41,244,o),
(32,118,cs),
(26,48,o),
(33,20,o),
(69,0,cs),
(89,-11,o),
(220,140,o),
(199,152,cs),
(185,160,o),
(172,170,o),
(176,230,cs),
(186,356,o),
(196,482,o),
(205,608,cs),
(211,677,o),
(183,701,o),
(172,710,cs)
);
},
{
closed = 1;
nodes = (
(544,710,o),
(514,716,o),
(475,706,cs),
(444,698,o),
(408,681,o),
(389,659,cs),
(368,636,o),
(105,291,o),
(102,288,cs),
(66,242,o),
(202,287,o),
(236,330,cs),
(248,345,o),
(495,655,o),
(517,681,cs)
);
},
{
closed = 1;
nodes = (
(87,291,o),
(58,164,o),
(111,222,cs),
(183,299,o),
(264,305,o),
(312,263,cs),
(356,224,o),
(372,144,o),
(329,40,cs),
(289,-55,o),
(440,33,o),
(475,116,cs),
(540,272,o),
(499,375,o),
(420,416,cs),
(339,457,o),
(220,435,o),
(131,338,cs)
);
}
);
width = 547;
}
);
unicode = 107;
},
{
glyphname = l;
lastChange = "2024-02-12 17:04:37 +0000";
layers = (
{
layerId = m01;
shapes = (
{
closed = 1;
nodes = (
(184,721,o),
(53,591,o),
(69,578,cs),
(74,575,o),
(91,550,o),
(85,496,cs),
(70,370,o),
(57,244,o),
(43,118,cs),
(35,54,o),
(42,0,o),
(79,0,cs),
(105,0,o),
(236,152,o),
(203,152,cs),
(180,152,o),
(180,164,o),
(187,230,cs),
(202,356,o),
(215,482,o),
(229,608,cs),
(237,678,o),
(210,701,o),
(199,710,cs)
);
},
{
closed = 1;
nodes = (
(158,125,o),
(82,-7,o),
(129,30,cs),
(159,54,o),
(193,59,o),
(224,53,cs),
(264,45,o),
(298,20,o),
(306,1,cs),
(315,-22,o),
(417,127,o),
(408,147,cs),
(400,168,o),
(355,198,o),
(298,196,cs),
(266,195,o),
(231,184,o),
(195,156,cs)
);
}
);
width = 461;
}
);
unicode = 108;
},
{
glyphname = m;
lastChange = "2024-02-12 17:04:37 +0000";
layers = (
{
layerId = m01;
shapes = (
{
closed = 1;
nodes = (
(233,720,o),
(102,591,o),
(118,579,cs),
(148,557,o),
(177,439,o),
(199,308,cs),
(217,200,o),
(230,83,o),
(233,3,cs),
(234,-26,o),
(366,103,o),
(365,129,cs),
(361,223,o),
(345,366,o),
(323,487,cs),
(302,597,o),
(276,689,o),
(248,709,cs)
);
},
{
closed = 1;
nodes = (
(-18,-34,o),
(80,30,o),
(93,78,cs),
(113,155,o),
(130,231,o),
(143,302,cs),
(177,487,o),
(189,633,o),
(189,634,cs),
(192,668,o),
(100,588,o),
(97,556,cs),
(96,550,o),
(87,457,o),
(63,325,cs),
(48,236,o),
(26,130,o),
(-3,22,cs)
);
},
{
closed = 1;
nodes = (
(208,54,o),
(325,126,o),
(349,173,cs),
(464,397,o),
(520,636,o),
(521,639,cs),
(534,686,o),
(423,597,o),
(411,551,cs),
(408,542,o),
(348,327,o),
(235,107,cs)
);
},
{
closed = 1;
nodes = (
(542,707,o),
(410,575,o),
(438,575,cs),
(471,575,o),
(429,113,o),
(479,1,cs),
(489,-19,o),
(619,111,o),
(611,129,cs),
(559,243,o),
(609,707,o),
(564,707,cs)
);
}
);
width = 655;
}
);
unicode = 109;
},
{
glyphname = n;
lastChange = "2024-02-12 17:04:37 +0000";
layers = (
{
layerId = m01;
shapes = (
{
closed = 1;
nodes = (
(170,725,o),
(49,606,o),
(59,588,cs),
(107,502,o),
(162,371,o),
(220,253,cs),
(272,144,o),
(326,45,o),
(377,0,cs),
(391,-13,o),
(512,107,o),
(497,120,cs),
(464,149,o),
(473,149,o),
(509,598,cs),
(514,661,o),
(503,673,o),
(485,707,cs),
(475,726,o),
(351,609,o),
(361,591,cs),
(379,559,o),
(380,555,o),
(375,496,cs),
(339,39,o),
(336,37,o),
(377,0,cs),
(391,-13,o),
(512,107,o),
(497,120,cs),
(439,172,o),
(375,298,o),
(315,427,cs),
(267,529,o),
(221,634,o),
(181,706,cs)
);
},
{
closed = 1;
nodes = (
(20,-30,o),
(111,27,o),
(121,72,cs),
(132,126,o),
(172,594,o),
(172,595,cs),
(176,642,o),
(86,580,o),
(82,537,cs),
(80,521,o),
(43,75,o),
(31,22,cs)
);
}
);
width = 540;
}
);
unicode = 110;
},
{
glyphname = o;
lastChange = "2024-02-12 17:04:37 +0000";
layers = (
{
layerId = m01;
shapes = (
{
closed = 1;
nodes = (
(265.325,659.434,o),
(172.892,617.163,o),
(118.74,529.794,cs),
(9,353,o),
(-8,194,o),
(25,94,cs),
(61,-16,o),
(158,-56,o),
(260.379,26.807,cs),
(321.035,75.811,o),
(404.087,248.123,o),
(333.621,191.193,cs),
(251,125,o),
(179,161,o),
(150,247,cs),
(124,327,o),
(135,450,o),
(211.26,572.206,cs)
);
},
{
closed = 1;
nodes = (
(210.034,54.669,o),
(282.573,60,o),
(354.199,159.567,cs),
(468,317,o),
(489,462,o),
(465,564,cs),
(435,689,o),
(336,751,o),
(254.263,693.894,cs),
(192.123,650.666,o),
(79.811,485.288,o),
(155.737,538.106,cs),
(224,586,o),
(288,516,o),
(315,417,cs),
(338,332,o),
(333,226,o),
(281.801,154.433,cs)
);
}
);
width = 494;
}
);
unicode = 111;
},
{
glyphname = oe;
lastChange = "2024-02-12 17:04:37 +0000";
layers = (
{
layerId = m01;
shapes = (
{
closed = 1;
nodes = (
(213,591,o),
(218,603,o),
(218,611,cs),
(218,639,o),
(152,600,o),
(109,530,cs),
(31,404,o),
(0,289,o),
(0,196,cs),
(0,67,o),
(61,-17,o),
(143,-17,cs),
(176,-17,o),
(213,-3,o),
(250,27,cs),
(295,63,o),
(351,164,o),
(351,195,cs),
(351,200,o),
(349,203,o),
(345,203,cs),
(340,203,o),
(333,199,o),
(324,191,cs),
(294,167,o),
(266,157,o),
(241,157,cs),
(175,157,o),
(128,230,o),
(128,334,cs),
(128,404,o),
(149,488,o),
(201,572,cs)
);
},
{
closed = 1;
nodes = (
(251,125,o),
(242,105,o),
(242,94,cs),
(242,86,o),
(246,82,o),
(253,82,cs),
(270,82,o),
(307,108,o),
(344,160,cs),
(431,280,o),
(463,392,o),
(463,484,cs),
(463,623,o),
(388,715,o),
(309,715,cs),
(287,715,o),
(265,708,o),
(244,694,cs),
(191,657,o),
(99,528,o),
(125,528,cs),
(129,528,o),
(135,531,o),
(146,538,cs),
(161,549,o),
(176,553,o),
(190,553,cs),
(261,553,o),
(318,435,o),
(318,317,cs),
(318,258,o),
(304,199,o),
(272,154,cs)
);
},
{
closed = 1;
nodes = (
(608,455,o),
(736,583,o),
(729,602,cs),
(699,681,o),
(648,714,o),
(603,714,cs),
(589,714,o),
(576,711,o),
(565,706,cs),
(352,606,o),
(350,140,o),
(331,41,cs),
(328,29,o),
(327,20,o),
(327,14,cs),
(327,-10,o),
(340,-1,o),
(342,0,cs),
(374,11,o),
(399,18,o),
(429,18,cs),
(441,18,o),
(454,17,o),
(468,14,cs),
(503,8,o),
(543,-4,o),
(584,-4,cs),
(615,-4,o),
(646,3,o),
(675,26,cs),
(703,49,o),
(730,131,o),
(730,170,cs),
(730,183,o),
(727,192,o),
(720,192,cs),
(717,192,o),
(712,190,o),
(707,186,cs),
(696,177,o),
(670,174,o),
(640,174,cs),
(603,174,o),
(559,178,o),
(529,184,cs),
(510,187,o),
(492,189,o),
(474,189,cs),
(452,189,o),
(429,186,o),
(403,176,c),
(407,163,o),
(411,149,o),
(415,135,c),
(464,387,o),
(481,538,o),
(515,554,cs),
(523,558,o),
(530,561,o),
(538,561,cs),
(556,561,o),
(575,544,o),
(600,476,cs)
);
},
{
closed = 1;
nodes = (
(364,438,o),
(317,314,o),
(317,278,cs),
(317,272,o),
(319,268,o),
(322,268,cs),
(430,269,o),
(537,269,o),
(645,269,cs),
(662,269,o),
(709,392,o),
(709,429,cs),
(709,435,o),
(708,439,o),
(704,439,cs),
(597,438,o),
(489,438,o),
(381,438,cs)
);
}
);
width = 761;
}
);
unicode = 339;
},
{
glyphname = p;
lastChange = "2024-02-12 17:04:37 +0000";
layers = (
{
guides = (
{
pos = (732,374);
},
{
pos = (644,569);
}
);
layerId = m01;
shapes = (
{
closed = 1;
nodes = (
(302,720,o),
(197,676,o),
(146,617,cs),
(19,469,o),
(41,20,o),
(41,11,cs),
(41,-33,o),
(167,59,o),
(167,99,cs),
(167,118,o),
(169,565,o),
(248,657,cs)
);
},
{
closed = 1;
nodes = (
(161,303,o),
(187,247,o),
(274,306,cs),
(395,387,o),
(454,505,o),
(449,585,cs),
(446,641,o),
(413,729,o),
(305,715,cs),
(255,708,o),
(97,599,o),
(161,607,cs),
(253,619,o),
(293,543,o),
(295,509,cs),
(299,439,o),
(248,361,o),
(246,360,cs)
);
},
{
closed = 1;
nodes = (
(331,344,o),
(399,449,o),
(327,402,cs),
(289,377,o),
(159,384,o),
(147,433,cs),
(138,469,o),
(70,329,o),
(79,295,cs),
(93,240,o),
(161,233,o),
(267,302,cs)
);
}
);
width = 439;
}
);
unicode = 112;
},
{
glyphname = q;
lastChange = "2024-02-12 17:04:37 +0000";
layers = (
{
background = {
shapes = (
{
closed = 1;
nodes = (
);
},
{
closed = 1;
nodes = (
);
}
);
};
guides = (
{
pos = (298,713);
}
);
layerId = m01;
shapes = (
{
closed = 1;
nodes = (
(252,324,o),
(248,326,o),
(244,326,cs),
(226,326,o),
(196,292,o),
(196,269,cs),
(196,266,o),
(197,263,o),
(198,260,cs),
(211,234,o),
(352,-9,o),
(352,-9,cs),
(355,-13,o),
(358,-15,o),
(362,-15,cs),
(380,-15,o),
(410,20,o),
(410,42,cs),
(410,45,o),
(409,49,o),
(408,51,cs),
(400,65,o),
(273,281,o),
(254,320,cs)
);
},
{
closed = 1;
nodes = (
(224,591,o),
(229,603,o),
(229,611,cs),
(229,639,o),
(163,600,o),
(120,530,cs),
(41,403,o),
(10,288,o),
(10,196,cs),
(10,66,o),
(72,-17,o),
(153,-17,cs),
(185,-17,o),
(220,-4,o),
(254,24,cs),
(300,61,o),
(380,202,o),
(357,202,cs),
(354,202,o),
(349,200,o),
(342,194,cs),
(310,168,o),
(280,157,o),
(253,157,cs),
(185,157,o),
(139,231,o),
(139,334,cs),
(139,405,o),
(161,489,o),
(212,572,cs)
);
},
{
closed = 1;
nodes = (
(263,111,o),
(255,95,o),
(255,88,cs),
(255,68,o),
(308,108,o),
(356,176,cs),
(438,290,o),
(469,397,o),
(469,485,cs),
(469,622,o),
(394,713,o),
(316,713,cs),
(296,713,o),
(276,708,o),
(257,695,cs),
(204,660,o),
(109,528,o),
(136,528,cs),
(139,528,o),
(146,531,o),
(155,537,cs),
(169,546,o),
(183,550,o),
(196,550,cs),
(269,550,o),
(332,431,o),
(332,307,cs),
(332,248,o),
(317,187,o),
(282,138,cs)
);
}
);
width = 489;
}
);
unicode = 113;
},
{
glyphname = r;
lastChange = "2024-02-12 17:27:36 +0000";
layers = (
{
guides = (
{
pos = (303,713);
}
);
layerId = m01;
shapes = (
{
closed = 1;
nodes = (
(176,505,o),
(177,509,o),
(177,512,cs),
(177,518,o),
(173,521,o),
(167,521,cs),
(140,521,o),
(69,471,o),
(53,432,cs),
(31,380,o),
(20,15,o),
(20,12,cs),
(20,4,o),
(24,0,o),
(31,0,cs),
(61,0,o),
(145,67,o),
(146,100,cs),
(147,114,o),
(160,465,o),
(174,500,cs)
);
},
{
closed = 1;
nodes = (
(185,376,o),
(167,341,o),
(167,321,cs),
(167,310,o),
(172,303,o),
(182,303,cs),
(192,303,o),
(207,309,o),
(227,325,cs),
(375,440,o),
(429,538,o),
(429,606,cs),
(429,669,o),
(382,706,o),
(320,706,cs),
(231,706,o),
(111,630,o),
(56,445,cs),
(51,427,o),
(49,412,o),
(49,399,cs),
(49,371,o),
(61,355,o),
(76,355,cs),
(96,355,o),
(122,380,o),
(138,433,cs),
(160,507,o),
(227,543,o),
(270,543,cs),
(293,543,o),
(309,533,o),
(309,514,cs),
(309,491,o),
(286,454,o),
(223,405,cs)
);
},
{
closed = 1;
nodes = (
(54,305,o),
(32,245,o),
(32,217,cs),
(32,208,o),
(35,202,o),
(40,202,cs),
(45,202,o),
(52,206,o),
(61,216,cs),
(103,261,o),
(150,281,o),
(192,281,cs),
(255,281,o),
(305,234,o),
(305,152,cs),
(305,120,o),
(297,83,o),
(279,41,cs),
(275,29,o),
(272,21,o),
(272,14,cs),
(272,4,o),
(278,-1,o),
(288,-1,cs),
(321,-1,o),
(400,58,o),
(425,115,cs),
(448,170,o),
(458,217,o),
(458,257,cs),
(458,370,o),
(379,428,o),
(285,428,cs),
(217,428,o),
(140,397,o),
(81,334,cs)
);
}
);
width = 498;
}
);
unicode = 114;
},
{
glyphname = s;
lastChange = "2024-02-12 17:04:37 +0000";
layers = (
{
guides = (
{
pos = (270,713);
}
);
layerId = m01;
shapes = (
{
closed = 1;
nodes = (
(50,268,o),
(-5,134,o),
(-5,90,cs),
(-5,86,o),
(-5,83,o),
(-4,80,cs),
(13,47,o),
(73,-15,o),
(148,-15,cs),
(196,-15,o),
(251,10,o),
(304,86,cs),
(372,183,o),
(398,245,o),
(398,289,cs),
(398,355,o),
(337,379,o),
(274,420,cs),
(164,492,o),
(145,528,o),
(145,545,cs),
(145,553,o),
(149,556,o),
(150,558,cs),
(154,563,o),
(164,566,o),
(179,566,cs),
(225,566,o),
(315,534,o),
(354,447,cs),
(365,422,o),
(428,592,o),
(418,613,cs),
(405,643,o),
(343,713,o),
(266,713,cs),
(223,713,o),
(176,691,o),
(130,626,cs),
(64,534,o),
(39,472,o),
(39,426,cs),
(39,362,o),
(89,330,o),
(150,290,cs),
(265,215,o),
(291,188,o),
(291,170,cs),
(291,164,o),
(287,158,o),
(282,152,cs),
(277,144,o),
(262,140,o),
(243,140,cs),
(189,140,o),
(98,173,o),
(62,246,cs)
);
}
);
width = 445;
}
);
unicode = 115;
},
{
glyphname = germandbls;
lastChange = "2024-02-12 16:32:56 +0000";
layers = (
{
layerId = m01;
shapes = (
{
closed = 1;
nodes = (
(263,399,o),
(240,349,o),
(240,325,cs),
(240,316,o),
(243,311,o),
(249,311,cs),
(253,311,o),
(258,313,o),
(264.638,317.268,cs),
(286,332,o),
(327,344,o),
(367,344,cs),
(422,344,o),
(475,322,o),
(475,261,cs),
(475,234,o),
(465,198,o),
(438.329,152.487,cs),
(425,129,o),
(423,119,o),
(428,119,cs),
(442,119,o),
(496,175,o),
(527.671,229.513,cs),
(564,292,o),
(578,340,o),
(578,375,cs),
(578,443,o),
(525,467,o),
(462,467,cs),
(400,467,o),
(330,445,o),
(289.362,416.732,cs)
);
},
{
closed = 1;
nodes = (
(267,405,o),
(244,365,o),
(244,343,cs),
(244,332,o),
(248.997,326,o),
(259,326,cs),
(268,326,o),
(281,331,o),
(299.005,343.106,cs),
(455,453,o),
(513,548,o),
(513,615,cs),
(513,682,o),
(455,721,o),
(381,721,cs),
(281,721,o),
(150,650,o),
(86.879,478.879,cs),
(38,347,o),
(32,130,o),
(32,45,cs),
(32,18,o),
(33,5,o),
(33,11,cs),
(33,3,o),
(38,0,o),
(45,0,cs),
(73,0,o),
(142,54,o),
(143.236,85.264,cs),
(143.914,100.517,o),
(173.093,405.963,o),
(189.121,449.121,cs),
(218,526,o),
(291,560,o),
(340,560,cs),
(368,560,o),
(388,550,o),
(388,529,cs),
(388,507,o),
(366,474,o),
(306.995,432.894,cs)
);
},
{
closed = 1;
nodes = (
(550,292,o),
(552,298,o),
(552,302,cs),
(552,305,o),
(550,307,o),
(548,307,cs),
(535,307,o),
(487,243,o),
(468.777,191.209,cs),
(467,187,o),
(417,150,o),
(372,150,cs),
(345,150,o),
(320,163,o),
(309.437,204.267,cs),
(303,229,o),
(196,96,o),
(196,68,cs),
(196,57,o),
(243,0,o),
(311,0,cs),
(379,0,o),
(469,59,o),
(547.223,282.791,cs)
);
}
);
width = 526;
}
);
unicode = 223;
},
{
glyphname = t;
lastChange = "2024-02-12 17:04:37 +0000";
layers = (
{
layerId = m01;
shapes = (
{
closed = 1;
nodes = (
(430,541,o),
(498,708,o),
(456,701,cs),
(410,693,o),
(337,696,o),
(268,698,cs),
(190,700,o),
(115,701,o),
(81,684,cs),
(59,672,o),
(13,500,o),
(37,512,cs),
(65,526,o),
(137,527,o),
(213,527,cs),
(279,527,o),
(349,527,o),
(396,535,cs)
);
},
{
closed = 1;
nodes = (
(285,570,o),
(151,443,o),
(160,423,cs),
(173,393,o),
(112,82,o),
(145,2,cs),
(154,-18,o),
(285,113,o),
(277,132,cs),
(246,206,o),
(309,513,o),
(294,549,cs)
);
}
);
width = 439;
}
);
unicode = 116;
},
{
glyphname = u;
lastChange = "2024-02-12 17:04:37 +0000";
layers = (
{
guides = (
{
pos = (274,713);
}
);
layerId = m01;
shapes = (
{
closed = 1;
nodes = (
(162,721,o),
(26,584,o),
(48,573,cs),
(77,560,o),
(68,400,o),
(46,131,cs),
(41,82,o),
(55,32,o),
(84,5,cs),
(116,-25,o),
(167,-28,o),
(235,28,cs),
(255,44,o),
(277,66,o),
(300,93,cs),
(356,161,o),
(379,244,o),
(318,171,cs),
(270,114,o),
(228,109,o),
(203,141,cs),
(186,164,o),
(178,203,o),
(182,255,cs),
(206,531,o),
(219,694,o),
(180,713,cs)
);
},
{
closed = 1;
nodes = (
(244,75,o),
(297,85,o),
(349,157,cs),
(379,199,o),
(406,260,o),
(413,301,cs),
(436,436,o),
(440,564,o),
(445,698,cs),
(446,745,o),
(355,673,o),
(353,630,cs),
(348,490,o),
(343,360,o),
(319,221,cs),
(308,154,o),
(298,150,o),
(297,149,cs)
);
}
);
width = 465;
}
);
unicode = 117;
},
{
glyphname = v;
lastChange = "2024-02-12 17:04:37 +0000";
layers = (
{
guides = (
{
pos = (278,713);
}
);
layerId = m01;
shapes = (
{
closed = 1;
nodes = (
(517,752,o),
(403,675,o),
(385,618,cs),
(327,435,o),
(221,86,o),
(208,30,cs),
(199,-7,o),
(329,116,o),
(336,148,cs),
(345,186,o),
(445,525,o),
(497,690,cs)
);
},
{
closed = 1;
nodes = (
(190,-27,o),
(323,106,o),
(308,119,cs),
(290,133,o),
(271,144,o),
(257,229,cs),
(245,304,o),
(241,428,o),
(216,599,cs),
(206,666,o),
(191,708,o),
(162,713,cs),
(143,717,o),
(14,589,o),
(38,585,cs),
(49,582,o),
(71,546,o),
(80,481,cs),
(105,316,o),
(101,194,o),
(113,123,cs),
(128,28,o),
(150,5,o),
(174,-15,cs)
);
}
);
width = 475;
}
);
unicode = 118;
},
{
glyphname = w;
lastChange = "2024-02-12 17:04:37 +0000";
layers = (
{
guides = (
{
pos = (283,713);
}
);
layerId = m01;
shapes = (
{
closed = 1;
nodes = (
(361,-17,o),
(481,103,o),
(472,120,cs),
(409,233,o),
(443,660,o),
(389,712,cs),
(376,725,o),
(254,606,o),
(269,592,cs),
(317,546,o),
(285,119,o),
(350,2,cs)
);
},
{
closed = 1;
nodes = (
(713,750,o),
(595,679,o),
(573,626,cs),
(548,564,o),
(525,503,o),
(506,446,cs),
(427,218,o),
(395,45,o),
(394,40,cs),
(387,8,o),
(497,124,o),
(504,158,cs),
(506,165,o),
(537,283,o),
(601,463,cs),
(625,531,o),
(655,607,o),
(689,690,cs)
);
},
{
closed = 1;
nodes = (
(124,-17,o),
(244,103,o),
(235,120,cs),
(203,178,o),
(195,315,o),
(189,444,cs),
(183,569,o),
(177,686,o),
(151,712,cs),
(138,725,o),
(16,606,o),
(31,592,cs),
(55,568,o),
(59,443,o),
(66,311,cs),
(73,188,o),
(82,58,o),
(113,2,cs)
);
},
{
closed = 1;
nodes = (
(412,628,o),
(389,627,o),
(364,619,cs),
(341,612,o),
(317,600,o),
(313,589,cs),
(296,544,o),
(277,487,o),
(259,426,cs),
(207,252,o),
(158,49,o),
(156,39,cs),
(146,4,o),
(254,119,o),
(262,151,cs),
(264,158,o),
(299,286,o),
(341,419,cs),
(363,489,o),
(386,560,o),
(407,615,cs)
);
}
);
width = 662;
}
);
unicode = 119;
},
{
glyphname = x;
lastChange = "2024-02-12 17:04:37 +0000";
layers = (
{
guides = (
{
pos = (246,713);
}
);
layerId = m01;
shapes = (
{
closed = 1;
nodes = (
(562,714,o),
(534,720,o),
(497,707,cs),
(469,697,o),
(435,676,o),
(417,649,cs),
(406,633,o),
(330,522,o),
(246,398,cs),
(131,229,o),
(0,36,o),
(0,36,cs),
(-29,-6,o),
(11,-8,o),
(55,13,cs),
(80,24,o),
(106,42,o),
(120,64,cs),
(120,64,o),
(211,198,o),
(308,340,cs),
(413,494,o),
(524,657,o),
(537,677,cs)
);
},
{
closed = 1;
nodes = (
(405,4,o),
(513,148,o),
(484,142,cs),
(452,137,o),
(392,277,o),
(330,420,cs),
(266,570,o),
(198,723,o),
(159,712,cs),
(133,705,o),
(24,561,o),
(55,570,cs),
(88,579,o),
(152,427,o),
(217,278,cs),
(279,134,o),
(342,-7,o),
(378,0,cs)
);
}
);
width = 527;
}
);
unicode = 120;
},
{
glyphname = y;
lastChange = "2024-02-12 18:36:29 +0000";
layers = (
{
guides = (
{
pos = (271,713);
}
);
layerId = m01;
shapes = (
{
closed = 1;
nodes = (
(563,716,o),
(533,722,o),
(496,702,cs),
(470,687,o),
(440,661,o),
(422,628,cs),
(404,594,o),
(138,44,o),
(137,42,cs),
(116,-2,o),
(139,-8,o),
(171,8,cs),
(200,22,o),
(237,53,o),
(255,90,cs),
(267,114,o),
(515,627,o),
(536,666,cs)
);
},
{
closed = 1;
nodes = (
(277,330,o),
(391,458,o),
(341,434,cs),
(304,416,o),
(271,517,o),
(234,602,cs),
(207,667,o),
(177,723,o),
(143,711,cs),
(109,699,o),
(-13,569,o),
(29,583,cs),
(63,595,o),
(92,506,o),
(125,426,cs),
(155,353,o),
(189,288,o),
(235,310,cs)
);
}
);
width = 501;
}
);
unicode = 121;
},
{
glyphname = z;
lastChange = "2024-02-12 17:04:37 +0000";
layers = (
{
guides = (
{
pos = (199,713);
}
);
layerId = m01;
shapes = (
{
closed = 1;
nodes = (
(-5,123,o),
(-48,-45,o),
(3,-1,cs),
(43,33,o),
(99,47,o),
(155,44,cs),
(214,42,o),
(273,22,o),
(313,-8,cs),
(329,-21,o),
(391,148,o),
(375,160,cs),
(342,187,o),
(286,209,o),
(225,214,cs),
(161,219,o),
(91,205,o),
(35,157,cs)
);
},
{
closed = 1;
nodes = (
(107,736,o),
(42,569,o),
(57,550,cs),
(80,521,o),
(135,502,o),
(196,499,cs),
(261,496,o),
(333,511,o),
(379,552,cs),
(405,575,o),
(460,744,o),
(429,716,cs),
(391,683,o),
(323,669,o),
(260,671,cs),
(200,672,o),
(143,689,o),
(121,718,cs)
);
},
{
closed = 1;
nodes = (
(429,653,o),
(318,622,o),
(295,569,cs),
(268,504,o),
(206,418,o),
(145,332,cs),
(80,241,o),
(16,149,o),
(-7,82,cs),
(-25,26,o),
(88,66,o),
(105,116,cs),
(120,163,o),
(180,245,o),
(245,336,cs),
(305,422,o),
(370,516,o),
(405,597,cs)
);
}
);
width = 438;
}
);
unicode = 122;
},
{
glyphname = zero;
lastChange = "2024-02-12 17:24:20 +0000";
layers = (
{
layerId = m01;
shapes = (
{
closed = 1;
nodes = (
(494.987,493.675,o),
(396.218,412.031,o),
(372.51,310.99,cs),
(356,240,o),
(276,183,o),
(209,183,cs),
(141,183,o),
(87,239,o),
(119.41,396.185,cs),
(141.054,500.018,o),
(42.095,416.978,o),
(20.59,313.815,cs),
(-17,133,o),
(45,13,o),
(137,-11,cs),
(245,-38,o),
(396,72,o),
(469.49,385.01,cs)
);
},
{
closed = 1;
nodes = (
(-9.971,226.375,o),
(78.075,268.352,o),
(114.003,380.924,cs),
(145,478,o),
(232,529,o),
(298,514,cs),
(356,502,o),
(398,440,o),
(374.052,316.094,cs),
(353.815,210.725,o),
(455.857,309.709,o),
(473.948,403.906,cs),
(506,570,o),
(441,696,o),
(346,712,cs),
(249,729,o),
(119,630,o),
(25.997,339.076,cs)
);
}
);
width = 502;
}
);
unicode = 48;
},
{
glyphname = one;
lastChange = "2024-02-12 17:10:12 +0000";
layers = (
{
layerId = m01;
shapes = (
{
closed = 1;
nodes = (
(269,727,o),
(139,604,o),
(149,585,cs),
(166,554,o),
(167,549,o),
(162,491,cs),
(152,363,o),
(143,235,o),
(133,107,cs),
(128,40,o),
(142,21,o),
(171,1,cs),
(187,-10,o),
(314,117,o),
(297,129,cs),
(274,145,o),
(270,154,o),
(275,215,cs),
(284,343,o),
(293,471,o),
(304,599,cs),
(309,663,o),
(298,674,o),
(279,709,cs)
);
},
{
closed = 1;
nodes = (
(240,710,o),
(145,603,o),
(138,565,cs),
(124,493,o),
(82,414,o),
(32,374,cs),
(-12,338,o),
(74,344,o),
(114,376,cs),
(220,462,o),
(214,575,o),
(232,669,cs)
);
}
);
width = 375;
}
);
unicode = 49;
},
{
glyphname = two;
lastChange = "2024-02-12 17:10:27 +0000";
layers = (
{
layerId = m01;
shapes = (
{
closed = 1;
nodes = (
(26,150,o),
(21,133,o),
(21,121,cs),
(21,107,o),
(28,98,o),
(40,98,cs),
(54,98,o),
(74,111,o),
(92,141,cs),
(175,276,o),
(216,297,o),
(346,436,cs),
(400,493,o),
(422,548,o),
(422,594,cs),
(422,668,o),
(366,719,o),
(297,719,cs),
(225,719,o),
(139,666,o),
(82,531,cs),
(68,499,o),
(62,471,o),
(62,450,cs),
(62,428,o),
(68,415,o),
(78,415,cs),
(89,415,o),
(104,431,o),
(120,469,cs),
(143,521,o),
(183,543,o),
(217,543,cs),
(249,543,o),
(276,523,o),
(276,491,cs),
(276,471,o),
(265,446,o),
(240,418,cs),
(192,367,o),
(123,306,o),
(38,169,cs)
);
},
{
closed = 1;
nodes = (
(23,159,o),
(-20,47,o),
(-20,10,cs),
(-20,1,o),
(-17,-3,o),
(-11,0,cs),
(30,19,o),
(82,45,o),
(156,45,cs),
(206,45,o),
(265,33,o),
(337,-1,cs),
(363,-13,o),
(416,99,o),
(416,146,cs),
(416,155,o),
(414,162,o),
(409,165,cs),
(332,201,o),
(269,213,o),
(216,213,cs),
(139,213,o),
(84,187,o),
(43,168,cs)
);
}
);
width = 457;
}
);
unicode = 50;
},
{
glyphname = three;
lastChange = "2024-02-12 17:10:47 +0000";
layers = (
{
layerId = m01;
shapes = (
{
closed = 1;
nodes = (
(395,560,o),
(434,664,o),
(434,701,cs),
(434,712,o),
(430,717,o),
(422,711,cs),
(391,691,o),
(312,686,o),
(266,686,cs),
(211,686,o),
(163,697,o),
(130,713,cs),
(105,724,o),
(51,614,o),
(51,567,cs),
(51,557,o),
(53,550,o),
(58,547,cs),
(97,529,o),
(149,516,o),
(206,516,cs),
(256,516,o),
(331,517,o),
(372,545,cs)
);
},
{
closed = 1;
nodes = (
(65,294,o),
(60,282,o),
(60,273,cs),
(60,264,o),
(65,260,o),
(74,260,cs),
(90,260,o),
(114,273,o),
(135,301,cs),
(151,320,o),
(190,334,o),
(229,334,cs),
(283,334,o),
(338,308,o),
(338,235,cs),
(338,210,o),
(332,179,o),
(317,142,cs),
(315,137,o),
(314,132,o),
(314,130,cs),
(314,127,o),
(315,126,o),
(316,126,cs),
(332,126,o),
(408,214,o),
(425,256,cs),
(436,283,o),
(441,310,o),
(441,334,cs),
(441,410,o),
(390,464,o),
(316,464,cs),
(249,464,o),
(162,420,o),
(77,309,cs)
);
},
{
closed = 1;
nodes = (
(420,238,o),
(433,291,o),
(433,313,cs),
(433,320,o),
(432,324,o),
(429,324,cs),
(425,324,o),
(418,316,o),
(408,296,cs),
(361,204,o),
(286,125,o),
(228,125,cs),
(191,125,o),
(161,155,o),
(148,231,cs),
(144,257,o),
(16,131,o),
(20,107,cs),
(34,24,o),
(82,-15,o),
(141,-15,cs),
(224,-15,o),
(329,60,o),
(400,198,cs)
);
},
{
closed = 1;
nodes = (
(384,554,o),
(392,568,o),
(392,577,cs),
(392,588,o),
(383,593,o),
(369,593,cs),
(348,593,o),
(314,579,o),
(281,550,cs),
(249,520,o),
(115,352,o),
(114,351,cs),
(104,338,o),
(99,328,o),
(99,321,cs),
(99,312,o),
(107,308,o),
(119,308,cs),
(146,308,o),
(195,330,o),
(224,365,cs),
(230,372,o),
(364,536,o),
(365,536,cs)
);
}
);
width = 491;
}
);
unicode = 51;
},
{
glyphname = four;
lastChange = "2024-02-12 17:04:37 +0000";
layers = (
{
layerId = m01;
shapes = (
{
closed = 1;
nodes = (
(48.022,381.589,o),
(-9.466,212.353,o),
(0.516,212.378,cs),
(134.874,212.711,o),
(269.207,213.044,o),
(403.516,213.378,cs),
(416.439,213.41,o),
(475.544,382.65,o),
(464.484,382.622,cs),
(330.126,382.289,o),
(195.793,381.956,o),
(61.484,381.622,cs)
);
},
{
closed = 1;
nodes = (
(51.062,373.026,o),
(47.144,281.315,o),
(57.244,292.366,cs),
(138.577,381.366,o),
(219.91,470.366,o),
(301.244,559.366,cs),
(310.539,569.537,o),
(315.653,662.558,o),
(304.756,650.634,cs),
(223.423,561.634,o),
(142.09,472.634,o),
(60.756,383.634,cs)
);
},
{
closed = 1;
nodes = (
(371.056,726.462,o),
(240.699,602.655,o),
(250.803,584.131,cs),
(267.737,553.085,o),
(268.99,547.65,o),
(264.441,489.882,cs),
(254.365,361.914,o),
(245.274,233.869,o),
(235.441,105.882,cs),
(230.307,39.055,o),
(243.838,20.059,o),
(272.769,0.029,cs),
(289.027,-11.226,o),
(416.069,116.314,o),
(399.231,127.971,cs),
(376.162,143.941,o),
(371.858,152.932,o),
(376.559,214.118,cs),
(386.391,342.105,o),
(395.482,470.15,o),
(405.559,598.118,cs),
(410.619,662.381,o),
(400.263,672.915,o),
(381.197,707.869,cs)
);
}
);
width = 496;
}
);
unicode = 52;
},
{
glyphname = five;
lastChange = "2024-02-12 17:11:05 +0000";
layers = (
{
layerId = m01;
shapes = (
{
closed = 1;
nodes = (
(441,604,o),
(477,759,o),
(433,701,cs),
(412,674,o),
(349,659,o),
(307,659,cs),
(252,659,o),
(190,681,o),
(157,710,cs),
(127,738,o),
(78,576,o),
(78,572,cs),
(69,455,o),
(56,350,o),
(48,240,cs),
(44,194,o),
(137,257,o),
(140,302,cs),
(150,431,o),
(153,564,o),
(162,686,c),
(136,640,o),
(109,594,o),
(83,548,c),
(122,511,o),
(190,489,o),
(247,489,cs),
(301,489,o),
(350,486,o),
(401,553,cs)
);
},
{
closed = 1;
nodes = (
(19,205,o),
(83,203,o),
(127,263,cs),
(155,302,o),
(251,334,o),
(310,310,cs),
(356,291,o),
(381,240,o),
(340,133,cs),
(317,76,o),
(427,194,o),
(448,249,cs),
(468,300,o),
(469,344,o),
(455,378,cs),
(440,415,o),
(408,440,o),
(366,447,cs),
(286,460,o),
(170,411,o),
(63,265,cs)
);
},
{
closed = 1;
nodes = (
(455,267,o),
(468,375,o),
(428,296,cs),
(378,198,o),
(297,115,o),
(237,126,cs),
(206,132,o),
(180,163,o),
(168,231,cs),
(164,257,o),
(36,131,o),
(40,107,cs),
(51,38,o),
(87,-1,o),
(133,-12,cs),
(208,-29,o),
(310,25,o),
(388,142,cs),
(399,159,o),
(410,178,o),
(420,198,cs)
);
}
);
width = 514;
}
);
unicode = 53;
},
{
glyphname = six;
lastChange = "2024-02-12 17:11:32 +0000";
layers = (
{
layerId = m01;
shapes = (
{
closed = 1;
nodes = (
(55,89,o),
(113,174,o),
(118,221,cs),
(123,273,o),
(215,313,o),
(268,277,cs),
(300,256,o),
(318,207,o),
(296,118,cs),
(284,72,o),
(388,207,o),
(398,248,cs),
(415,316,o),
(396,371,o),
(360,404,cs),
(274,483,o),
(89,437,o),
(60,139,cs)
);
},
{
closed = 1;
nodes = (
(419,301,o),
(335,244,o),
(311,177,cs),
(290,121,o),
(226,80,o),
(168,134,cs),
(39,257,o),
(274,560,o),
(316,634,cs),
(349,691,o),
(254,659,o),
(222,604,cs),
(200,566,o),
(122,453,o),
(66,333,cs),
(9,212,o),
(-26,84,o),
(44,18,cs),
(80,-17,o),
(166,-38,o),
(251,21,cs),
(303,57,o),
(354,122,o),
(393,231,cs)
);
},
{
closed = 1;
nodes = (
(356,605,o),
(392,760,o),
(348,702,cs),
(335,686,o),
(301,679,o),
(266,682,cs),
(239,685,o),
(212,694,o),
(195,710,cs),
(169,736,o),
(95,573,o),
(121,548,cs),
(140,529,o),
(173,514,o),
(208,511,cs),
(247,508,o),
(289,519,o),
(316,554,cs)
);
}
);
width = 454;
}
);
unicode = 54;
},
{
glyphname = seven;
lastChange = "2024-02-12 17:20:14 +0000";
layers = (
{
layerId = m01;
shapes = (
{
closed = 1;
nodes = (
(463,754,o),
(347,707,o),
(306,625,cs),
(287,588,o),
(57,40,o),
(56,38,cs),
(38,-4,o),
(61,-9,o),
(92,7,cs),
(122,22,o),
(160,56,o),
(176,94,cs),
(183,111,o),
(405,639,o),
(420,669,cs)
);
},
{
closed = 1;
nodes = (
(361,616,o),
(427,746,o),
(363,691,cs),
(341,671,o),
(263,656,o),
(193,664,cs),
(152,670,o),
(114,683,o),
(91,710,cs),
(66,738,o),
(-10,577,o),
(15,548,cs),
(45,514,o),
(87,499,o),
(133,499,cs),
(191,499,o),
(255,524,o),
(305,567,cs)
);
}
);
width = 399;
}
);
unicode = 55;
},
{
glyphname = eight;
lastChange = "2024-02-12 17:13:30 +0000";
layers = (
{
layerId = m01;
shapes = (
{
closed = 1;
nodes = (
(193,355,o),
(271,373,o),
(340,466,cs),
(429,590,o),
(429,668,o),
(389,698,cs),
(349,729,o),
(270,714,o),
(200,654,cs),
(130,595,o),
(95,522,o),
(172,588,cs),
(196,608,o),
(240,589,o),
(264,554,cs),
(283,526,o),
(289,488,o),
(262,452,cs)
);
},
{
closed = 1;
nodes = (
(210,664,o),
(85,552,o),
(67,510,cs),
(27,417,o),
(97,372,o),
(159,311,cs),
(166,304,o),
(288,426,o),
(281,433,cs),
(219,492,o),
(161,547,o),
(193,624,cs)
);
},
{
closed = 1;
nodes = (
(259,382,o),
(159,352,o),
(87,271,cs),
(9,184,o),
(0,93,o),
(32,38,cs),
(67,-21,o),
(150,-37,o),
(248,39,cs),
(315,91,o),
(367,177,o),
(294,121,cs),
(241,79,o),
(196,110,o),
(174,160,cs),
(155,205,o),
(154,264,o),
(185,299,cs)
);
},
{
closed = 1;
nodes = (
(252,40,o),
(378,153,o),
(400,195,cs),
(430,254,o),
(424,293,o),
(402,326,cs),
(378,363,o),
(332,392,o),
(290,430,cs),
(282,436,o),
(161,315,o),
(168,308,cs),
(243,241,o),
(326,184,o),
(276,87,cs)
);
}
);
width = 461;
}
);
unicode = 56;
},
{
glyphname = nine;
lastChange = "2024-02-12 17:04:37 +0000";
layers = (
{
layerId = m01;
shapes = (
{
closed = 1;
nodes = (
(375,611,o),
(317,523,o),
(313,478,cs),
(308,423,o),
(241,388,o),
(192,408,cs),
(152,424,o),
(123,477,o),
(149,585,cs),
(159,627,o),
(56,497,o),
(45,453,cs),
(26,369,o),
(60,302,o),
(113,272,cs),
(202,223,o),
(346,283,o),
(371,560,cs)
);
},
{
closed = 1;
nodes = (
(24,396,o),
(109,458,o),
(132,522,cs),
(153,578,o),
(219,621,o),
(275,565,cs),
(395,442,o),
(169,137,o),
(127,65,cs),
(94,7,o),
(191,42,o),
(221,95,cs),
(265,173,o),
(529,550,o),
(399,681,cs),
(372,709,o),
(313,728,o),
(248,707,cs),
(180,684,o),
(104,617,o),
(50,468,cs)
);
},
{
closed = 1;
nodes = (
(86,111,o),
(39,-54,o),
(82,-7,cs),
(97,10,o),
(130,17,o),
(163,14,cs),
(192,12,o),
(220,3,o),
(238,-12,cs),
(266,-35,o),
(338,130,o),
(312,152,cs),
(293,168,o),
(260,180,o),
(226,183,cs),
(186,186,o),
(145,177,o),
(120,149,cs)
);
}
);
width = 445;
}
);
unicode = 57;
},
{
glyphname = one.dnom;
lastChange = "2024-02-12 17:14:36 +0000";
layers = (
{
layerId = m01;
shapes = (
{
closed = 1;
nodes = (
(181,467,o),
(80,370,o),
(90,353,cs),
(101,335,o),
(99,335,o),
(97,303,cs),
(91,224,o),
(86,144,o),
(81,65,cs),
(78,27,o),
(87,14,o),
(104,2,cs),
(120,-8,o),
(219,90,o),
(202,102,cs),
(189,110,o),
(189,113,o),
(191,147,cs),
(196,226,o),
(201,306,o),
(207,385,cs),
(210,421,o),
(203,429,o),
(192,449,cs)
);
},
{
closed = 1;
nodes = (
(180,465,o),
(83,371,o),
(77,340,cs),
(70,302,o),
(50,245,o),
(32,231,cs),
(-7,200,o),
(56,194,o),
(92,223,cs),
(162,279,o),
(163,375,o),
(173,430,cs)
);
}
);
width = 278;
}
);
metricLeft = one;
metricRight = one;
},
{
glyphname = two.dnom;
lastChange = "2024-02-12 17:14:57 +0000";
layers = (
{
anchors = (
{
name = _left;
pos = (-32,800);
},
{
name = right;
pos = (285,800);
}
);
guides = (
{
pos = (-32,450);
},
{
pos = (186,0);
}
);
layerId = m01;
shapes = (
{
closed = 1;
nodes = (
(-30,42,o),
(25,14,o),
(70,88,cs),
(121,171,o),
(130,172,o),
(209,250,cs),
(300,340,o),
(277,426,o),
(220,451,cs),
(169,473,o),
(91,447,o),
(43,334,cs),
(11,257,o),
(28,200,o),
(63,282,cs),
(81,327,o),
(120,337,o),
(143,327,cs),
(162,320,o),
(171,298,o),
(145,272,cs),
(103,231,o),
(63,195,o),
(14,114,cs)
);
},
{
closed = 1;
nodes = (
(5,120,o),
(-40,-13,o),
(-9,1,cs),
(14,11,o),
(57,23,o),
(98,25,cs),
(137,28,o),
(175,22,o),
(194,1,cs),
(210,-16,o),
(267,111,o),
(252,127,cs),
(231,150,o),
(201,159,o),
(168,160,cs),
(117,162,o),
(60,146,o),
(29,131,cs)
);
}
);
width = 305;
}
);
metricLeft = two;
metricRight = two;
},
{
glyphname = three.dnom;
lastChange = "2024-02-12 17:15:21 +0000";
layers = (
{
layerId = m01;
shapes = (
{
closed = 1;
nodes = (
(273,338,o),
(312,470,o),
(278,448,cs),
(262,438,o),
(214,434,o),
(187,434,cs),
(155,434,o),
(127,440,o),
(108,450,cs),
(88,460,o),
(33,332,o),
(52,322,cs),
(75,310,o),
(107,302,o),
(141,302,cs),
(172,302,o),
(216,302,o),
(244,320,cs)
);
},
{
closed = 1;
nodes = (
(43,179,o),
(43,141,o),
(87,177,cs),
(117,203,o),
(174,208,o),
(200,179,cs),
(216,162,o),
(221,133,o),
(203,90,cs),
(181,34,o),
(266,116,o),
(287,166,cs),
(308,219,o),
(302,254,o),
(278,272,cs),
(242,298,o),
(165,281,o),
(83,213,cs)
);
},
{
closed = 1;
nodes = (
(298,184,o),
(302,269,o),
(265,196,cs),
(239,145,o),
(189,100,o),
(154,109,cs),
(138,113,o),
(126,128,o),
(120,158,cs),
(116,183,o),
(16,83,o),
(20,62,cs),
(26,27,o),
(49,3,o),
(79,-6,cs),
(134,-21,o),
(213,14,o),
(265,118,cs)
);
},
{
closed = 1;
nodes = (
(296,370,o),
(210,349,o),
(160,300,cs),
(147,287,o),
(79,210,o),
(78,208,cs),
(32,158,o),
(127,192,o),
(172,242,cs),
(175,245,o),
(241,316,o),
(244,318,cs)
);
}
);
width = 350;
}
);
metricLeft = three;
metricRight = three;
},
{
glyphname = four.dnom;
lastChange = "2024-02-12 17:15:34 +0000";
layers = (
{
anchors = (
{
name = _left;
pos = (7,800);
},
{
name = left;
pos = (298,800);
}
);
layerId = m01;
shapes = (
{
closed = 1;
nodes = (
(28,244,o),
(-9,140,o),
(2,140,cs),
(83,140,o),
(164,140,o),
(245,140,cs),
(257,140,o),
(295,244,o),
(283,244,cs),
(202,244,o),
(121,244,o),
(40,244,cs)
);
},
{
closed = 1;
nodes = (
(15,217,o),
(18,147,o),
(41,175,cs),
(81,223,o),
(120,270,o),
(161,319,cs),
(181,343,o),
(179,411,o),
(155,383,cs),
(116,336,o),
(75,288,o),
(35,241,cs)
);
},
{
closed = 1;
nodes = (
(231,466,o),
(130,369,o),
(140,352,cs),
(151,333,o),
(153,335,o),
(150,300,cs),
(144,224,o),
(137,147,o),
(132,70,cs),
(130,27,o),
(135,14,o),
(155,2,cs),
(171,-8,o),
(271,91,o),
(253,102,cs),
(241,110,o),
(235,111,o),
(238,148,cs),
(242,224,o),
(249,301,o),
(256,378,cs),
(259,417,o),
(255,427,o),
(242,448,cs)
);
}
);
width = 315;
}
);
metricLeft = four;
metricRight = four;
},
{
glyphname = five.dnom;
lastChange = "2024-02-12 17:15:41 +0000";
layers = (
{
anchors = (
{
name = _left;
pos = (36,800);
},
{
name = left;
pos = (338,800);
}
);
layerId = m01;
shapes = (
{
closed = 1;
nodes = (
(287,324,o),
(333,456,o),
(314,452,cs),
(262,441,o),
(195,439,o),
(125,449,cs),
(95,454,o),
(61,344,o),
(61,339,cs),
(57,274,o),
(47,214,o),
(44,152,cs),
(41,114,o),
(122,174,o),
(124,210,cs),
(129,285,o),
(127,362,o),
(131,433,c),
(110,396,o),
(88,359,o),
(67,323,c),
(141,311,o),
(216,307,o),
(270,320,cs)
);
},
{
closed = 1;
nodes = (
(25,152,o),
(44,114,o),
(96,163,cs),
(115,181,o),
(167,200,o),
(200,188,cs),
(226,178,o),
(240,149,o),
(217,86,cs),
(199,34,o),
(286,121,o),
(303,168,cs),
(329,242,o),
(308,284,o),
(262,290,cs),
(217,296,o),
(148,266,o),
(74,197,cs)
);
},
{
closed = 1;
nodes = (
(310,188,o),
(313,273,o),
(277,200,cs),
(252,149,o),
(201,101,o),
(168,107,cs),
(155,109,o),
(145,120,o),
(140,143,cs),
(135,167,o),
(35,68,o),
(40,47,cs),
(45,19,o),
(66,0,o),
(93,-6,cs),
(146,-17,o),
(225,18,o),
(277,122,cs)
);
}
);
width = 369;
}
);
metricLeft = five;
metricRight = five;
},
{
glyphname = six.dnom;
lastChange = "2024-02-12 17:15:54 +0000";
layers = (
{
anchors = (
{
name = _left;
pos = (1,800);
},
{
name = left;
pos = (303,800);
}
);
layerId = m01;
shapes = (
{
closed = 1;
nodes = (
(40,47,o),
(86,99,o),
(90,142,cs),
(92,164,o),
(143,183,o),
(170,161,cs),
(185,148,o),
(193,120,o),
(178,71,cs),
(163,22,o),
(246,121,o),
(258,163,cs),
(276,223,o),
(250,266,o),
(210,279,cs),
(150,298,o),
(59,250,o),
(44,90,cs)
);
},
{
closed = 1;
nodes = (
(271,196,o),
(207,174,o),
(188,119,cs),
(180,95,o),
(148,76,o),
(123,100,cs),
(51,169,o),
(184,333,o),
(208,375,cs),
(236,424,o),
(164,417,o),
(136,369,cs),
(123,346,o),
(75,276,o),
(41,201,cs),
(7,128,o),
(-13,50,o),
(29,10,cs),
(50,-10,o),
(188,-39,o),
(252,141,cs)
);
},
{
closed = 1;
nodes = (
(220,337,o),
(261,469,o),
(227,451,cs),
(218,446,o),
(200,443,o),
(182,443,cs),
(164,443,o),
(146,445,o),
(135,450,cs),
(105,464,o),
(48,337,o),
(79,322,cs),
(98,313,o),
(120,309,o),
(140,309,cs),
(160,310,o),
(178,314,o),
(191,321,cs)
);
}
);
width = 314;
}
);
metricLeft = six;
metricRight = six;
},
{
glyphname = seven.dnom;
lastChange = "2024-02-12 17:20:26 +0000";
layers = (
{
anchors = (
{
name = _left;
pos = (6,800);
},
{
name = left;
pos = (308,800);
}
);
guides = (
{
pos = (2,450);
},
{
pos = (220,0);
}
);
layerId = m01;
shapes = (
{
closed = 1;
nodes = (
(306,465,o),
(238,461,o),
(208,406,cs),
(197,385,o),
(46,38,o),
(43,29,cs),
(34,0,o),
(52,-6,o),
(73,3,cs),
(92,11,o),
(113,30,o),
(121,53,cs),
(122,58,o),
(270,399,o),
(276,410,cs)
);
},
{
closed = 1;
nodes = (
(222,348,o),
(291,464,o),
(246,443,cs),
(219,430,o),
(188,424,o),
(153,428,cs),
(127,430,o),
(100,438,o),
(70,450,cs),
(47,461,o),
(-9,332,o),
(16,322,cs),
(40,311,o),
(63,306,o),
(84,305,cs),
(118,304,o),
(150,314,o),
(186,331,cs)
);
}
);
width = 254;
}
);
metricLeft = seven;
metricRight = seven;
},
{
glyphname = eight.dnom;
lastChange = "2024-02-12 17:16:14 +0000";
layers = (
{
anchors = (
{
name = _left;
pos = (10,800);
},
{
name = left;
pos = (312,800);
}
);
guides = (
{
pos = (80,450);
},
{
pos = (298,0);
}
);
layerId = m01;
shapes = (
{
closed = 1;
nodes = (
(138,247,o),
(180,236,o),
(217,286,cs),
(276,366,o),
(276,422,o),
(248,444,cs),
(223,464,o),
(177,457,o),
(131,418,cs),
(74,371,o),
(61,318,o),
(120,368,cs),
(129,376,o),
(161,367,o),
(177,348,cs),
(187,336,o),
(190,318,o),
(174,297,cs)
);
},
{
closed = 1;
nodes = (
(151,433,o),
(63,361,o),
(48,325,cs),
(21,261,o),
(69,236,o),
(107,199,cs),
(114,192,o),
(193,271,o),
(186,278,cs),
(148,315,o),
(117,352,o),
(135,395,cs)
);
},
{
closed = 1;
nodes = (
(168,231,o),
(113,244,o),
(66,191,cs),
(9,126,o),
(4,57,o),
(30,20,cs),
(55,-13,o),
(105,-21,o),
(166,26,cs),
(219,67,o),
(248,132,o),
(190,87,cs),
(162,66,o),
(137,81,o),
(123,105,cs),
(110,129,o),
(108,162,o),
(123,179,cs)
);
},
{
closed = 1;
nodes = (
(157,20,o),
(243,89,o),
(262,128,cs),
(280,164,o),
(278,189,o),
(266,208,cs),
(250,233,o),
(219,250,o),
(191,276,cs),
(184,282,o),
(105,203,o),
(112,197,cs),
(158,154,o),
(204,116,o),
(178,63,cs)
);
}
);
width = 315;
}
);
metricLeft = eight;
metricRight = eight;
},
{
glyphname = nine.dnom;
lastChange = "2024-02-12 17:16:28 +0000";
layers = (
{
anchors = (
{
name = _left;
pos = (36,800);
},
{
name = left;
pos = (338,800);
}
);
guides = (
{
pos = (32,450);
},
{
pos = (250,0);
}
);
layerId = m01;
shapes = (
{
closed = 1;
nodes = (
(264,411,o),
(218,360,o),
(213,316,cs),
(212,308,o),
(171,282,o),
(142,288,cs),
(121,293,o),
(107,316,o),
(121,377,cs),
(131,418,o),
(52,325,o),
(43,285,cs),
(31,234,o),
(53,197,o),
(87,184,cs),
(146,161,o),
(241,207,o),
(259,366,cs)
);
},
{
closed = 1;
nodes = (
(29,255,o),
(82,276,o),
(101,325,cs),
(118,368,o),
(156,378,o),
(186,349,cs),
(245,291,o),
(129,122,o),
(100,67,cs),
(74,18,o),
(133,22,o),
(158,69,cs),
(177,104,o),
(359,349,o),
(268,437,cs),
(244,461,o),
(200,466,o),
(156,443,cs),
(117,423,o),
(77,380,o),
(49,307,cs)
);
},
{
closed = 1;
nodes = (
(79,117,o),
(35,-11,o),
(67,0,cs),
(77,4,o),
(101,7,o),
(123,7,cs),
(139,6,o),
(155,5,o),
(162,0,cs),
(186,-12,o),
(239,111,o),
(216,124,cs),
(203,130,o),
(184,133,o),
(165,133,cs),
(141,134,o),
(117,131,o),
(103,126,cs)
);
}
);
width = 303;
}
);
metricLeft = nine;
metricRight = nine;
},
{
glyphname = one.numr;
lastChange = "2024-02-12 17:18:22 +0000";
layers = (
{
anchors = (
{
name = right;
pos = (222,329);
}
);
guides = (
{
pos = (108,268);
}
);
layerId = m01;
shapes = (
{
closed = 1;
nodes = (
(181,715,o),
(80,618,o),
(90,601,cs),
(101,583,o),
(99,583,o),
(97,551,cs),
(91,472,o),
(86,392,o),
(81,313,cs),
(78,275,o),
(87,262,o),
(104,250,cs),
(120,240,o),
(219,338,o),
(202,350,cs),
(189,358,o),
(189,361,o),
(191,395,cs),
(196,474,o),
(201,554,o),
(207,633,cs),
(210,669,o),
(203,677,o),
(192,697,cs)
);
},
{
closed = 1;
nodes = (
(180,713,o),
(83,619,o),
(77,588,cs),
(70,550,o),
(50,493,o),
(32,479,cs),
(-7,448,o),
(56,442,o),
(92,471,cs),
(162,527,o),
(163,623,o),
(173,678,cs)
);
}
);
width = 278;
}
);
metricLeft = one;
metricRight = one;
},
{
glyphname = two.numr;
lastChange = "2024-02-12 17:18:56 +0000";
layers = (
{
anchors = (
{
name = right;
pos = (268,329);
}
);
layerId = m01;
shapes = (
{
closed = 1;
nodes = (
(-30,302,o),
(25,274,o),
(70,348,cs),
(118,427,o),
(138,436,o),
(211,514,cs),
(280,587,o),
(273,655,o),
(236,687,cs),
(191,727,o),
(102,713,o),
(50,591,cs),
(18,514,o),
(35,457,o),
(70,539,cs),
(84,574,o),
(118,584,o),
(138,578,cs),
(156,572,o),
(163,554,o),
(139,528,cs),
(104,491,o),
(66,459,o),
(14,374,cs)
);
},
{
closed = 1;
nodes = (
(5,380,o),
(-40,247,o),
(-9,261,cs),
(20,274,o),
(51,285,o),
(94,282,cs),
(117,280,o),
(144,274,o),
(176,262,cs),
(193,255,o),
(249,383,o),
(230,390,cs),
(198,403,o),
(169,410,o),
(143,412,cs),
(98,416,o),
(62,406,o),
(29,391,cs)
);
}
);
width = 299;
}
);
metricLeft = two;
metricRight = two;
},
{
glyphname = three.numr;
lastChange = "2024-02-12 17:19:08 +0000";
layers = (
{
anchors = (
{
name = right;
pos = (248,329);
}
);
layerId = m01;
shapes = (
{
closed = 1;
nodes = (
(273,607,o),
(312,739,o),
(278,717,cs),
(262,707,o),
(214,703,o),
(187,703,cs),
(155,703,o),
(127,709,o),
(108,719,cs),
(88,729,o),
(33,600,o),
(52,590,cs),
(75,579,o),
(107,571,o),
(141,571,cs),
(172,571,o),
(216,571,o),
(244,588,cs)
);
},
{
closed = 1;
nodes = (
(43,448,o),
(43,410,o),
(87,446,cs),
(118,473,o),
(178,477,o),
(203,445,cs),
(217,427,o),
(220,399,o),
(203,358,cs),
(181,302,o),
(266,385,o),
(287,435,cs),
(306,484,o),
(303,518,o),
(283,536,cs),
(249,568,o),
(169,553,o),
(83,481,cs)
);
},
{
closed = 1;
nodes = (
(298,453,o),
(302,537,o),
(265,465,cs),
(238,410,o),
(181,362,o),
(147,381,cs),
(135,387,o),
(125,401,o),
(120,426,cs),
(116,451,o),
(16,352,o),
(20,331,cs),
(27,294,o),
(51,270,o),
(83,262,cs),
(138,250,o),
(214,285,o),
(265,386,cs)
);
},
{
closed = 1;
nodes = (
(296,639,o),
(210,618,o),
(160,568,cs),
(147,555,o),
(79,478,o),
(78,477,cs),
(32,426,o),
(127,460,o),
(172,510,cs),
(175,514,o),
(241,584,o),
(244,587,cs)
);
}
);
width = 350;
}
);
metricLeft = three;
metricRight = three;
},
{
glyphname = four.numr;
lastChange = "2024-02-12 17:19:18 +0000";
layers = (
{
anchors = (
{
name = right;
pos = (298,329);
}
);
layerId = m01;
shapes = (
{
closed = 1;
nodes = (
(28,494,o),
(-9,390,o),
(2,390,cs),
(83,390,o),
(164,390,o),
(245,390,cs),
(257,390,o),
(295,494,o),
(283,494,cs),
(202,494,o),
(121,494,o),
(40,494,cs)
);
},
{
closed = 1;
nodes = (
(15,467,o),
(18,397,o),
(41,425,cs),
(81,473,o),
(120,520,o),
(161,569,cs),
(181,593,o),
(179,661,o),
(155,633,cs),
(116,586,o),
(75,538,o),
(35,491,cs)
);
},
{
closed = 1;
nodes = (
(231,716,o),
(130,619,o),
(140,602,cs),
(151,583,o),
(153,585,o),
(150,550,cs),
(144,474,o),
(137,397,o),
(132,320,cs),
(130,277,o),
(135,264,o),
(155,252,cs),
(171,242,o),
(271,341,o),
(253,352,cs),
(241,360,o),
(235,361,o),
(238,398,cs),
(242,474,o),
(249,551,o),
(256,628,cs),
(259,667,o),
(255,677,o),
(242,698,cs)
);
}
);
width = 315;
}
);
metricLeft = four;
metricRight = four;
},
{
glyphname = five.numr;
lastChange = "2024-02-12 17:19:26 +0000";
layers = (
{
anchors = (
{
name = right;
pos = (267,329);
}
);
layerId = m01;
shapes = (
{
closed = 1;
nodes = (
(287,582,o),
(333,714,o),
(314,710,cs),
(262,699,o),
(195,697,o),
(125,707,cs),
(95,712,o),
(61,602,o),
(61,597,cs),
(57,532,o),
(47,472,o),
(44,410,cs),
(41,372,o),
(122,432,o),
(124,468,cs),
(129,543,o),
(127,620,o),
(131,691,c),
(110,654,o),
(88,617,o),
(67,581,c),
(141,569,o),
(216,565,o),
(270,578,cs)
);
},
{
closed = 1;
nodes = (
(25,410,o),
(44,372,o),
(96,421,cs),
(116,439,o),
(170,459,o),
(203,445,cs),
(227,434,o),
(239,405,o),
(217,344,cs),
(199,292,o),
(286,379,o),
(303,426,cs),
(327,496,o),
(311,537,o),
(270,547,cs),
(226,557,o),
(152,529,o),
(74,455,cs)
);
},
{
closed = 1;
nodes = (
(310,446,o),
(313,531,o),
(277,458,cs),
(250,404,o),
(195,354,o),
(163,367,cs),
(152,371,o),
(144,382,o),
(140,401,cs),
(135,425,o),
(35,326,o),
(40,305,cs),
(46,276,o),
(67,257,o),
(96,252,cs),
(149,242,o),
(226,278,o),
(277,380,cs)
);
}
);
width = 369;
}
);
metricLeft = five;
metricRight = five;
},
{
glyphname = six.numr;
lastChange = "2024-02-12 17:19:34 +0000";
layers = (
{
anchors = (
{
name = right;
pos = (276,329);
}
);
layerId = m01;
shapes = (
{
closed = 1;
nodes = (
(40,304,o),
(86,356,o),
(90,399,cs),
(92,418,o),
(131,435,o),
(159,424,cs),
(181,415,o),
(196,388,o),
(178,328,cs),
(163,279,o),
(246,378,o),
(258,420,cs),
(276,479,o),
(251,521,o),
(212,535,cs),
(152,556,o),
(59,509,o),
(44,347,cs)
);
},
{
closed = 1;
nodes = (
(271,453,o),
(207,431,o),
(188,376,cs),
(180,352,o),
(148,333,o),
(123,357,cs),
(51,426,o),
(184,590,o),
(208,632,cs),
(236,681,o),
(164,674,o),
(136,626,cs),
(124,604,o),
(78,538,o),
(44,466,cs),
(8,391,o),
(-14,309,o),
(29,267,cs),
(41,255,o),
(96,240,o),
(152,269,cs),
(189,288,o),
(227,326,o),
(252,398,cs)
);
},
{
closed = 1;
nodes = (
(220,594,o),
(261,726,o),
(227,708,cs),
(210,699,o),
(158,697,o),
(135,707,cs),
(105,721,o),
(48,594,o),
(79,579,cs),
(116,561,o),
(164,563,o),
(191,578,cs)
);
}
);
width = 314;
}
);
metricLeft = six;
metricRight = six;
},
{
glyphname = seven.numr;
lastChange = "2024-02-12 17:20:22 +0000";
layers = (
{
anchors = (
{
name = right;
pos = (144,329);
}
);
layerId = m01;
shapes = (
{
closed = 1;
nodes = (
(306,733,o),
(238,729,o),
(208,674,cs),
(197,653,o),
(46,306,o),
(43,297,cs),
(34,269,o),
(50,263,o),
(70,270,cs),
(89,277,o),
(113,296,o),
(121,321,cs),
(122,326,o),
(270,667,o),
(276,678,cs)
);
},
{
closed = 1;
nodes = (
(222,616,o),
(291,732,o),
(246,711,cs),
(219,698,o),
(188,692,o),
(154,696,cs),
(128,698,o),
(100,705,o),
(70,718,cs),
(47,729,o),
(-9,600,o),
(16,590,cs),
(41,578,o),
(65,573,o),
(87,573,cs),
(120,573,o),
(151,583,o),
(186,599,cs)
);
}
);
width = 254;
}
);
metricLeft = seven;
metricRight = seven;
},
{
glyphname = eight.numr;
lastChange = "2024-02-12 17:19:52 +0000";
layers = (
{
anchors = (
{
name = right;
pos = (283,329);
}
);
layerId = m01;
shapes = (
{
closed = 1;
nodes = (
(138,499,o),
(180,488,o),
(217,539,cs),
(270,610,o),
(275,663,o),
(255,689,cs),
(234,717,o),
(183,714,o),
(131,670,cs),
(75,623,o),
(61,570,o),
(121,620,cs),
(129,627,o),
(153,621,o),
(170,607,cs),
(185,594,o),
(193,574,o),
(175,549,cs)
);
},
{
closed = 1;
nodes = (
(150,685,o),
(63,614,o),
(48,577,cs),
(21,513,o),
(68,488,o),
(107,450,cs),
(114,444,o),
(194,523,o),
(187,530,cs),
(148,566,o),
(117,605,o),
(134,647,cs)
);
},
{
closed = 1;
nodes = (
(168,483,o),
(112,496,o),
(65,443,cs),
(13,383,o),
(5,321,o),
(24,282,cs),
(46,240,o),
(100,227,o),
(165,277,cs),
(219,317,o),
(249,383,o),
(191,339,cs),
(163,318,o),
(138,332,o),
(124,356,cs),
(110,380,o),
(107,414,o),
(123,431,cs)
);
},
{
closed = 1;
nodes = (
(157,273,o),
(243,342,o),
(262,380,cs),
(302,462,o),
(242,482,o),
(192,528,cs),
(185,534,o),
(105,455,o),
(112,448,cs),
(158,406,o),
(204,368,o),
(178,316,cs)
);
}
);
width = 315;
}
);
metricLeft = eight;
metricRight = eight;
},
{
glyphname = nine.numr;
lastChange = "2024-02-12 17:19:59 +0000";
layers = (
{
anchors = (
{
name = right;
pos = (302,329);
}
);
layerId = m01;
shapes = (
{
closed = 1;
nodes = (
(264,660,o),
(218,609,o),
(213,565,cs),
(212,557,o),
(173,532,o),
(144,537,cs),
(122,541,o),
(106,563,o),
(121,626,cs),
(131,667,o),
(52,574,o),
(43,534,cs),
(31,481,o),
(55,444,o),
(91,432,cs),
(150,412,o),
(242,460,o),
(259,615,cs)
);
},
{
closed = 1;
nodes = (
(29,504,o),
(82,525,o),
(101,574,cs),
(118,617,o),
(156,627,o),
(186,598,cs),
(245,540,o),
(129,371,o),
(100,316,cs),
(74,267,o),
(133,271,o),
(158,318,cs),
(165,331,o),
(198,377,o),
(229,434,cs),
(278,521,o),
(323,632,o),
(268,686,cs),
(241,712,o),
(193,716,o),
(144,686,cs),
(109,663,o),
(74,622,o),
(49,556,cs)
);
},
{
closed = 1;
nodes = (
(79,366,o),
(35,238,o),
(67,249,cs),
(77,253,o),
(102,256,o),
(124,256,cs),
(140,255,o),
(155,254,o),
(162,249,cs),
(186,237,o),
(239,360,o),
(216,373,cs),
(201,380,o),
(179,383,o),
(157,383,cs),
(136,382,o),
(116,379,o),
(103,375,cs)
);
}
);
width = 303;
}
);
metricLeft = nine;
metricRight = nine;
},
{
glyphname = fraction;
lastChange = "2024-02-12 16:37:06 +0000";
layers = (
{
anchors = (
{
name = _right;
pos = (127,324);
},
{
name = left;
pos = (228,800);
}
);
layerId = m01;
shapes = (
{
closed = 1;
nodes = (
(410,695,o),
(404,711,o),
(389,710,cs),
(369,709,o),
(334,683,o),
(312.397,638.564,cs),
(306,626,o),
(250,512,o),
(189,387,cs),
(110,224,o),
(21,43,o),
(20.858,42.464,cs),
(1,1,o),
(11,-14,o),
(31,-8,cs),
(51,-3,o),
(81,23,o),
(101.142,63.536,cs),
(105,71,o),
(180,224,o),
(252,373,cs),
(318,507,o),
(382,638,o),
(391.603,657.436,cs)
);
}
);
width = 438;
}
);
unicode = 8260;
},
{
glyphname = "period-han";
lastChange = "2024-02-12 17:32:09 +0000";
layers = (
{
layerId = m01;
shapes = (
{
closed = 1;
nodes = (
(170,213,o),
(109,220,o),
(40,133,cs),
(-56,12,o),
(-54,-77,o),
(-15,-120,cs),
(15,-152,o),
(67,-158,o),
(113,-131,cs),
(163,-102,o),
(238,49,o),
(179,15,cs),
(137,-9,o),
(113,2,o),
(100,24,cs),
(82,55,o),
(86,108,o),
(96,121,cs)
);
},
{
closed = 1;
nodes = (
(96,-62,o),
(88,-159,o),
(157,-83,cs),
(316,91,o),
(312,187,o),
(261,223,cs),
(225,249,o),
(166,244,o),
(124,214,cs),
(64,172,o),
(-11,43,o),
(60,94,cs),
(116,133,o),
(141,104,o),
(152,69,cs),
(161,41,o),
(161,9,o),
(159,7,cs)
);
}
);
width = 342;
}
);
unicode = 12290;
},
{
glyphname = period;
lastChange = "2024-02-12 17:32:50 +0000";
layers = (
{
anchors = (
{
name = _top;
pos = (69,180);
},
{
name = top;
pos = (96,479);
}
);
layerId = m01;
shapes = (
{
closed = 1;
nodes = (
(104,184,o),
(80,165,o),
(56,143,cs),
(30,118,o),
(5,88,o),
(11,81,cs),
(41,47,o),
(59,30,o),
(84,2,cs),
(90,-4,o),
(117,18,o),
(142,42,cs),
(166,66,o),
(187,93,o),
(182,99,cs),
(156,128,o),
(139,145,o),
(109,178,cs)
);
}
);
width = 223;
}
);
unicode = 46;
},
{
glyphname = comma;
lastChange = "2024-02-12 17:33:39 +0000";
layers = (
{
anchors = (
{
name = _top;
pos = (118,785);
},
{
name = top;
pos = (120,-106);
}
);
layerId = m01;
shapes = (
{
closed = 1;
nodes = (
(101,183,o),
(74,166,o),
(50,144,cs),
(24,119,o),
(1,87,o),
(13,76,cs),
(32,59,o),
(46,44,o),
(56,32,cs),
(86,-7,o),
(80,-29,o),
(69,-42,cs),
(48,-69,o),
(41,-76,o),
(31,-87,cs),
(19,-100,o),
(56,-117,o),
(67,-105,cs),
(95,-76,o),
(131,-55,o),
(161,-18,cs),
(196,26,o),
(198,62,o),
(180,96,cs),
(166,122,o),
(141,147,o),
(111,174,cs)
);
}
);
width = 231;
}
);
unicode = 44;
},
{
glyphname = exclam;
lastChange = "2024-02-12 17:34:59 +0000";
layers = (
{
layerId = m01;
shapes = (
{
closed = 1;
nodes = (
(204,733,o),
(157,710,o),
(115,672,cs),
(81,641,o),
(50,601,o),
(50,575,cs),
(50,572,o),
(51,517,o),
(52,454,cs),
(53,369,o),
(55,271,o),
(55,268,cs),
(53,246,o),
(78,255,o),
(102,274,cs),
(123,291,o),
(143,315,o),
(145,334,cs),
(145,338,o),
(165,452,o),
(181,551,cs),
(194,625,o),
(204,691,o),
(204,697,cs)
);
},
{
pos = (5,0);
ref = period;
}
);
width = 244;
}
);
unicode = 33;
},
{
glyphname = question;
lastChange = "2024-02-12 17:37:15 +0000";
layers = (
{
layerId = m01;
shapes = (
{
pos = (41,1);
ref = period;
},
{
closed = 1;
nodes = (
(49,339,o),
(85,303,o),
(177,393,cs),
(227,442,o),
(264,486,o),
(290,524,cs),
(350,609,o),
(354,667,o),
(328,695,cs),
(296,729,o),
(221,721,o),
(145,671,cs),
(114,650,o),
(83,622,o),
(55,586,cs),
(-6,509,o),
(6,445,o),
(71,528,cs),
(107,573,o),
(162,583,o),
(188,563,cs),
(213,545,o),
(211,498,o),
(139,427,cs)
);
},
{
closed = 1;
nodes = (
(212,511,o),
(88,377,o),
(88,346,cs),
(88,332,o),
(91,269,o),
(91,269,cs),
(85,225,o),
(174,290,o),
(181,331,cs),
(182,337,o),
(212,449,o),
(212,476,cs)
);
}
);
width = 383;
}
);
unicode = 63;
},
{
glyphname = bullet;
lastChange = "2024-02-12 17:38:55 +0000";
layers = (
{
layerId = m01;
shapes = (
{
closed = 1;
nodes = (
(195,387,o),
(135,394,o),
(66,307,cs),
(2,226,o),
(1,177,o),
(22,153,cs),
(40,133,o),
(73,132,o),
(96,145,cs),
(146,174,o),
(221,325,o),
(162,291,cs),
(154,287,o),
(121,294,o),
(122,295,cs)
);
},
{
closed = 1;
nodes = (
(71,201,o),
(65,107,o),
(134,183,cs),
(230,288,o),
(241,347,o),
(222,373,cs),
(204,396,o),
(164,393,o),
(137,374,cs),
(78,333,o),
(1,203,o),
(71,252,cs),
(73,253,o),
(136,273,o),
(134,271,cs)
);
}
);
width = 270;
}
);
unicode = 8226;
},
{
glyphname = asterisk;
lastChange = "2024-02-12 17:39:03 +0000";
layers = (
{
layerId = m01;
shapes = (
{
closed = 1;
nodes = (
(495,625,o),
(505,722,o),
(416,654,cs),
(382,628,o),
(100,379,o),
(98,377,cs),
(18,307,o),
(33,229,o),
(120,305,cs),
(131,315,o),
(403,554,o),
(416,564,cs)
);
},
{
closed = 1;
nodes = (
(366,273,o),
(406,288,o),
(440,311,cs),
(477,335,o),
(507,368,o),
(490,383,cs),
(384,477,o),
(279,571,o),
(173,665,cs),
(159,677,o),
(121,663,o),
(87,641,cs),
(49,616,o),
(18,583,o),
(35,567,cs),
(141,473,o),
(246,379,o),
(352,285,cs)
);
},
{
closed = 1;
nodes = (
(347,763,o),
(251,687,o),
(251,647,cs),
(251,640,o),
(187,246,o),
(186,240,cs),
(178,190,o),
(274,254,o),
(282,302,cs),
(282,304,o),
(347,706,o),
(347,719,cs)
);
}
);
width = 535;
}
);
unicode = 42;
},
{
glyphname = dblverticalbar;
lastChange = "2024-02-12 17:39:16 +0000";
layers = (
{
layerId = m01;
shapes = (
{
closed = 1;
nodes = (
(317,747,o),
(228,688,o),
(217,641,cs),
(210,612,o),
(167,-1,o),
(167,-2,cs),
(164,-46,o),
(254,22,o),
(257,64,cs),
(259,92,o),
(296,658,o),
(305,697,cs)
);
},
{
closed = 1;
nodes = (
(180,747,o),
(91,688,o),
(80,641,cs),
(73,612,o),
(30,-1,o),
(30,-2,cs),
(27,-46,o),
(117,22,o),
(120,64,cs),
(122,92,o),
(159,658,o),
(168,697,cs)
);
}
);
width = 336;
}
);
unicode = 8214;
},
{
glyphname = dittomark;
lastChange = "2024-02-12 17:44:17 +0000";
layers = (
{
layerId = m01;
shapes = (
{
closed = 1;
nodes = (
(226,522,o),
(190,523,o),
(150,497,cs),
(126,481,o),
(100,456,o),
(85,425,cs),
(76,408,o),
(22,279,o),
(21,277,cs),
(3,234,o),
(27,230,o),
(59,247,cs),
(89,263,o),
(125,297,o),
(141,333,cs),
(144,339,o),
(199,468,o),
(199,469,cs)
);
},
{
closed = 1;
nodes = (
(380,521,o),
(346,523,o),
(307,498,cs),
(282,483,o),
(256,457,o),
(240,425,cs),
(231,408,o),
(177,279,o),
(176,277,cs),
(156,229,o),
(188,230,o),
(225,254,cs),
(252,271,o),
(282,301,o),
(296,333,cs),
(299,339,o),
(354,468,o),
(354,469,cs)
);
}
);
width = 363;
}
);
unicode = 12291;
},
{
glyphname = numbersign;
lastChange = "2024-02-12 17:39:52 +0000";
layers = (
{
layerId = m01;
shapes = (
{
closed = 1;
nodes = (
(306,649,o),
(269,641,o),
(232,612,cs),
(204,591,o),
(175,559,o),
(167,530,cs),
(159,499,o),
(76,26,o),
(75,24,cs),
(69,-12,o),
(99,-6,o),
(131,17,cs),
(164,39,o),
(199,79,o),
(205,110,cs),
(208,131,o),
(286,573,o),
(295,606,cs)
);
},
{
closed = 1;
nodes = (
(527,649,o),
(489,641,o),
(450,612,cs),
(423,593,o),
(397,563,o),
(387,533,cs),
(376,497,o),
(294,27,o),
(293,24,cs),
(286,-16,o),
(323,-4,o),
(360,25,cs),
(389,48,o),
(418,82,o),
(423,110,cs),
(425,124,o),
(505,578,o),
(513,603,cs)
);
},
{
closed = 1;
nodes = (
(95,507,o),
(34,337,o),
(55,337,cs),
(136,337,o),
(216,338,o),
(297,338,cs),
(366,338,o),
(434,338,o),
(503,338,cs),
(522,338,o),
(584,508,o),
(563,508,cs),
(480,508,o),
(397,507,o),
(314,507,cs),
(248,507,o),
(181,507,o),
(115,507,cs)
);
},
{
closed = 1;
nodes = (
(54,287,o),
(-7,117,o),
(14,117,cs),
(96,117,o),
(178,118,o),
(260,118,cs),
(328,118,o),
(395,118,o),
(462,118,cs),
(481,118,o),
(543,288,o),
(522,288,cs),
(437,288,o),
(352,287,o),
(266,287,cs),
(202,287,o),
(138,287,o),
(74,287,cs)
);
}
);
width = 607;
}
);
unicode = 35;
},
{
glyphname = slash;
lastChange = "2024-02-12 17:41:57 +0000";
layers = (
{
layerId = m01;
shapes = (
{
closed = 1;
nodes = (
(392,740,o),
(377,750,o),
(351,742,cs),
(322,733,o),
(279,699,o),
(258,656,cs),
(237,615,o),
(-23,-7,o),
(-24,-9,cs),
(-38,-42,o),
(-27,-52,o),
(-7,-47,cs),
(24,-40,o),
(77,1,o),
(96,47,cs),
(108,75,o),
(349,655,o),
(372,700,cs)
);
}
);
width = 381;
}
);
unicode = 47;
},
{
glyphname = backslash;
lastChange = "2024-02-12 17:42:09 +0000";
layers = (
{
layerId = m01;
shapes = (
{
closed = 1;
nodes = (
(272,5,o),
(323,-36,o),
(355,-46,cs),
(377,-53,o),
(390,-44,o),
(375,-10,cs),
(362,23,o),
(114,614,o),
(93,656,cs),
(77,687,o),
(49,714,o),
(24,730,cs),
(-15,754,o),
(-47,752,o),
(-21,700,cs),
(-12,682,o),
(244,73,o),
(255,48,cs)
);
}
);
width = 381;
}
);
unicode = 92;
},
{
glyphname = hyphen;
lastChange = "2024-02-12 17:46:59 +0000";
layers = (
{
layerId = m01;
shapes = (
{
closed = 1;
nodes = (
(54,384,o),
(-7,214,o),
(14,214,cs),
(91,214,o),
(168,213,o),
(245,212,cs),
(265,212,o),
(326,382,o),
(305,382,cs),
(228,382,o),
(151,383,o),
(74,384,cs)
);
}
);
width = 339;
}
);
unicode = 45;
},
{
glyphname = endash;
lastChange = "2024-02-12 17:47:22 +0000";
layers = (
{
layerId = m01;
shapes = (
{
closed = 1;
nodes = (
(54,384,o),
(-7,214,o),
(14,214,cs),
(193,214,o),
(371,213,o),
(550,212,cs),
(570,212,o),
(631,382,o),
(610,382,cs),
(431,382,o),
(253,383,o),
(74,384,cs)
);
}
);
width = 644;
}
);
metricLeft = hyphen;
metricRight = hyphen;
unicode = 8211;
},
{
glyphname = emdash;
lastChange = "2024-02-12 17:47:35 +0000";
layers = (
{
layerId = m01;
shapes = (
{
closed = 1;
nodes = (
(54,384,o),
(-7,214,o),
(14,214,cs),
(253,214,o),
(492,213,o),
(731,212,cs),
(751,212,o),
(812,382,o),
(791,382,cs),
(552,382,o),
(313,383,o),
(74,384,cs)
);
}
);
width = 825;
}
);
metricLeft = hyphen;
metricRight = hyphen;
unicode = 8212;
},
{
glyphname = underscore;
lastChange = "2024-02-12 17:47:51 +0000";
layers = (
{
layerId = m01;
shapes = (
{
closed = 1;
nodes = (
(54,-21,o),
(-7,-191,o),
(14,-191,cs),
(193,-191,o),
(371,-192,o),
(550,-193,cs),
(570,-193,o),
(631,-23,o),
(610,-23,cs),
(431,-23,o),
(253,-22,o),
(74,-21,cs)
);
}
);
width = 644;
}
);
metricLeft = hyphen;
metricRight = hyphen;
unicode = 95;
},
{
glyphname = wavedash;
lastChange = "2024-02-12 17:48:10 +0000";
layers = (
{
layerId = m01;
shapes = (
{
closed = 1;
nodes = (
(655,189,o),
(713,359,o),
(681,346,cs),
(562,299,o),
(498,286,o),
(379,348,cs),
(290,395,o),
(184,397,o),
(71,327,cs),
(43,310,o),
(-15,138,o),
(21,161,cs),
(126,225,o),
(231,225,o),
(317,180,cs),
(437,116,o),
(506,129,o),
(627,178,cs)
);
}
);
width = 720;
}
);
metricLeft = hyphen;
metricRight = hyphen;
unicode = 12316;
},
{
glyphname = parenleft;
lastChange = "2024-02-12 17:48:56 +0000";
layers = (
{
layerId = m01;
shapes = (
{
closed = 1;
nodes = (
(320,738,o),
(170,666,o),
(141,616,cs),
(93,532,o),
(60,418,o),
(52,305,cs),
(44,183,o),
(65,60,o),
(128,-26,cs),
(146,-51,o),
(273,76,o),
(256,100,cs),
(204,172,o),
(190,277,o),
(199,384,cs),
(209,495,o),
(244,607,o),
(289,684,cs)
);
}
);
width = 343;
}
);
unicode = 40;
},
{
glyphname = parenright;
lastChange = "2024-02-12 17:04:37 +0000";
layers = (
{
layerId = m01;
shapes = (
{
closed = 1;
nodes = (
(23,-51,o),
(174,23,o),
(202,71,cs),
(253,161,o),
(287,283,o),
(292,404,cs),
(296,519,o),
(274,632,o),
(215,713,cs),
(197,738,o),
(69,611,o),
(87,587,cs),
(135,521,o),
(151,426,o),
(146,329,cs),
(140,210,o),
(102,86,o),
(54,3,cs)
);
}
);
width = 363;
}
);
unicode = 41;
},
{
glyphname = braceleft;
lastChange = "2024-02-12 17:49:39 +0000";
layers = (
{
layerId = m01;
shapes = (
{
closed = 1;
nodes = (
(390,728,o),
(292,712,o),
(246,665,cs),
(169,586,o),
(173,567,o),
(165,417,cs),
(165,413,o),
(138,370,o),
(100,370,cs),
(67,370,o),
(28,304,o),
(66,304,cs),
(67,304,o),
(293,332,o),
(301,483,cs),
(308,625,o),
(301,638,o),
(342,679,cs)
);
},
{
closed = 1;
nodes = (
(69,369,o),
(29,301,o),
(67,301,cs),
(89,301,o),
(151,302,o),
(147,237,cs),
(138,100,o),
(100,-13,o),
(194,-16,cs),
(240,-18,o),
(358,62,o),
(302,64,cs),
(254,66,o),
(279,138,o),
(289,301,cs),
(296,406,o),
(106,369,o),
(101,369,cs)
);
}
);
width = 385;
}
);
unicode = 123;
},
{
glyphname = braceright;
lastChange = "2024-02-12 17:49:42 +0000";
layers = (
{
layerId = m01;
shapes = (
{
closed = 1;
nodes = (
(319,326,o),
(356,392,o),
(319,392,cs),
(318,392,o),
(92,364,o),
(84,213,cs),
(77,67,o),
(84,59,o),
(43,17,cs),
(-6,-33,o),
(95,-14,o),
(139,31,cs),
(216,109,o),
(212,133,o),
(220,279,cs),
(220,283,o),
(247,326,o),
(285,326,cs)
);
},
{
closed = 1;
nodes = (
(145,714,o),
(27,634,o),
(83,632,cs),
(131,630,o),
(106,558,o),
(96,395,cs),
(89,290,o),
(279,327,o),
(284,327,cs),
(317,327,o),
(355,395,o),
(318,395,cs),
(296,395,o),
(234,394,o),
(238,459,cs),
(247,596,o),
(285,709,o),
(191,712,cs)
);
}
);
width = 385;
}
);
unicode = 125;
},
{
glyphname = bracketleft;
lastChange = "2024-02-12 17:49:50 +0000";
layers = (
{
layerId = m01;
shapes = (
{
closed = 1;
nodes = (
(238,714,o),
(109,630,o),
(92,562,cs),
(87,539,o),
(50,11,o),
(50,8,cs),
(45,-57,o),
(176,40,o),
(180,102,cs),
(181,118,o),
(218,631,o),
(220,640,cs)
);
},
{
closed = 1;
nodes = (
(135,714,o),
(75,544,o),
(96,544,cs),
(178,545,o),
(259,545,o),
(340,545,cs),
(360,545,o),
(422,715,o),
(400,715,cs),
(318,714,o),
(237,714,o),
(156,714,cs)
);
},
{
closed = 1;
nodes = (
(104,156,o),
(44,-14,o),
(65,-14,cs),
(143,-13,o),
(220,-13,o),
(297,-13,cs),
(317,-13,o),
(379,157,o),
(357,157,cs),
(279,156,o),
(202,156,o),
(125,156,cs)
);
}
);
width = 435;
}
);
unicode = 91;
},
{
glyphname = bracketright;
lastChange = "2024-02-12 17:49:57 +0000";
layers = (
{
layerId = m01;
shapes = (
{
closed = 1;
nodes = (
(196,-12,o),
(324,69,o),
(342,140,cs),
(347,163,o),
(384,691,o),
(384,694,cs),
(389,760,o),
(258,659,o),
(254,600,cs),
(253,584,o),
(216,71,o),
(214,62,cs)
);
},
{
closed = 1;
nodes = (
(298,-12,o),
(360,158,o),
(338,158,cs),
(256,157,o),
(175,157,o),
(94,157,cs),
(73,157,o),
(13,-13,o),
(34,-13,cs),
(116,-12,o),
(197,-12,o),
(278,-12,cs)
);
},
{
closed = 1;
nodes = (
(329,546,o),
(391,716,o),
(369,716,cs),
(291,715,o),
(214,715,o),
(137,715,cs),
(116,715,o),
(56,545,o),
(77,545,cs),
(155,546,o),
(232,546,o),
(309,546,cs)
);
}
);
width = 434;
}
);
unicode = 93;
},
{
glyphname = anglebracketleft;
lastChange = "2024-02-12 17:50:11 +0000";
layers = (
{
layerId = m01;
shapes = (
{
closed = 1;
nodes = (
(423,848,o),
(293,806,o),
(260,747,cs),
(185,616,o),
(111,486,o),
(37,355,cs),
(0,290,o),
(131,337,o),
(163,393,cs),
(238,524,o),
(312,654,o),
(386,785,cs)
);
},
{
closed = 1;
nodes = (
(156,456,o),
(12,365,o),
(32,329,cs),
(107,199,o),
(181,69,o),
(255,-62,cs),
(275,-96,o),
(419,-6,o),
(399,30,cs),
(324,160,o),
(250,291,o),
(176,421,cs)
);
}
);
width = 451;
}
);
unicode = 12296;
},
{
glyphname = anglebracketright;
lastChange = "2024-02-12 17:50:19 +0000";
layers = (
{
layerId = m01;
shapes = (
{
closed = 1;
nodes = (
(28,-103,o),
(159,-56,o),
(191,0,cs),
(266,131,o),
(340,261,o),
(414,392,cs),
(451,455,o),
(321,413,o),
(288,354,cs),
(213,223,o),
(139,93,o),
(65,-38,cs)
);
},
{
closed = 1;
nodes = (
(295,292,o),
(439,382,o),
(419,418,cs),
(344,548,o),
(270,679,o),
(196,809,cs),
(176,844,o),
(32,753,o),
(52,717,cs),
(127,587,o),
(201,457,o),
(275,326,cs)
);
}
);
width = 451;
}
);
unicode = 12297;
},
{
glyphname = cornerbracketleft;
lastChange = "2024-02-12 17:50:53 +0000";
layers = (
{
guides = (
{
pos = (345,889);
}
);
layerId = m01;
shapes = (
{
closed = 1;
nodes = (
(227,788,o),
(98,704,o),
(81,636,cs),
(75,612,o),
(50,196,o),
(50,193,cs),
(45,129,o),
(176,228,o),
(180,289,cs),
(181,302,o),
(207,708,o),
(209,714,cs)
);
},
{
closed = 1;
nodes = (
(124,788,o),
(64,618,o),
(85,618,cs),
(167,619,o),
(248,619,o),
(329,619,cs),
(349,619,o),
(411,789,o),
(389,789,cs),
(307,788,o),
(226,788,o),
(145,788,cs)
);
}
);
width = 424;
}
);
unicode = 12300;
},
{
glyphname = cornerbracketright;
lastChange = "2024-02-12 17:50:59 +0000";
layers = (
{
layerId = m01;
shapes = (
{
closed = 1;
nodes = (
(196,-117,o),
(324,-36,o),
(342,35,cs),
(348,59,o),
(373,475,o),
(373,478,cs),
(378,542,o),
(247,440,o),
(243,382,cs),
(242,369,o),
(216,-37,o),
(214,-43,cs)
);
},
{
closed = 1;
nodes = (
(298,-117,o),
(360,53,o),
(338,53,cs),
(256,52,o),
(175,52,o),
(94,52,cs),
(73,52,o),
(13,-118,o),
(34,-118,cs),
(116,-117,o),
(197,-117,o),
(278,-117,cs)
);
}
);
width = 423;
}
);
unicode = 12301;
},
{
glyphname = quotesinglbase;
lastChange = "2024-02-12 17:52:09 +0000";
layers = (
{
layerId = m01;
shapes = (
{
closed = 1;
nodes = (
(26,-145,o),
(66,-132,o),
(101,-112,cs),
(127,-97,o),
(150,-78,o),
(152,-65,cs),
(152,-64,o),
(201,120,o),
(203,130,cs),
(208,158,o),
(176,156,o),
(140,141,cs),
(100,125,o),
(55,91,o),
(49,64,cs),
(49,64,o),
(42,-54,o),
(30,-125,cs)
);
}
);
width = 234;
}
);
metricLeft = quotesingle;
metricRight = quotesingle;
unicode = 8218;
},
{
glyphname = quotedblbase;
lastChange = "2024-02-12 17:52:26 +0000";
layers = (
{
layerId = m01;
shapes = (
{
closed = 1;
nodes = (
(200,-145,o),
(238,-133,o),
(272,-113,cs),
(299,-98,o),
(323,-78,o),
(325,-65,cs),
(325,-64,o),
(374,121,o),
(376,130,cs),
(381,161,o),
(341,155,o),
(300,135,cs),
(263,117,o),
(227,88,o),
(222,64,cs),
(222,64,o),
(221,-6,o),
(203,-125,cs)
);
},
{
closed = 1;
nodes = (
(27,-145,o),
(64,-133,o),
(98,-114,cs),
(125,-98,o),
(150,-78,o),
(152,-65,cs),
(152,-64,o),
(201,121,o),
(203,130,cs),
(208,161,o),
(169,155,o),
(128,136,cs),
(92,118,o),
(54,89,o),
(49,64,cs),
(49,64,o),
(45,-21,o),
(30,-125,cs)
);
}
);
width = 406;
}
);
metricLeft = quotedbl;
metricRight = quotedbl;
unicode = 8222;
},
{
glyphname = quotedblleft;
lastChange = "2024-02-12 17:52:57 +0000";
layers = (
{
layerId = m01;
shapes = (
{
closed = 1;
nodes = (
(203,722,o),
(176,715,o),
(147,700,cs),
(115,684,o),
(81,658,o),
(81,643,cs),
(81,642,o),
(33,459,o),
(31,450,cs),
(23,419,o),
(67,425,o),
(110,447,cs),
(144,464,o),
(178,491,o),
(183,516,cs),
(183,516,o),
(203,588,o),
(203,707,cs)
);
},
{
closed = 1;
nodes = (
(376,738,o),
(254,672,o),
(254,643,cs),
(254,642,o),
(206,459,o),
(204,450,cs),
(196,418,o),
(241,425,o),
(284,447,cs),
(318,464,o),
(351,491,o),
(356,516,cs),
(356,516,o),
(376,588,o),
(376,707,cs)
);
}
);
width = 406;
}
);
metricLeft = quotedbl;
metricRight = quotedbl;
unicode = 8220;
},
{
glyphname = quotedblright;
lastChange = "2024-02-12 17:53:12 +0000";
layers = (
{
layerId = m01;
shapes = (
{
closed = 1;
nodes = (
(203,420,o),
(325,486,o),
(325,515,cs),
(325,516,o),
(373,699,o),
(375,708,cs),
(389,766,o),
(235,695,o),
(223,642,cs),
(223,642,o),
(203,570,o),
(203,451,cs)
);
},
{
closed = 1;
nodes = (
(30,420,o),
(152,486,o),
(152,515,cs),
(152,516,o),
(200,699,o),
(202,708,cs),
(216,766,o),
(62,695,o),
(50,642,cs),
(50,642,o),
(30,570,o),
(30,451,cs)
);
}
);
width = 406;
}
);
metricLeft = quotedblright;
metricRight = quotedblright;
unicode = 8221;
},
{
glyphname = quoteleft;
lastChange = "2024-02-12 17:53:50 +0000";
layers = (
{
layerId = m01;
shapes = (
{
closed = 1;
nodes = (
(203,738,o),
(81,672,o),
(81,643,cs),
(81,642,o),
(33,459,o),
(31,450,cs),
(17,393,o),
(171,460,o),
(183,516,cs),
(183,516,o),
(203,588,o),
(203,707,cs)
);
}
);
width = 233;
}
);
unicode = 8216;
},
{
glyphname = quoteright;
lastChange = "2024-02-12 17:04:37 +0000";
layers = (
{
layerId = m01;
shapes = (
{
closed = 1;
nodes = (
(30,420,o),
(152,486,o),
(152,515,cs),
(152,516,o),
(200,699,o),
(202,708,cs),
(216,766,o),
(62,695,o),
(50,642,cs),
(50,642,o),
(30,570,o),
(30,451,cs)
);
}
);
width = 233;
}
);
unicode = 8217;
},
{
glyphname = guillemetleft;
lastChange = "2024-02-12 17:54:42 +0000";
layers = (
{
layerId = m01;
shapes = (
{
closed = 1;
nodes = (
(413,479,o),
(351,512,o),
(271,449,cs),
(203,396,o),
(136,343,o),
(69,291,cs),
(-11,228,o),
(52,198,o),
(131,259,cs),
(199,312,o),
(266,365,o),
(333,417,cs)
);
},
{
closed = 1;
nodes = (
(158,357,o),
(14,267,o),
(31,230,cs),
(63,161,o),
(94,92,o),
(126,23,cs),
(143,-14,o),
(287,75,o),
(270,113,cs),
(238,182,o),
(207,251,o),
(175,320,cs)
);
},
{
closed = 1;
nodes = (
(662,479,o),
(600,512,o),
(520,449,cs),
(452,396,o),
(385,343,o),
(318,291,cs),
(238,228,o),
(301,198,o),
(380,259,cs),
(448,312,o),
(515,365,o),
(582,417,cs)
);
},
{
closed = 1;
nodes = (
(407,357,o),
(263,267,o),
(280,230,cs),
(312,161,o),
(343,92,o),
(375,23,cs),
(392,-14,o),
(536,75,o),
(519,113,cs),
(487,182,o),
(456,251,o),
(424,320,cs)
);
}
);
width = 669;
}
);
metricLeft = anglebracketleft;
metricRight = anglebracketleft;
unicode = 171;
},
{
glyphname = guillemetright;
lastChange = "2024-02-12 17:54:55 +0000";
layers = (
{
layerId = m01;
shapes = (
{
closed = 1;
nodes = (
(256,21,o),
(319,-9,o),
(398,52,cs),
(466,105,o),
(533,158,o),
(600,210,cs),
(680,272,o),
(618,305,o),
(538,242,cs),
(470,189,o),
(403,136,o),
(336,84,cs)
);
},
{
closed = 1;
nodes = (
(511,144,o),
(655,233,o),
(638,271,cs),
(606,340,o),
(575,409,o),
(543,478,cs),
(526,515,o),
(382,425,o),
(399,388,cs),
(431,319,o),
(462,250,o),
(494,181,cs)
);
},
{
closed = 1;
nodes = (
(7,21,o),
(70,-9,o),
(149,52,cs),
(217,105,o),
(284,158,o),
(351,210,cs),
(431,272,o),
(369,305,o),
(289,242,cs),
(221,189,o),
(154,136,o),
(87,84,cs)
);
},
{
closed = 1;
nodes = (
(262,144,o),
(406,233,o),
(389,271,cs),
(357,340,o),
(326,409,o),
(294,478,cs),
(277,515,o),
(133,425,o),
(150,388,cs),
(182,319,o),
(213,250,o),
(245,181,cs)
);
}
);
width = 669;
}
);
metricLeft = anglebracketright;
metricRight = anglebracketright;
unicode = 187;
},
{
glyphname = guilsinglleft;
lastChange = "2024-02-12 17:55:16 +0000";
layers = (
{
layerId = m01;
shapes = (
{
closed = 1;
nodes = (
(413,480,o),
(351,513,o),
(271,450,cs),
(203,397,o),
(136,344,o),
(69,292,cs),
(-11,229,o),
(52,199,o),
(131,260,cs),
(199,313,o),
(266,366,o),
(333,418,cs)
);
},
{
closed = 1;
nodes = (
(158,358,o),
(14,268,o),
(31,231,cs),
(63,162,o),
(94,93,o),
(126,24,cs),
(143,-13,o),
(287,76,o),
(270,114,cs),
(238,183,o),
(207,252,o),
(175,321,cs)
);
}
);
width = 420;
}
);
metricLeft = anglebracketleft;
metricRight = anglebracketleft;
unicode = 8249;
},
{
glyphname = guilsinglright;
lastChange = "2024-02-12 17:55:29 +0000";
layers = (
{
layerId = m01;
shapes = (
{
closed = 1;
nodes = (
(7,21,o),
(70,-9,o),
(149,52,cs),
(217,105,o),
(284,158,o),
(351,210,cs),
(431,272,o),
(369,305,o),
(289,242,cs),
(221,189,o),
(154,136,o),
(87,84,cs)
);
},
{
closed = 1;
nodes = (
(262,144,o),
(406,233,o),
(389,271,cs),
(357,340,o),
(326,409,o),
(294,478,cs),
(277,515,o),
(133,425,o),
(150,388,cs),
(182,319,o),
(213,250,o),
(245,181,cs)
);
}
);
width = 420;
}
);
metricLeft = anglebracketright;
metricRight = anglebracketright;
unicode = 8250;
},
{
glyphname = quotedbl;
lastChange = "2024-02-12 17:04:37 +0000";
layers = (
{
layerId = m01;
shapes = (
{
closed = 1;
nodes = (
(197,745,o),
(45,665,o),
(45,623,cs),
(45,583,o),
(30,453,o),
(30,447,cs),
(24,399,o),
(176,477,o),
(180,521,cs),
(181,522,o),
(197,663,o),
(197,701,cs)
);
},
{
closed = 1;
nodes = (
(369,745,o),
(217,665,o),
(217,623,cs),
(217,583,o),
(202,453,o),
(202,447,cs),
(196,399,o),
(348,477,o),
(352,521,cs),
(353,522,o),
(369,663,o),
(369,701,cs)
);
}
);
width = 399;
}
);
unicode = 34;
},
{
glyphname = quotesingle;
lastChange = "2024-02-12 17:04:37 +0000";
layers = (
{
layerId = m01;
shapes = (
{
closed = 1;
nodes = (
(198,746,o),
(46,665,o),
(46,622,cs),
(46,589,o),
(30,446,o),
(30,446,cs),
(24,399,o),
(177,477,o),
(182,522,cs),
(183,528,o),
(198,659,o),
(198,702,cs)
);
}
);
width = 228;
}
);
unicode = 39;
},
{
glyphname = florin;
lastChange = "2024-02-12 17:04:37 +0000";
layers = (
{
layerId = m01;
shapes = (
{
closed = 1;
nodes = (
(364,461,o),
(227,359,o),
(221,297,cs),
(217,248,o),
(216,198,o),
(212,148,cs),
(208,105,o),
(169,97,o),
(167,97,cs),
(152,97,o),
(137,96,o),
(122,96,cs),
(64,94,o),
(-48,-47,o),
(22,-46,cs),
(37,-45,o),
(52,-45,o),
(67,-45,cs),
(138,-44,o),
(207,17,o),
(258,83,cs),
(307,146,o),
(340,214,o),
(342,236,cs),
(347,290,o),
(354,344,o),
(359,399,cs)
);
},
{
closed = 1;
nodes = (
(214,237,o),
(351,339,o),
(358,401,cs),
(364,445,o),
(366,492,o),
(371,536,cs),
(371,538,o),
(378,572,o),
(457,572,cs),
(517,572,o),
(627,714,o),
(559,714,cs),
(498,714,o),
(411,667,o),
(343,603,cs),
(289,553,o),
(247,493,o),
(241,438,cs),
(235,391,o),
(227,348,o),
(222,301,cs)
);
},
{
closed = 1;
nodes = (
(110,417,o),
(60,338,o),
(105,341,cs),
(153,344,o),
(421,343,o),
(438,343,cs),
(476,344,o),
(528,423,o),
(484,423,cs),
(484,423,o),
(184,422,o),
(149,419,cs)
);
}
);
width = 550;
}
);
unicode = 402;
},
{
glyphname = baht;
lastChange = "2024-02-12 17:04:37 +0000";
layers = (
{
layerId = m01;
shapes = (
{
closed = 1;
nodes = (
(44,219,o),
(52,113,o),
(70,183,cs),
(99,296,o),
(238,341,o),
(312,295,cs),
(353,270,o),
(374,218,o),
(346,134,cs),
(332,89,o),
(434,207,o),
(448,248,cs),
(475,332,o),
(450,393,o),
(401,427,cs),
(302,496,o),
(106,456,o),
(60,279,cs)
);
},
{
closed = 1;
nodes = (
(194,398,o),
(157,290,o),
(236,336,cs),
(282,363,o),
(321,389,o),
(353,414,cs),
(518,540,o),
(526,643,o),
(468,693,cs),
(412,742,o),
(295,742,o),
(197,670,cs),
(144,631,o),
(97,571,o),
(68,487,cs),
(30,379,o),
(105,349,o),
(145,461,cs),
(173,543,o),
(314,581,o),
(362,561,cs),
(395,548,o),
(384,509,o),
(265,440,cs)
);
},
{
closed = 1;
nodes = (
(157,511,o),
(79,529,o),
(67,477,cs),
(48,390,o),
(27,221,o),
(31,143,cs),
(34,91,o),
(120,101,o),
(117,155,cs),
(114,211,o),
(128,380,o),
(146,461,cs)
);
},
{
closed = 1;
nodes = (
(475,348,o),
(436,326,o),
(410,240,cs),
(386,163,o),
(280,132,o),
(205,151,cs),
(144,167,o),
(103,214,o),
(142,295,cs),
(173,361,o),
(76,267,o),
(46,203,cs),
(7,121,o),
(44,44,o),
(111,9,cs),
(176,-25,o),
(268,-18,o),
(346,66,cs),
(385,108,o),
(420,170,o),
(446,254,cs)
);
},
{
closed = 1;
nodes = (
(107,-111,o),
(194,-69,o),
(213,-18,cs),
(248,71,o),
(341,788,o),
(341,791,cs),
(348,840,o),
(257,779,o),
(251,735,cs),
(248,711,o),
(161,29,o),
(129,-54,cs)
);
}
);
width = 549;
}
);
unicode = 3647;
},
{
glyphname = at;
lastChange = "2024-02-12 17:59:39 +0000";
layers = (
{
layerId = m01;
shapes = (
{
closed = 1;
nodes = (
(349,-12,o),
(489,134,o),
(464,141,cs),
(447,146,o),
(456,171,o),
(464,310,cs),
(467,349,o),
(475,369,o),
(475,423,cs),
(475,473,o),
(431,589,o),
(277,420,cs),
(206,342,o),
(211,289,o),
(287,372,cs),
(289,375,o),
(329,363,o),
(329,287,cs),
(329,233,o),
(322,217,o),
(320,174,cs),
(310,27,o),
(299,2,o),
(326,-5,cs)
);
},
{
closed = 1;
nodes = (
(357,495,o),
(267,427,o),
(229,357,cs),
(215,332,o),
(203,299,o),
(198,265,cs),
(188,194,o),
(176,116,o),
(163,13,cs),
(157,-38,o),
(249,31,o),
(255,75,cs),
(268,182,o),
(282,272,o),
(292,347,cs),
(299,399,o),
(311,409,o),
(317,421,cs)
);
},
{
closed = 1;
nodes = (
(58,281,o),
(0,152,o),
(24,153,cs),
(176,155,o),
(329,157,o),
(481,160,cs),
(501,160,o),
(558,289,o),
(535,288,cs),
(383,286,o),
(230,284,o),
(78,281,cs)
);
},
{
closed = 1;
nodes = (
(286,-120,o),
(293,-213,o),
(393,-149,cs),
(500,-81,o),
(736,137,o),
(770,379,cs),
(784,472,o),
(749,592,o),
(674,662,cs),
(591,740,o),
(459,757,o),
(288,610,cs),
(59,413,o),
(-1,171,o),
(11,158,cs),
(36,127,o),
(153,248,o),
(127,278,cs),
(127,279,o),
(181,418,o),
(258,484,cs),
(368,579,o),
(453,579,o),
(509,535,cs),
(573,484,o),
(601,374,o),
(588,283,cs),
(560,85,o),
(396,-49,o),
(381,-59,cs)
);
},
{
closed = 1;
nodes = (
(133,70,o),
(18,-16,o),
(15,-73,cs),
(10,-152,o),
(62,-196,o),
(132,-210,cs),
(218,-226,o),
(333,-198,o),
(407,-135,cs),
(478,-73,o),
(500,46,o),
(421,-21,cs),
(379,-58,o),
(292,-80,o),
(225,-73,cs),
(169,-67,o),
(126,-43,o),
(129,9,cs)
);
}
);
width = 793;
}
);
metricLeft = o;
metricRight = o;
unicode = 64;
},
{
glyphname = ampersand;
lastChange = "2024-02-12 18:00:32 +0000";
layers = (
{
layerId = m01;
shapes = (
{
closed = 1;
nodes = (
(229,298,o),
(348,362,o),
(401,439,cs),
(465,530,o),
(483,603,o),
(473,651,cs),
(455,731,o),
(357,741,o),
(254,653,cs),
(182,592,o),
(152,524,o),
(228,589,cs),
(250,607,o),
(305,596,o),
(326,550,cs),
(344,515,o),
(341,457,o),
(285,377,cs)
);
},
{
closed = 1;
nodes = (
(280,673,o),
(160,572,o),
(127,519,cs),
(79,443,o),
(97,361,o),
(176,275,cs),
(342,92,o),
(398,16,o),
(472,-14,cs),
(489,-21,o),
(616,107,o),
(598,114,cs),
(530,142,o),
(470,207,o),
(306,387,cs),
(241,459,o),
(219,577,o),
(243,615,cs)
);
},
{
closed = 1;
nodes = (
(281,378,o),
(259,423,o),
(164,345,cs),
(11,218,o),
(-16,98,o),
(30,34,cs),
(99,-62,o),
(330,-34,o),
(548,281,cs),
(602,361,o),
(529,350,o),
(472,269,cs),
(358,102,o),
(218,110,o),
(165,168,cs),
(134,203,o),
(132,255,o),
(186,299,cs)
);
},
{
closed = 1;
nodes = (
(457,437,o),
(397,267,o),
(418,267,cs),
(474,268,o),
(530,268,o),
(585,268,cs),
(605,268,o),
(667,438,o),
(645,438,cs),
(589,437,o),
(533,437,o),
(478,437,cs)
);
}
);
width = 690;
}
);
metricLeft = o;
metricRight = h;
unicode = 38;
},
{
glyphname = paragraph;
lastChange = "2024-02-12 18:00:20 +0000";
layers = (
{
layerId = m01;
shapes = (
{
closed = 1;
nodes = (
(506,747,o),
(417,688,o),
(406,641,cs),
(399,612,o),
(356,-1,o),
(356,-2,cs),
(353,-46,o),
(443,22,o),
(446,64,cs),
(448,92,o),
(485,658,o),
(494,697,cs)
);
},
{
closed = 1;
nodes = (
(379,747,o),
(290,688,o),
(279,641,cs),
(272,612,o),
(229,-1,o),
(229,-2,cs),
(226,-46,o),
(316,22,o),
(319,64,cs),
(321,92,o),
(358,658,o),
(367,697,cs)
);
},
{
closed = 1;
nodes = (
(310,598,o),
(406,738,o),
(344,714,cs),
(68,608,o),
(-23,435,o),
(20,337,cs),
(56,256,o),
(187,228,o),
(380,337,cs),
(430,365,o),
(505,516,o),
(446,483,cs),
(269,383,o),
(184,385,o),
(158,421,cs),
(129,462,o),
(177,547,o),
(258,578,cs)
);
}
);
width = 535;
}
);
metricLeft = o;
metricRight = h;
unicode = 182;
},
{
glyphname = section;
lastChange = "2024-02-12 17:59:57 +0000";
layers = (
{
layerId = m01;
shapes = (
{
closed = 1;
nodes = (
(50,118,o),
(-16,-46,o),
(-3,-72,cs),
(9,-94,o),
(45,-132,o),
(94,-145,cs),
(144,-158,o),
(206,-144,o),
(266,-59,cs),
(422,164,o),
(335,184,o),
(249,240,cs),
(120,325,o),
(136,391,o),
(147,406,cs),
(203,486,o),
(157,504,o),
(103,428,cs),
(-24,247,o),
(27,174,o),
(125,110,cs),
(267,17,o),
(247,11,o),
(244,7,cs),
(238,-1,o),
(199,-1,o),
(157,15,cs),
(121,29,o),
(83,53,o),
(63,94,cs)
);
},
{
closed = 1;
nodes = (
(373,505,o),
(437,673,o),
(426,697,cs),
(413,721,o),
(371,763,o),
(316,771,cs),
(268,779,o),
(211,761,o),
(157,684,cs),
(90,587,o),
(67,528,o),
(71,488,cs),
(76,436,o),
(125,416,o),
(174,384,cs),
(303,300,o),
(287,233,o),
(276,218,cs),
(222,141,o),
(263,116,o),
(320,196,cs),
(447,377,o),
(395,450,o),
(298,514,cs),
(156,607,o),
(176,613,o),
(179,618,cs),
(189,633,o),
(317,619,o),
(360,531,cs)
);
}
);
width = 453;
}
);
metricLeft = s;
metricRight = s;
unicode = 167;
},
{
glyphname = copyright;
lastChange = "2024-02-12 18:00:03 +0000";
layers = (
{
layerId = m01;
shapes = (
{
closed = 1;
nodes = (
(514,503,o),
(517,579,o),
(435,501,cs),
(290,362,o),
(248,237,o),
(266,152,cs),
(292,30,o),
(442,-13,o),
(587,98,cs),
(651,147,o),
(721,306,o),
(647,250,cs),
(558,182,o),
(495,183,o),
(456,213,cs),
(394,262,o),
(391,386,o),
(435,427,cs)
);
},
{
closed = 1;
nodes = (
(587,368,o),
(715,496,o),
(708,515,cs),
(700,541,o),
(675,572,o),
(639,587,cs),
(603,601,o),
(556,601,o),
(505,564,cs),
(454,529,o),
(366,388,o),
(427,432,cs),
(490,476,o),
(563,443,o),
(580,391,cs)
);
},
{
closed = 1;
nodes = (
(581,705,o),
(551,782,o),
(455,712,cs),
(300,599,o),
(52,347,o),
(14,147,cs),
(-3,53,o),
(36,-87,o),
(150,-155,cs),
(236,-206,o),
(364,-215,o),
(542,-131,cs),
(602,-103,o),
(672,46,o),
(602,13,cs),
(468,-50,o),
(373,-56,o),
(307,-31,cs),
(192,13,o),
(167,152,o),
(184,241,cs),
(213,397,o),
(390,565,o),
(487,636,cs)
);
},
{
closed = 1;
nodes = (
(464,-94,o),
(494,-171,o),
(590,-101,cs),
(745,12,o),
(957,227,o),
(1017,475,cs),
(1036,554,o),
(1009,658,o),
(934,726,cs),
(847,806,o),
(697,839,o),
(484,731,cs),
(424,701,o),
(355,552,o),
(428,589,cs),
(616,684,o),
(730,653,o),
(789,583,cs),
(838,526,o),
(850,443,o),
(835,383,cs),
(781,161,o),
(655,46,o),
(558,-25,cs)
);
}
);
width = 1043;
}
);
metricLeft = o;
metricRight = o;
unicode = 169;
},
{
glyphname = registered;
lastChange = "2024-02-12 17:04:37 +0000";
layers = (
{
layerId = m01;
shapes = (
{
closed = 1;
nodes = (
(383,593,o),
(312,579,o),
(286,530,cs),
(240,442,o),
(251,313,o),
(252,305,cs),
(255,266,o),
(353,329,o),
(350,367,cs),
(350,373,o),
(334,498,o),
(358,544,cs)
);
},
{
closed = 1;
nodes = (
(321,459,o),
(319,398,o),
(379,445,cs),
(673,676,o),
(345,746,o),
(273,503,cs),
(258,453,o),
(339,482,o),
(353,529,cs),
(375,602,o),
(441,554,o),
(377,503,cs)
);
},
{
closed = 1;
nodes = (
(257,426,o),
(261,350,o),
(301,392,cs),
(367,459,o),
(438,430,o),
(395,327,cs),
(372,272,o),
(472,301,o),
(493,351,cs),
(565,521,o),
(392,564,o),
(293,462,cs)
);
},
{
closed = 1;
nodes = (
(460,757,o),
(436,821,o),
(355,762,cs),
(244,682,o),
(59,507,o),
(32,342,cs),
(23,285,o),
(39,224,o),
(85,181,cs),
(144,127,o),
(254,104,o),
(427,162,cs),
(484,181,o),
(527,288,o),
(463,266,cs),
(349,228,o),
(275,233,o),
(230,259,cs),
(176,291,o),
(164,355,o),
(174,412,cs),
(195,543,o),
(310,648,o),
(381,700,cs)
);
},
{
closed = 1;
nodes = (
(346,181,o),
(370,117,o),
(451,176,cs),
(568,261,o),
(729,428,o),
(756,589,cs),
(764,644,o),
(748,709,o),
(703,754,cs),
(644,814,o),
(536,841,o),
(374,774,cs),
(317,749,o),
(281,644,o),
(348,672,cs),
(452,717,o),
(522,708,o),
(564,675,cs),
(610,639,o),
(623,574,o),
(614,519,cs),
(593,384,o),
(490,285,o),
(425,238,cs)
);
}
);
width = 735;
}
);
unicode = 174;
},
{
glyphname = trademark;
lastChange = "2024-02-12 17:04:37 +0000";
layers = (
{
layerId = m01;
shapes = (
{
closed = 1;
nodes = (
(332,574,o),
(386,714,o),
(345,709,cs),
(274,699,o),
(120,717,o),
(74,700,cs),
(53,692,o),
(14,547,o),
(38,556,cs),
(76,571,o),
(222,559,o),
(297,569,cs)
);
},
{
closed = 1;
nodes = (
(222,632,o),
(114,528,o),
(124,511,cs),
(131,496,o),
(89,315,o),
(110,266,cs),
(119,246,o),
(226,350,o),
(218,370,cs),
(199,413,o),
(245,590,o),
(232,613,cs)
);
},
{
closed = 1;
nodes = (
(477,717,o),
(370,611,o),
(389,600,cs),
(426,579,o),
(471,370,o),
(478,268,cs),
(480,240,o),
(588,344,o),
(586,368,cs),
(579,474,o),
(538,683,o),
(493,708,cs)
);
},
{
closed = 1;
nodes = (
(283,226,o),
(379,281,o),
(396,335,cs),
(438,470,o),
(459,661,o),
(459,663,cs),
(464,698,o),
(371,619,o),
(367,587,cs),
(366,579,o),
(340,409,o),
(300,281,cs)
);
},
{
closed = 1;
nodes = (
(458,283,o),
(551,332,o),
(587,380,cs),
(646,461,o),
(703,669,o),
(704,675,cs),
(717,715,o),
(607,619,o),
(596,581,cs),
(593,573,o),
(534,386,o),
(495,334,cs)
);
},
{
closed = 1;
nodes = (
(697,706,o),
(590,598,o),
(620,598,cs),
(626,598,o),
(617,329,o),
(653,265,cs),
(664,247,o),
(771,351,o),
(761,369,cs),
(723,435,o),
(740,706,o),
(720,706,cs)
);
}
);
width = 820;
}
);
unicode = 8482;
},
{
glyphname = degree;
lastChange = "2024-02-12 17:04:37 +0000";
layers = (
{
layerId = m01;
shapes = (
{
closed = 1;
nodes = (
(260,687,o),
(199,694,o),
(130,607,cs),
(34,487,o),
(36,398,o),
(75,355,cs),
(104,322,o),
(156,316,o),
(203,343,cs),
(253,372,o),
(328,523,o),
(269,489,cs),
(217,459,o),
(192,483,o),
(182,516,cs),
(174,547,o),
(178,584,o),
(186,595,cs)
);
},
{
closed = 1;
nodes = (
(186,412,o),
(178,315,o),
(247,391,cs),
(380,536,o),
(399,628,o),
(372,675,cs),
(343,724,o),
(265,725,o),
(214,688,cs),
(154,646,o),
(79,517,o),
(150,568,cs),
(197,600,o),
(222,585,o),
(236,559,cs),
(251,529,o),
(251,483,o),
(249,481,cs)
);
}
);
width = 433;
}
);
unicode = 176;
},
{
glyphname = bar;
lastChange = "2024-02-12 17:04:37 +0000";
layers = (
{
layerId = m01;
shapes = (
{
closed = 1;
nodes = (
(245,785,o),
(204,767,o),
(165,733,cs),
(131,704,o),
(97,664,o),
(94,636,cs),
(93,624,o),
(50,3,o),
(50,2,cs),
(48,-33,o),
(96,-6,o),
(138,34,cs),
(169,63,o),
(196,99,o),
(198,122,cs),
(199,131,o),
(240,735,o),
(242,752,cs)
);
}
);
width = 286;
}
);
unicode = 124;
},
{
glyphname = brokenbar;
lastChange = "2024-02-12 17:04:37 +0000";
layers = (
{
layerId = m01;
shapes = (
{
closed = 1;
nodes = (
(211,717,o),
(179,703,o),
(145,677,cs),
(108,650,o),
(69,610,o),
(68,591,cs),
(62,481,o),
(55,355,o),
(55,350,cs),
(54,334,o),
(95,365,o),
(133,403,cs),
(166,435,o),
(197,471,o),
(197,486,cs),
(198,490,o),
(204,588,o),
(210,697,cs)
);
},
{
closed = 1;
nodes = (
(194,379,o),
(161,359,o),
(127,328,cs),
(92,296,o),
(56,253,o),
(56,234,cs),
(56,228,o),
(50,8,o),
(50,5,cs),
(47,-19,o),
(81,1,o),
(111,29,cs),
(132,49,o),
(151,74,o),
(152,89,cs),
(153,95,o),
(194,346,o),
(194,358,cs)
);
}
);
width = 272;
}
);
unicode = 166;
},
{
glyphname = dagger;
lastChange = "2024-02-12 17:04:37 +0000";
layers = (
{
layerId = m01;
shapes = (
{
closed = 1;
nodes = (
(87,601,o),
(34,451,o),
(55,451,cs),
(162,451,o),
(269,451,o),
(376,452,cs),
(396,452,o),
(450,602,o),
(428,602,cs),
(321,602,o),
(214,602,o),
(107,601,cs)
);
},
{
closed = 1;
nodes = (
(302,547,o),
(260,525,o),
(222,490,cs),
(187,459,o),
(154,419,o),
(154,395,cs),
(154,386,o),
(156,18,o),
(156,12,cs),
(154,-11,o),
(181,0,o),
(206,20,cs),
(226,36,o),
(245,59,o),
(246,76,cs),
(247,85,o),
(302,503,o),
(302,519,cs)
);
},
{
pos = (172,578);
ref = period;
}
);
width = 451;
}
);
unicode = 8224;
},
{
glyphname = daggerdbl;
lastChange = "2024-02-12 17:04:37 +0000";
layers = (
{
layerId = m01;
shapes = (
{
closed = 1;
nodes = (
(67,296,o),
(14,146,o),
(35,146,cs),
(96,146,o),
(157,146,o),
(218,146,cs),
(264,146,o),
(310,147,o),
(356,147,cs),
(376,147,o),
(430,297,o),
(408,297,cs),
(358,297,o),
(307,297,o),
(256,297,cs),
(200,297,o),
(144,297,o),
(87,296,cs)
);
},
{
pos = (25,0);
ref = dagger;
}
);
width = 481;
}
);
unicode = 8225;
},
{
glyphname = cent;
lastChange = "2024-02-12 17:04:37 +0000";
layers = (
{
layerId = m01;
shapes = (
{
closed = 1;
nodes = (
(282,536,o),
(285,612,o),
(203,534,cs),
(52,389,o),
(13,260,o),
(37,174,cs),
(69,60,o),
(214,24,o),
(355,131,cs),
(419,180,o),
(489,339,o),
(415,283,cs),
(350,233,o),
(299,220,o),
(262,229,cs),
(227,236,o),
(202,262,o),
(188,294,cs),
(163,352,o),
(170,429,o),
(203,460,cs)
);
},
{
closed = 1;
nodes = (
(372,408,o),
(500,536,o),
(493,555,cs),
(484,583,o),
(455,618,o),
(413,630,cs),
(379,641,o),
(336,637,o),
(290,604,cs),
(239,569,o),
(151,428,o),
(212,472,cs),
(275,516,o),
(348,483,o),
(365,431,cs)
);
},
{
closed = 1;
nodes = (
(129,-86,o),
(215,-48,o),
(236,5,cs),
(268,85,o),
(377,724,o),
(378,727,cs),
(387,776,o),
(296,720,o),
(288,673,cs),
(284,651,o),
(181,45,o),
(152,-29,cs)
);
}
);
width = 512;
}
);
unicode = 162;
},
{
glyphname = currency;
lastChange = "2024-02-12 17:04:37 +0000";
layers = (
{
layerId = m01;
shapes = (
{
closed = 1;
nodes = (
(329,582,o),
(268,589,o),
(199,502,cs),
(92,368,o),
(87,260,o),
(127,202,cs),
(162,152,o),
(232,139,o),
(298,177,cs),
(348,206,o),
(423,357,o),
(364,323,cs),
(295,283,o),
(257,307,o),
(241,349,cs),
(224,395,o),
(233,462,o),
(255,490,cs)
);
},
{
closed = 1;
nodes = (
(284,250,o),
(278,156,o),
(347,232,cs),
(486,384,o),
(517,492,o),
(498,555,cs),
(473,635,o),
(368,647,o),
(291,592,cs),
(231,550,o),
(156,421,o),
(227,472,cs),
(289,515,o),
(329,498,o),
(350,462,cs),
(375,419,o),
(373,349,o),
(347,320,cs)
);
},
{
closed = 1;
nodes = (
(453,65,o),
(574,185,o),
(548,217,cs),
(509,266,o),
(478,297,o),
(440,345,cs),
(416,375,o),
(272,284,o),
(298,251,cs),
(344,195,o),
(383,152,o),
(428,97,cs)
);
},
{
closed = 1;
nodes = (
(293,312,o),
(250,364,o),
(171,285,cs),
(159,273,o),
(73,162,o),
(73,162,cs),
(5,74,o),
(87,66,o),
(153,152,cs),
(157,158,o),
(213,231,o),
(213,231,cs)
);
},
{
closed = 1;
nodes = (
(608,704,o),
(565,756,o),
(486,677,cs),
(474,665,o),
(388,554,o),
(388,554,cs),
(320,466,o),
(402,458,o),
(468,544,cs),
(472,550,o),
(528,623,o),
(528,623,cs)
);
},
{
closed = 1;
nodes = (
(178,408,o),
(298,529,o),
(282,548,cs),
(241,600,o),
(196,660,o),
(154,711,cs),
(129,742,o),
(7,624,o),
(34,591,cs),
(76,538,o),
(119,480,o),
(162,428,cs)
);
}
);
width = 621;
}
);
unicode = 164;
},
{
glyphname = dollar;
lastChange = "2024-02-12 17:04:37 +0000";
layers = (
{
layerId = m01;
shapes = (
{
closed = 1;
nodes = (
(55.284,270.377,o),
(-10.649,106.354,o),
(2.392,80.271,cs),
(14,57,o),
(43,28,o),
(81,9,cs),
(143,-21,o),
(231,-22,o),
(308.25,87.622,cs),
(459.383,301.023,o),
(379.455,367.773,o),
(271.477,436.33,cs),
(255.064,446.752,o),
(169.253,288.634,o),
(186.523,277.67,cs),
(332.123,185.225,o),
(294.174,156.626,o),
(289.75,150.378,cs),
(279,136,o),
(223,137,o),
(168,160,cs),
(128,176,o),
(88,204,o),
(67.608,245.729,cs)
);
},
{
closed = 1;
nodes = (
(62.814,-105.201,o),
(153.539,-70.034,o),
(176.34,-20.631,cs),
(186.728,1.875,o),
(194.392,34.348,o),
(206.176,84.268,cs),
(211.53,106.945,o),
(205.982,132.744,o),
(211.144,154.938,cs),
(244.445,298.127,o),
(285.332,507.075,o),
(309.188,648.164,cs),
(311.132,659.663,o),
(320.363,666.455,o),
(321.748,674.012,cs),
(335.14,747.078,o),
(343.262,786.619,o),
(343.617,788.361,cs),
(353.976,839.212,o),
(264.074,785.209,o),
(254.383,737.639,cs),
(254.14,736.445,o),
(245.16,692.413,o),
(232.252,621.988,cs),
(229.251,605.615,o),
(233.253,588.272,o),
(230.812,573.836,cs),
(206.866,432.215,o),
(166.28,224.774,o),
(132.856,81.062,cs),
(128.68,63.102,o),
(114.943,50.944,o),
(111.824,37.732,cs),
(100.875,-8.647,o),
(89.272,-47.875,o),
(87.66,-51.369,cs)
);
},
{
closed = 1;
nodes = (
(187.088,247.803,o),
(272.049,406.459,o),
(255.477,417.33,cs),
(110.202,512.631,o),
(149.332,552.291,o),
(151.434,555.243,cs),
(164,573,o),
(209,567,o),
(256,544,cs),
(297,523,o),
(338,490,o),
(359.701,449.912,cs),
(371.926,426.819,o),
(434.671,596.496,o),
(424.299,616.088,cs),
(409,644,o),
(357,700,o),
(293,710,cs),
(245,717,o),
(191,700,o),
(140.566,628.757,cs),
(-7.196,421.267,o),
(66.459,326.935,o),
(170.523,258.67,cs)
);
}
);
width = 455;
}
);
unicode = 36;
},
{
glyphname = euro;
lastChange = "2024-02-12 17:04:37 +0000";
layers = (
{
layerId = m01;
shapes = (
{
closed = 1;
nodes = (
(364,647,o),
(287,629,o),
(225,543,cs),
(97,365,o),
(73,195,o),
(112,89,cs),
(155,-28,o),
(275,-65,o),
(418,56,cs),
(486,114,o),
(546,266,o),
(468,200,cs),
(371,117,o),
(295,137,o),
(255,203,cs),
(206,284,o),
(211,434,o),
(297,553,cs)
);
},
{
closed = 1;
nodes = (
(431,484,o),
(558,611,o),
(548,628,cs),
(535,650,o),
(511,701,o),
(463,711,cs),
(433,718,o),
(393,707,o),
(340,662,cs),
(281,612,o),
(209,483,o),
(278,542,cs),
(346,599,o),
(391,549,o),
(420,502,cs)
);
},
{
closed = 1;
nodes = (
(84,451,o),
(33,371,o),
(78,374,cs),
(136,377,o),
(413,376,o),
(432,376,cs),
(470,377,o),
(522,456,o),
(478,456,cs),
(478,456,o),
(163,455,o),
(122,452,cs)
);
},
{
closed = 1;
nodes = (
(44,312,o),
(-7,232,o),
(38,235,cs),
(96,238,o),
(373,237,o),
(392,237,cs),
(430,238,o),
(482,317,o),
(438,317,cs),
(438,317,o),
(123,316,o),
(82,313,cs)
);
}
);
width = 579;
}
);
unicode = 8364;
},
{
glyphname = hryvnia;
lastChange = "2024-02-12 17:04:37 +0000";
layers = (
{
layerId = m01;
shapes = (
{
closed = 1;
nodes = (
(385,325,o),
(306,346,o),
(214,280,cs),
(81,184,o),
(43,108,o),
(54,57,cs),
(70,-23,o),
(206,-40,o),
(281,27,cs),
(341,82,o),
(389,211,o),
(319,149,cs),
(284,117,o),
(215,116,o),
(208,149,cs),
(203,171,o),
(223,207,o),
(296,260,cs)
);
},
{
closed = 1;
nodes = (
(81,451,o),
(30,372,o),
(75,375,cs),
(117,377,o),
(347,377,o),
(356,377,cs),
(394,378,o),
(446,457,o),
(402,457,cs),
(402,457,o),
(158,456,o),
(119,453,cs)
);
},
{
closed = 1;
nodes = (
(44,315,o),
(-7,236,o),
(38,239,cs),
(78,241,o),
(311,241,o),
(320,241,cs),
(358,242,o),
(410,321,o),
(366,321,cs),
(366,321,o),
(120,320,o),
(82,317,cs)
);
},
{
closed = 1;
nodes = (
(68,371,o),
(151,352,o),
(240,416,cs),
(414,542,o),
(427,634,o),
(381,680,cs),
(337,725,o),
(236,726,o),
(175,673,cs),
(115,620,o),
(65,488,o),
(135,549,cs),
(163,574,o),
(207,581,o),
(232,569,cs),
(261,553,o),
(260,510,o),
(158,436,cs)
);
}
);
width = 449;
}
);
unicode = 8372;
},
{
glyphname = ruble;
lastChange = "2024-02-12 17:04:37 +0000";
layers = (
{
layerId = m01;
shapes = (
{
closed = 1;
nodes = (
(22,202,o),
(-27,123,o),
(19,127,cs),
(46,129,o),
(270,129,o),
(278,129,cs),
(316,130,o),
(368,209,o),
(324,209,cs),
(324,209,o),
(89,208,o),
(61,205,cs)
);
},
{
closed = 1;
nodes = (
(63,329,o),
(14,250,o),
(60,255,cs),
(78,256,o),
(281,254,o),
(283,254,cs),
(326,254,o),
(365,340,o),
(319,340,cs),
(309,340,o),
(134,337,o),
(102,333,cs)
);
},
{
closed = 1;
nodes = (
(395,731,o),
(274,674,o),
(220,610,cs),
(161,543,o),
(134,412,o),
(122,289,cs),
(108,143,o),
(114,9,o),
(114,3,cs),
(115,-42,o),
(256,69,o),
(256,107,cs),
(256,117,o),
(256,246,o),
(268,379,cs),
(279,498,o),
(299,620,o),
(336,664,cs)
);
},
{
closed = 1;
nodes = (
(236,298,o),
(259,227,o),
(319,268,cs),
(375,306,o),
(527,432,o),
(532,564,cs),
(534,623,o),
(489,728,o),
(386,715,cs),
(336,708,o),
(178,599,o),
(242,607,cs),
(339,620,o),
(375,521,o),
(374,490,cs),
(371,406,o),
(341,368,o),
(293,336,cs)
);
}
);
width = 520;
}
);
unicode = 8381;
},
{
glyphname = rupeeIndian;
lastChange = "2024-02-12 17:04:37 +0000";
layers = (
{
layerId = m01;
shapes = (
{
closed = 1;
nodes = (
(139,374,o),
(59,277,o),
(156,305,cs),
(202,318,o),
(251,316,o),
(281,286,cs),
(317,250,o),
(326,174,o),
(271,41,cs),
(248,-14,o),
(289,-8,o),
(334,23,cs),
(367,46,o),
(403,82,o),
(417,117,cs),
(481,272,o),
(483,358,o),
(441,397,cs),
(402,433,o),
(326,428,o),
(226,399,cs)
);
},
{
closed = 1;
nodes = (
(64,295,o),
(156,282,o),
(242,347,cs),
(384,456,o),
(441,546,o),
(447,610,cs),
(454,704,o),
(348,740,o),
(232,698,cs),
(205,688,o),
(178,675,o),
(151,656,cs),
(83,610,o),
(92,556,o),
(165,606,cs),
(203,631,o),
(279,624,o),
(298,576,cs),
(314,535,o),
(286,464,o),
(150,361,cs)
);
},
{
closed = 1;
nodes = (
(284,711,o),
(235,631,o),
(281,636,cs),
(305,638,o),
(459,638,o),
(465,638,cs),
(503,639,o),
(555,718,o),
(511,718,cs),
(511,718,o),
(348,717,o),
(323,714,cs)
);
},
{
closed = 1;
nodes = (
(103,543,o),
(53,464,o),
(98,467,cs),
(143,470,o),
(408,469,o),
(425,469,cs),
(463,470,o),
(515,549,o),
(471,549,cs),
(471,549,o),
(175,548,o),
(142,545,cs)
);
}
);
width = 578;
}
);
unicode = 8377;
},
{
glyphname = sheqel;
lastChange = "2024-02-12 18:37:30 +0000";
layers = (
{
layerId = m01;
shapes = (
{
closed = 1;
nodes = (
(205,761,o),
(74,660,o),
(70,601,cs),
(68,572,o),
(40,4,o),
(40,4,cs),
(37,-60,o),
(167,39,o),
(170,100,cs),
(171,115,o),
(197,655,o),
(200,695,cs)
);
},
{
closed = 1;
nodes = (
(133,715,o),
(27,581,o),
(94,581,cs),
(160,581,o),
(226,582,o),
(293,583,cs),
(340,584,o),
(377,554,o),
(374,516,cs),
(367,400,o),
(366,285,o),
(361,172,cs),
(359,137,o),
(485,255,o),
(487,288,cs),
(492,398,o),
(499,505,o),
(506,612,cs),
(511,687,o),
(477,716,o),
(393,715,cs),
(326,714,o),
(256,715,o),
(188,715,cs)
);
},
{
closed = 1;
nodes = (
(205,761,o),
(74,660,o),
(70,601,cs),
(68,572,o),
(40,4,o),
(40,4,cs),
(37,-60,o),
(167,39,o),
(170,100,cs),
(171,115,o),
(197,655,o),
(200,695,cs)
);
},
{
closed = 1;
nodes = (
(133,715,o),
(27,581,o),
(94,581,cs),
(160,581,o),
(226,582,o),
(293,583,cs),
(340,584,o),
(377,554,o),
(374,516,cs),
(367,400,o),
(366,285,o),
(361,172,cs),
(359,137,o),
(485,255,o),
(487,288,cs),
(492,398,o),
(499,505,o),
(506,612,cs),
(511,687,o),
(477,716,o),
(393,715,cs),
(326,714,o),
(256,715,o),
(188,715,cs)
);
},
{
closed = 1;
nodes = (
(496,-59,o),
(627,37,o),
(634,99,cs),
(638,129,o),
(664,696,o),
(664,697,cs),
(667,761,o),
(536,659,o),
(534,601,cs),
(533,586,o),
(508,47,o),
(504,7,cs)
);
},
{
closed = 1;
nodes = (
(573,-14,o),
(676,120,o),
(610,120,cs),
(544,120,o),
(478,119,o),
(411,118,cs),
(364,117,o),
(327,147,o),
(330,185,cs),
(337,301,o),
(338,416,o),
(343,529,cs),
(345,565,o),
(218,443,o),
(217,413,cs),
(212,303,o),
(205,196,o),
(198,89,cs),
(193,14,o),
(227,-15,o),
(311,-14,cs),
(378,-13,o),
(448,-14,o),
(516,-14,cs)
);
},
{
closed = 1;
nodes = (
(496,-59,o),
(627,37,o),
(634,99,cs),
(638,129,o),
(664,696,o),
(664,697,cs),
(667,761,o),
(536,659,o),
(534,601,cs),
(533,586,o),
(508,47,o),
(504,7,cs)
);
},
{
closed = 1;
nodes = (
(573,-14,o),
(676,120,o),
(610,120,cs),
(544,120,o),
(478,119,o),
(411,118,cs),
(364,117,o),
(327,147,o),
(330,185,cs),
(337,301,o),
(338,416,o),
(343,529,cs),
(345,565,o),
(218,443,o),
(217,413,cs),
(212,303,o),
(205,196,o),
(198,89,cs),
(193,14,o),
(227,-15,o),
(311,-14,cs),
(378,-13,o),
(448,-14,o),
(516,-14,cs)
);
}
);
width = 714;
}
);
unicode = 8362;
},
{
glyphname = sterling;
lastChange = "2024-02-12 17:04:37 +0000";
layers = (
{
layerId = m01;
shapes = (
{
closed = 1;
nodes = (
(328,664,o),
(291,688,o),
(240,642,cs),
(104,522,o),
(117,444,o),
(100,308,cs),
(90,225,o),
(65,141,o),
(55,129,cs),
(16,84,o),
(81,90,o),
(117,131,cs),
(171,193,o),
(172,265,o),
(184,356,cs),
(201,494,o),
(210,560,o),
(278,620,cs)
);
},
{
closed = 1;
nodes = (
(56,393,o),
(6,314,o),
(51,317,cs),
(85,319,o),
(299,319,o),
(307,319,cs),
(345,320,o),
(397,399,o),
(353,399,cs),
(353,399,o),
(128,398,o),
(95,395,cs)
);
},
{
closed = 1;
nodes = (
(61,179,o),
(-12,1,o),
(25,-1,cs),
(45,-2,o),
(229,-1,o),
(350,0,cs),
(384,0,o),
(445,170,o),
(406,170,cs),
(289,169,o),
(111,176,o),
(95,177,cs)
);
},
{
closed = 1;
nodes = (
(350,486,o),
(477,613,o),
(467,630,cs),
(454,651,o),
(431,700,o),
(387,712,cs),
(356,721,o),
(315,712,o),
(259,664,cs),
(200,614,o),
(128,485,o),
(197,544,cs),
(265,601,o),
(310,551,o),
(339,504,cs)
);
}
);
width = 445;
}
);
unicode = 163;
},
{
glyphname = won;
lastChange = "2024-02-12 18:35:38 +0000";
layers = (
{
layerId = m01;
shapes = (
{
closed = 1;
nodes = (
(403,-17,o),
(523,103,o),
(514,120,cs),
(483,176,o),
(475,308,o),
(469,434,cs),
(463,563,o),
(459,686,o),
(431,712,cs),
(418,725,o),
(296,606,o),
(311,592,cs),
(359,546,o),
(327,119,o),
(392,2,cs)
);
},
{
closed = 1;
nodes = (
(755,750,o),
(637,679,o),
(615,626,cs),
(587,558,o),
(563,492,o),
(542,430,cs),
(468,210,o),
(437,44,o),
(436,40,cs),
(429,8,o),
(539,124,o),
(546,158,cs),
(548,165,o),
(575,271,o),
(633,435,cs),
(659,509,o),
(692,595,o),
(731,690,cs)
);
},
{
closed = 1;
nodes = (
(166,-17,o),
(286,103,o),
(277,120,cs),
(242,183,o),
(236,344,o),
(229,482,cs),
(223,593,o),
(217,689,o),
(193,712,cs),
(180,725,o),
(58,606,o),
(73,592,cs),
(98,567,o),
(101,435,o),
(109,298,cs),
(115,179,o),
(125,56,o),
(155,2,cs)
);
},
{
closed = 1;
nodes = (
(459,640,o),
(363,612,o),
(355,589,cs),
(336,539,o),
(315,473,o),
(295,404,cs),
(245,235,o),
(200,48,o),
(198,39,cs),
(188,4,o),
(296,119,o),
(304,151,cs),
(307,161,o),
(387,453,o),
(449,615,cs)
);
},
{
closed = 1;
nodes = (
(54,442,o),
(3,363,o),
(47,364,cs),
(134,367,o),
(619,367,o),
(650,367,cs),
(688,368,o),
(740,447,o),
(696,447,cs),
(696,447,o),
(152,446,o),
(93,444,cs)
);
}
);
width = 704;
}
);
metricLeft = w;
metricRight = w;
unicode = 8361;
},
{
glyphname = yen;
lastChange = "2024-02-12 18:37:41 +0000";
layers = (
{
layerId = m01;
shapes = (
{
closed = 1;
nodes = (
(610,699,o),
(595,718,o),
(564,710,cs),
(541,703,o),
(509,682,o),
(483,646,cs),
(275,361,o),
(170,37,o),
(169,32,cs),
(154,-10,o),
(185,-7,o),
(220,15,cs),
(251,34,o),
(284,68,o),
(295,100,cs),
(300,113,o),
(396,404,o),
(573,648,cs)
);
},
{
closed = 1;
nodes = (
(336,357,o),
(453,486,o),
(409,468,cs),
(373,454,o),
(340,507,o),
(307,567,cs),
(265,641,o),
(223,727,o),
(175,713,cs),
(143,704,o),
(20,574,o),
(59,585,cs),
(100,597,o),
(139,504,o),
(183,429,cs),
(216,371,o),
(253,324,o),
(297,342,cs)
);
},
{
closed = 1;
nodes = (
(84,451,o),
(33,371,o),
(78,374,cs),
(136,377,o),
(471,376,o),
(492,376,cs),
(530,377,o),
(582,456,o),
(538,456,cs),
(538,456,o),
(163,455,o),
(122,452,cs)
);
},
{
closed = 1;
nodes = (
(44,312,o),
(-7,232,o),
(38,235,cs),
(96,238,o),
(431,237,o),
(452,237,cs),
(490,238,o),
(542,317,o),
(498,317,cs),
(498,317,o),
(123,316,o),
(82,313,cs)
);
}
);
width = 550;
}
);
metricLeft = y;
metricRight = y;
unicode = 165;
},
{
glyphname = plus;
lastChange = "2024-02-12 17:04:37 +0000";
layers = (
{
layerId = m01;
shapes = (
{
closed = 1;
nodes = (
(94,356,o),
(33,186,o),
(54,186,cs),
(198,187,o),
(343,187,o),
(487,187,cs),
(506,187,o),
(568,357,o),
(547,357,cs),
(403,356,o),
(258,356,o),
(114,356,cs)
);
},
{
closed = 1;
nodes = (
(393,574,o),
(250,438,o),
(243,403,cs),
(241,396,o),
(216,6,o),
(216,5,cs),
(213,-25,o),
(356,109,o),
(358,141,cs),
(359,147,o),
(383,527,o),
(385,537,cs)
);
}
);
width = 601;
}
);
unicode = 43;
},
{
glyphname = minus;
lastChange = "2024-02-12 17:04:37 +0000";
layers = (
{
layerId = m01;
shapes = (
{
closed = 1;
nodes = (
(94,353,o),
(33,183,o),
(54,183,cs),
(198,184,o),
(343,184,o),
(487,184,cs),
(506,184,o),
(568,354,o),
(547,354,cs),
(403,353,o),
(258,353,o),
(114,353,cs)
);
}
);
width = 601;
}
);
unicode = 8722;
},
{
glyphname = multiply;
lastChange = "2024-02-12 17:04:37 +0000";
layers = (
{
layerId = m01;
shapes = (
{
closed = 1;
nodes = (
(510,482,o),
(509,513,o),
(487,517,cs),
(470,520,o),
(440,505,o),
(408,470,cs),
(393,454,o),
(321,363,o),
(245,270,cs),
(155,157,o),
(62,39,o),
(61,38,cs),
(22,-10,o),
(29,-36,o),
(55,-34,cs),
(75,-33,o),
(107,-15,o),
(137,24,cs),
(142,29,o),
(215,122,o),
(292,217,cs),
(374,320,o),
(459,426,o),
(466,434,cs)
);
},
{
closed = 1;
nodes = (
(383,-42,o),
(418,-31,o),
(451,-11,cs),
(491,12,o),
(528,48,o),
(514,66,cs),
(464,129,o),
(415,192,o),
(365,255,cs),
(298,340,o),
(231,425,o),
(165,510,cs),
(154,523,o),
(121,513,o),
(88,495,cs),
(47,471,o),
(9,435,o),
(23,416,cs),
(89,332,o),
(155,249,o),
(220,165,cs),
(271,101,o),
(322,36,o),
(372,-28,cs)
);
}
);
width = 567;
}
);
unicode = 215;
},
{
glyphname = divide;
lastChange = "2024-02-12 18:33:53 +0000";
layers = (
{
layerId = m01;
shapes = (
{
closed = 1;
nodes = (
(94,367,o),
(33,197,o),
(54,197,cs),
(215,198,o),
(376,198,o),
(537,198,cs),
(556,198,o),
(618,368,o),
(597,368,cs),
(436,367,o),
(275,367,o),
(114,367,cs)
);
},
{
pos = (217,-19);
ref = period;
},
{
pos = (258,406);
ref = period;
}
);
width = 651;
}
);
unicode = 247;
},
{
glyphname = equal;
lastChange = "2024-02-12 17:04:37 +0000";
layers = (
{
layerId = m01;
shapes = (
{
closed = 1;
nodes = (
(100,462,o),
(39,292,o),
(60,292,cs),
(204,293,o),
(349,293,o),
(493,293,cs),
(512,293,o),
(574,463,o),
(553,463,cs),
(409,462,o),
(264,462,o),
(120,462,cs)
);
},
{
closed = 1;
nodes = (
(64,209,o),
(3,39,o),
(24,39,cs),
(168,40,o),
(313,40,o),
(457,40,cs),
(476,40,o),
(538,210,o),
(517,210,cs),
(373,209,o),
(228,209,o),
(84,209,cs)
);
}
);
width = 607;
}
);
unicode = 61;
},
{
glyphname = notequal;
lastChange = "2024-02-12 17:04:37 +0000";
layers = (
{
layerId = m01;
shapes = (
{
pos = (12,13);
ref = equal;
},
{
closed = 1;
nodes = (
(544,587,o),
(458,589,o),
(394,499,cs),
(364,457,o),
(104,20,o),
(102,16,cs),
(50,-72,o),
(155,-45,o),
(206,40,cs),
(216,57,o),
(471,485,o),
(482,501,cs)
);
}
);
width = 607;
}
);
unicode = 8800;
},
{
glyphname = greater;
lastChange = "2024-02-12 17:04:37 +0000";
layers = (
{
layerId = m01;
shapes = (
{
closed = 1;
nodes = (
(46,23,o),
(93,-20,o),
(177,40,cs),
(271,107,o),
(365,174,o),
(459,241,cs),
(541,299,o),
(497,345,o),
(411,283,cs),
(317,216,o),
(223,149,o),
(129,82,cs)
);
},
{
closed = 1;
nodes = (
(394,190,o),
(535,285,o),
(498,311,cs),
(404,378,o),
(310,445,o),
(216,511,cs),
(185,534,o),
(43,439,o),
(80,413,cs),
(174,346,o),
(268,279,o),
(362,213,cs)
);
}
);
width = 579;
}
);
unicode = 62;
},
{
glyphname = less;
lastChange = "2024-02-12 17:04:37 +0000";
layers = (
{
layerId = m01;
shapes = (
{
closed = 1;
nodes = (
(533,500,o),
(489,545,o),
(403,484,cs),
(309,417,o),
(215,350,o),
(120,283,cs),
(37,224,o),
(83,181,o),
(168,241,cs),
(262,308,o),
(356,375,o),
(451,442,cs)
);
},
{
closed = 1;
nodes = (
(185,334,o),
(43,239,o),
(81,213,cs),
(175,146,o),
(269,79,o),
(364,13,cs),
(396,-10,o),
(537,85,o),
(500,111,cs),
(406,178,o),
(312,245,o),
(217,311,cs)
);
}
);
width = 580;
}
);
unicode = 60;
},
{
glyphname = greaterequal;
lastChange = "2024-02-12 17:04:37 +0000";
layers = (
{
layerId = m01;
shapes = (
{
closed = 1;
nodes = (
(126,236,o),
(113,161,o),
(209,201,cs),
(288,234,o),
(367,268,o),
(446,301,cs),
(535,338,o),
(548,413,o),
(452,373,cs),
(373,340,o),
(294,306,o),
(215,273,cs)
);
},
{
closed = 1;
nodes = (
(470,288,o),
(584,415,o),
(544,433,cs),
(456,474,o),
(368,514,o),
(280,555,cs),
(243,572,o),
(88,466,o),
(134,445,cs),
(234,398,o),
(334,352,o),
(434,305,cs)
);
},
{
closed = 1;
nodes = (
(113,134,o),
(58,-20,o),
(79,-20,cs),
(203,-20,o),
(328,-20,o),
(452,-19,cs),
(472,-19,o),
(528,135,o),
(506,135,cs),
(382,135,o),
(257,135,o),
(133,134,cs)
);
}
);
width = 627;
}
);
unicode = 8805;
},
{
glyphname = lessequal;
lastChange = "2024-02-12 17:04:37 +0000";
layers = (
{
layerId = m01;
shapes = (
{
closed = 1;
nodes = (
(113,119,o),
(58,-35,o),
(79,-35,cs),
(203,-35,o),
(328,-35,o),
(452,-34,cs),
(472,-34,o),
(528,120,o),
(506,120,cs),
(382,120,o),
(257,120,o),
(133,119,cs)
);
},
{
closed = 1;
nodes = (
(561,502,o),
(582,584,o),
(490,541,cs),
(396,498,o),
(301,454,o),
(207,410,cs),
(122,371,o),
(101,289,o),
(193,332,cs),
(287,375,o),
(382,419,o),
(476,463,cs)
);
},
{
closed = 1;
nodes = (
(238,443,o),
(90,337,o),
(135,316,cs),
(229,272,o),
(323,229,o),
(418,185,cs),
(457,167,o),
(603,274,o),
(558,295,cs),
(464,339,o),
(370,382,o),
(275,426,cs)
);
}
);
width = 642;
}
);
unicode = 8804;
},
{
glyphname = plusminus;
lastChange = "2024-02-12 17:04:37 +0000";
layers = (
{
layerId = m01;
shapes = (
{
closed = 1;
nodes = (
(59,119,o),
(4,-35,o),
(25,-35,cs),
(149,-35,o),
(274,-35,o),
(398,-34,cs),
(418,-34,o),
(474,120,o),
(452,120,cs),
(328,120,o),
(203,120,o),
(79,119,cs)
);
},
{
closed = 1;
nodes = (
(66,454,o),
(5,284,o),
(26,284,cs),
(170,285,o),
(315,285,o),
(459,285,cs),
(478,285,o),
(540,455,o),
(519,455,cs),
(375,454,o),
(230,454,o),
(86,454,cs)
);
},
{
closed = 1;
nodes = (
(362,618,o),
(219,482,o),
(212,447,cs),
(210,440,o),
(191,158,o),
(191,157,cs),
(188,127,o),
(331,261,o),
(333,293,cs),
(334,297,o),
(353,573,o),
(354,581,cs)
);
}
);
width = 573;
}
);
unicode = 177;
},
{
glyphname = asciitilde;
lastChange = "2024-02-12 17:04:37 +0000";
layers = (
{
layerId = m01;
shapes = (
{
closed = 1;
nodes = (
(533,266,o),
(582,436,o),
(536,406,cs),
(399,319,o),
(389,362,o),
(341,397,cs),
(275,446,o),
(224,477,o),
(89,388,cs),
(52,364,o),
(2,193,o),
(49,224,cs),
(182,311,o),
(207,280,o),
(275,231,cs),
(312,204,o),
(349,149,o),
(494,242,cs)
);
}
);
width = 605;
}
);
unicode = 126;
},
{
glyphname = logicalnot;
lastChange = "2024-02-12 17:04:37 +0000";
layers = (
{
layerId = m01;
shapes = (
{
closed = 1;
nodes = (
(94,423,o),
(33,253,o),
(54,253,cs),
(197,254,o),
(341,254,o),
(484,254,cs),
(503,254,o),
(565,424,o),
(544,424,cs),
(401,423,o),
(257,423,o),
(114,423,cs)
);
},
{
closed = 1;
nodes = (
(557,443,o),
(414,308,o),
(405,272,cs),
(403,265,o),
(387,9,o),
(387,8,cs),
(385,-22,o),
(527,112,o),
(529,144,cs),
(530,148,o),
(546,398,o),
(547,404,cs)
);
}
);
width = 598;
}
);
unicode = 172;
},
{
glyphname = asciicircum;
lastChange = "2024-02-12 17:04:37 +0000";
layers = (
{
layerId = m01;
shapes = (
{
closed = 1;
nodes = (
(405,290,o),
(540,373,o),
(520,409,cs),
(468,504,o),
(416,599,o),
(363,693,cs),
(344,728,o),
(209,644,o),
(229,609,cs),
(281,514,o),
(333,419,o),
(386,325,cs)
);
},
{
closed = 1;
nodes = (
(393,738,o),
(254,688,o),
(220,627,cs),
(165,531,o),
(111,434,o),
(56,338,cs),
(18,272,o),
(159,327,o),
(192,384,cs),
(247,480,o),
(301,577,o),
(356,673,cs)
);
}
);
width = 572;
}
);
unicode = 94;
},
{
glyphname = infinity;
lastChange = "2024-02-12 17:04:37 +0000";
layers = (
{
layerId = m01;
shapes = (
{
closed = 1;
nodes = (
(237,462,o),
(187,453,o),
(120,380,cs),
(34,288,o),
(35,206,o),
(83,167,cs),
(128,131,o),
(212,132,o),
(308,194,cs),
(375,237,o),
(452,373,o),
(374,322,cs),
(297,272,o),
(244,280,o),
(211,303,cs),
(172,330,o),
(160,379,o),
(164,384,cs)
);
},
{
closed = 1;
nodes = (
(224,483,o),
(102,353,o),
(140,369,cs),
(225,402,o),
(300,336,o),
(365,274,cs),
(372,267,o),
(494,389,o),
(487,396,cs),
(422,458,o),
(355,534,o),
(256,495,cs)
);
},
{
closed = 1;
nodes = (
(641,173,o),
(712,206,o),
(772,278,cs),
(842,362,o),
(840,469,o),
(765,498,cs),
(705,521,o),
(598,494,o),
(444,367,cs),
(351,290,o),
(375,246,o),
(472,327,cs),
(533,378,o),
(606,373,o),
(656,348,cs),
(704,323,o),
(731,280,o),
(704,248,cs)
);
},
{
closed = 1;
nodes = (
(650,145,o),
(771,274,o),
(732,259,cs),
(632,222,o),
(564,318,o),
(488,396,cs),
(481,403,o),
(359,281,o),
(366,274,cs),
(442,196,o),
(502,90,o),
(616,133,cs)
);
}
);
width = 873;
}
);
unicode = 8734;
},
{
glyphname = integral;
lastChange = "2024-02-12 17:04:37 +0000";
layers = (
{
layerId = m01;
shapes = (
{
closed = 1;
nodes = (
(403,421,o),
(266,315,o),
(260,256,cs),
(252,183,o),
(248,110,o),
(241,40,cs),
(240,32,o),
(219,-3,o),
(153,-4,cs),
(133,-5,o),
(113,-5,o),
(93,-5,cs),
(66,-6,o),
(27,-37,o),
(1,-69,cs),
(-30,-107,o),
(-45,-147,o),
(-7,-147,cs),
(13,-146,o),
(33,-146,o),
(53,-146,cs),
(109,-145,o),
(201,-80,o),
(273,-4,cs),
(327,53,o),
(369,116,o),
(373,162,cs),
(380,228,o),
(390,292,o),
(396,356,cs)
);
},
{
closed = 1;
nodes = (
(253,196,o),
(390,298,o),
(396,360,cs),
(404,433,o),
(408,506,o),
(415,576,cs),
(416,584,o),
(437,619,o),
(503,620,cs),
(523,621,o),
(543,621,o),
(563,621,cs),
(594,622,o),
(638,659,o),
(664,696,cs),
(688,730,o),
(697,763,o),
(663,763,cs),
(643,762,o),
(623,762,o),
(603,762,cs),
(559,761,o),
(491,720,o),
(430,665,cs),
(355,599,o),
(289,512,o),
(283,454,cs),
(276,388,o),
(266,324,o),
(260,260,cs)
);
}
);
width = 656;
}
);
unicode = 8747;
},
{
glyphname = product;
lastChange = "2024-02-12 17:04:37 +0000";
layers = (
{
layerId = m01;
shapes = (
{
closed = 1;
nodes = (
(247,732,o),
(201,714,o),
(161,679,cs),
(136,657,o),
(115,628,o),
(110,603,cs),
(104,569,o),
(51,5,o),
(51,4,cs),
(47,-34,o),
(88,-19,o),
(125,13,cs),
(153,36,o),
(179,69,o),
(181,96,cs),
(184,122,o),
(232,646,o),
(240,689,cs)
);
},
{
closed = 1;
nodes = (
(44,717,o),
(-17,547,o),
(4,547,cs),
(180,548,o),
(355,548,o),
(531,548,cs),
(550,548,o),
(612,718,o),
(591,718,cs),
(415,717,o),
(240,717,o),
(64,717,cs)
);
},
{
closed = 1;
nodes = (
(464,731,o),
(421,716,o),
(383,683,cs),
(356,661,o),
(332,630,o),
(327,603,cs),
(321,569,o),
(269,5,o),
(269,4,cs),
(265,-32,o),
(303,-20,o),
(339,9,cs),
(368,33,o),
(397,68,o),
(399,96,cs),
(402,122,o),
(449,646,o),
(457,689,cs)
);
}
);
width = 600;
}
);
unicode = 8719;
},
{
glyphname = summation;
lastChange = "2024-02-12 17:04:37 +0000";
layers = (
{
layerId = m01;
shapes = (
{
closed = 1;
nodes = (
(54,163,o),
(-5,-7,o),
(32,-7,cs),
(57,-7,o),
(326,-9,o),
(355,-9,cs),
(375,-9,o),
(436,161,o),
(415,161,cs),
(386,161,o),
(115,163,o),
(88,163,cs)
);
},
{
closed = 1;
nodes = (
(435,549,o),
(496,719,o),
(475,719,cs),
(452,719,o),
(167,715,o),
(161,718,cs),
(143,730,o),
(94,559,o),
(97,552,cs),
(100,544,o),
(205,309,o),
(221,278,cs),
(231,258,o),
(315,374,o),
(305,394,cs),
(288,428,o),
(168,703,o),
(163,716,c),
(142,661,o),
(120,605,o),
(99,550,c),
(109,543,o),
(392,549,o),
(415,549,cs)
);
},
{
closed = 1;
nodes = (
(319,398,o),
(296,410,o),
(264,402,cs),
(242,397,o),
(215,381,o),
(198,357,cs),
(177,327,o),
(47,121,o),
(34,81,cs),
(26,57,o),
(45,51,o),
(70,57,cs),
(100,64,o),
(137,88,o),
(146,117,cs),
(149,128,o),
(279,340,o),
(296,365,cs)
);
}
);
width = 509;
}
);
unicode = 8721;
},
{
glyphname = radical;
lastChange = "2024-02-12 17:04:37 +0000";
layers = (
{
layerId = m01;
shapes = (
{
closed = 1;
nodes = (
(103,395,o),
(32,235,o),
(54,196,cs),
(58,189,o),
(96,126,o),
(135,61,cs),
(178,-8,o),
(222,-79,o),
(231,-83,cs),
(249,-92,o),
(311,77,o),
(293,85,cs),
(290,87,o),
(256,142,o),
(219,201,cs),
(176,272,o),
(129,351,o),
(126,356,cs)
);
},
{
closed = 1;
nodes = (
(655,540,o),
(678,590,o),
(693,636,cs),
(706,674,o),
(714,710,o),
(704,710,cs),
(687,710,o),
(472,706,o),
(468,709,cs),
(453,722,o),
(389,555,o),
(406,541,cs),
(414,534,o),
(627,540,o),
(644,540,cs)
);
},
{
closed = 1;
nodes = (
(529,625,o),
(502,631,o),
(470,620,cs),
(445,612,o),
(419,594,o),
(407,570,cs),
(403,562,o),
(375,469,o),
(343,357,cs),
(292,181,o),
(228,-42,o),
(224,-59,cs),
(208,-114,o),
(322,-70,o),
(336,-21,cs),
(342,-2,o),
(393,177,o),
(439,337,cs),
(477,469,o),
(511,588,o),
(513,592,cs)
);
}
);
width = 658;
}
);
unicode = 8730;
},
{
glyphname = partialdiff;
lastChange = "2024-02-12 17:04:37 +0000";
layers = (
{
layerId = m01;
shapes = (
{
closed = 1;
nodes = (
(51,30,o),
(141,139,o),
(141,186,cs),
(141,238,o),
(195,285,o),
(246,297,cs),
(294,308,o),
(339,287,o),
(331,205,cs),
(324,139,o),
(403,237,o),
(409,299,cs),
(420,409,o),
(345,459,o),
(260,439,cs),
(162,417,o),
(51,301,o),
(51,80,cs)
);
},
{
closed = 1;
nodes = (
(365,703,o),
(317,659,o),
(352,591,cs),
(386,524,o),
(393,448,o),
(383,378,cs),
(367,253,o),
(296,145,o),
(227,133,cs),
(192,127,o),
(157,146,o),
(130,201,cs),
(113,234,o),
(36,101,o),
(52,69,cs),
(83,8,o),
(128,-16,o),
(178,-12,cs),
(286,-4,o),
(414,136,o),
(447,319,cs),
(464,417,o),
(454,527,o),
(398,637,cs)
);
}
);
width = 504;
}
);
unicode = 8706;
},
{
glyphname = percent;
lastChange = "2024-02-12 17:04:37 +0000";
layers = (
{
layerId = m01;
shapes = (
{
closed = 1;
nodes = (
(671,703,o),
(662,727,o),
(636,724,cs),
(615,722,o),
(583,702,o),
(553,664,cs),
(509,607,o),
(178,48,o),
(174,42,cs),
(147,-3,o),
(162,-18,o),
(189,-10,cs),
(215,-3,o),
(253,25,o),
(278,66,cs),
(291,88,o),
(618,634,o),
(633,654,cs)
);
},
{
closed = 1;
nodes = (
(267,682,o),
(207,689,o),
(138,601,cs),
(45,484,o),
(36,391,o),
(65,337,cs),
(94,283,o),
(162,267,o),
(225,304,cs),
(275,333,o),
(349,484,o),
(291,450,cs),
(231,415,o),
(199,440,o),
(185,479,cs),
(172,517,o),
(177,568,o),
(194,589,cs)
);
},
{
closed = 1;
nodes = (
(211,377,o),
(203,281,o),
(272,356,cs),
(435,534,o),
(440,641,o),
(393,688,cs),
(354,727,o),
(279,725,o),
(227,687,cs),
(167,645,o),
(92,516,o),
(163,567,cs),
(225,611,o),
(259,586,o),
(274,548,cs),
(288,510,o),
(285,458,o),
(274,446,cs)
);
},
{
closed = 1;
nodes = (
(616,381,o),
(556,388,o),
(487,300,cs),
(368,150,o),
(386,40,o),
(447,0,cs),
(482,-23,o),
(529,-23,o),
(574,3,cs),
(624,32,o),
(698,183,o),
(640,149,cs),
(579,114,o),
(546,140,o),
(533,181,cs),
(521,218,o),
(527,267,o),
(543,288,cs)
);
},
{
closed = 1;
nodes = (
(560,76,o),
(552,-20,o),
(621,55,cs),
(798,248,o),
(789,358,o),
(729,398,cs),
(688,425,o),
(623,420,o),
(576,386,cs),
(516,344,o),
(441,215,o),
(512,266,cs),
(562,301,o),
(593,292,o),
(611,268,cs),
(638,232,o),
(636,160,o),
(623,145,cs)
);
}
);
width = 718;
}
);
unicode = 37;
},
{
glyphname = perthousand;
lastChange = "2024-02-12 17:04:37 +0000";
layers = (
{
layerId = m01;
shapes = (
{
closed = 1;
nodes = (
(670,703,o),
(662,727,o),
(637,724,cs),
(616,722,o),
(583,703,o),
(553,664,cs),
(509,607,o),
(178,48,o),
(174,42,cs),
(149,0,o),
(160,-16,o),
(184,-11,cs),
(210,-6,o),
(251,22,o),
(278,66,cs),
(291,88,o),
(618,634,o),
(633,654,cs)
);
},
{
closed = 1;
nodes = (
(267,682,o),
(207,689,o),
(138,601,cs),
(38,475,o),
(35,377,o),
(73,325,cs),
(105,281,o),
(167,270,o),
(225,304,cs),
(275,333,o),
(349,484,o),
(291,450,cs),
(239,420,o),
(207,435,o),
(191,465,cs),
(171,503,o),
(175,565,o),
(194,589,cs)
);
},
{
closed = 1;
nodes = (
(211,377,o),
(203,281,o),
(272,356,cs),
(422,520,o),
(438,623,o),
(403,676,cs),
(369,727,o),
(285,728,o),
(227,687,cs),
(167,645,o),
(92,516,o),
(163,567,cs),
(220,607,o),
(252,590,o),
(269,558,cs),
(289,519,o),
(286,460,o),
(274,446,cs)
);
},
{
closed = 1;
nodes = (
(616,381,o),
(556,388,o),
(487,300,cs),
(387,174,o),
(384,76,o),
(422,24,cs),
(454,-20,o),
(516,-31,o),
(574,3,cs),
(624,32,o),
(698,183,o),
(640,149,cs),
(587,118,o),
(556,134,o),
(540,165,cs),
(520,204,o),
(524,264,o),
(543,288,cs)
);
},
{
closed = 1;
nodes = (
(560,76,o),
(552,-20,o),
(621,55,cs),
(793,243,o),
(790,352,o),
(733,395,cs),
(693,425,o),
(625,421,o),
(576,386,cs),
(516,344,o),
(441,215,o),
(512,266,cs),
(566,304,o),
(599,290,o),
(616,260,cs),
(638,223,o),
(636,159,o),
(623,145,cs)
);
},
{
closed = 1;
nodes = (
(971,381,o),
(911,388,o),
(842,300,cs),
(730,158,o),
(740,51,o),
(793,6,cs),
(828,-22,o),
(880,-26,o),
(929,3,cs),
(979,32,o),
(1053,183,o),
(995,149,cs),
(926,109,o),
(893,148,o),
(884,197,cs),
(878,231,o),
(884,270,o),
(898,288,cs)
);
},
{
closed = 1;
nodes = (
(915,76,o),
(907,-20,o),
(976,55,cs),
(1128,221,o),
(1143,326,o),
(1106,377,cs),
(1070,426,o),
(987,427,o),
(931,386,cs),
(871,344,o),
(796,215,o),
(867,266,cs),
(923,305,o),
(955,290,o),
(972,259,cs),
(993,221,o),
(990,159,o),
(978,145,cs)
);
}
);
width = 1047;
}
);
unicode = 8240;
},
{
glyphname = dieresiscomb;
lastChange = "2024-02-12 17:04:37 +0000";
layers = (
{
layerId = m01;
shapes = (
{
closed = 1;
nodes = (
(384,865,o),
(420,971,o),
(338,903,cs),
(280,856,o),
(244,778,o),
(259,748,cs),
(265,735,o),
(281,731,o),
(309,742,cs),
(351,758,o),
(438,913,o),
(385,892,cs),
(384,892,o),
(309,804,o),
(310,805,cs)
);
},
{
closed = 1;
nodes = (
(315,843,o),
(265,710,o),
(332,760,cs),
(415,822,o),
(446,901,o),
(426,927,cs),
(418,939,o),
(400,940,o),
(374,927,cs),
(327,903,o),
(229,763,o),
(288,793,cs),
(289,793,o),
(371,885,o),
(370,884,cs)
);
},
{
closed = 1;
nodes = (
(209,865,o),
(245,971,o),
(163,903,cs),
(105,855,o),
(68,777,o),
(84,748,cs),
(91,735,o),
(106,731,o),
(134,742,cs),
(176,758,o),
(263,913,o),
(210,892,cs),
(209,892,o),
(134,804,o),
(135,805,cs)
);
},
{
closed = 1;
nodes = (
(140,843,o),
(90,710,o),
(157,760,cs),
(240,823,o),
(271,902,o),
(251,928,cs),
(243,939,o),
(225,940,o),
(199,927,cs),
(152,903,o),
(54,763,o),
(113,793,cs),
(114,793,o),
(196,885,o),
(195,884,cs)
);
}
);
width = 371;
}
);
unicode = 776;
},
{
glyphname = dotaccentcomb;
lastChange = "2024-02-12 17:04:37 +0000";
layers = (
{
layerId = m01;
shapes = (
{
closed = 1;
nodes = (
(129,865,o),
(165,971,o),
(83,903,cs),
(27,857,o),
(-8,784,o),
(2,752,cs),
(8,736,o),
(24,730,o),
(54,742,cs),
(96,758,o),
(183,913,o),
(130,892,cs),
(129,892,o),
(54,804,o),
(55,805,cs)
);
},
{
closed = 1;
nodes = (
(60,843,o),
(10,710,o),
(77,760,cs),
(160,822,o),
(191,901,o),
(171,927,cs),
(163,939,o),
(145,940,o),
(119,927,cs),
(72,903,o),
(-26,763,o),
(33,793,cs),
(34,793,o),
(116,885,o),
(115,884,cs)
);
}
);
width = 177;
}
);
unicode = 775;
},
{
glyphname = acutecomb;
lastChange = "2024-02-12 17:04:37 +0000";
layers = (
{
layerId = m01;
shapes = (
{
closed = 1;
nodes = (
(-3,724,o),
(32,734,o),
(68,750,cs),
(102,766,o),
(136,788,o),
(138,800,cs),
(139,801,o),
(180,900,o),
(182,905,cs),
(195,944,o),
(141,932,o),
(91,904,cs),
(58,886,o),
(28,861,o),
(20,839,cs),
(20,839,o),
(11,797,o),
(0,738,cs)
);
}
);
width = 184;
}
);
unicode = 769;
},
{
glyphname = circumflexcomb;
lastChange = "2024-02-12 17:04:37 +0000";
layers = (
{
layerId = m01;
shapes = (
{
closed = 1;
nodes = (
(229,497,o),
(348,571,o),
(330,602,cs),
(297,662,o),
(264,722,o),
(230,782,cs),
(213,813,o),
(95,739,o),
(112,708,cs),
(145,648,o),
(178,588,o),
(212,528,cs)
);
},
{
closed = 1;
nodes = (
(253,818,o),
(140,780,o),
(110,728,cs),
(76,667,o),
(41,606,o),
(6,544,cs),
(-26,487,o),
(90,528,o),
(118,578,cs),
(152,639,o),
(187,700,o),
(222,762,cs)
);
}
);
width = 300;
}
);
unicode = 770;
},
{
glyphname = caroncomb;
lastChange = "2024-02-12 17:04:37 +0000";
layers = (
{
layerId = m01;
shapes = (
{
closed = 1;
nodes = (
(103,810,o),
(-15,736,o),
(2,705,cs),
(35,645,o),
(68,585,o),
(102,525,cs),
(119,494,o),
(238,568,o),
(220,599,cs),
(187,659,o),
(154,719,o),
(120,779,cs)
);
},
{
closed = 1;
nodes = (
(78,488,o),
(194,529,o),
(222,579,cs),
(256,640,o),
(291,701,o),
(326,763,cs),
(357,819,o),
(244,781,o),
(214,729,cs),
(180,668,o),
(145,607,o),
(110,545,cs)
);
}
);
width = 300;
}
);
unicode = 780;
},
{
glyphname = brevecomb;
lastChange = "2024-02-12 17:04:37 +0000";
layers = (
{
layerId = m01;
shapes = (
{
closed = 1;
nodes = (
(95,734,o),
(-4,643,o),
(0,600,cs),
(6,540,o),
(34,511,o),
(71,504,cs),
(131,493,o),
(214,541,o),
(262,603,cs),
(312,669,o),
(293,740,o),
(238,669,cs),
(227,654,o),
(182,616,o),
(146,620,cs),
(124,623,o),
(105,641,o),
(100,692,cs)
);
}
);
width = 300;
}
);
unicode = 774;
},
{
glyphname = ringcomb;
lastChange = "2024-02-12 17:04:37 +0000";
layers = (
{
layerId = m01;
shapes = (
{
closed = 1;
nodes = (
(163,771,o),
(108,784,o),
(55,715,cs),
(-9,633,o),
(-10,568,o),
(17,534,cs),
(38,508,o),
(78,501,o),
(116,523,cs),
(163,550,o),
(209,666,o),
(154,635,cs),
(127,620,o),
(113,631,o),
(106,648,cs),
(100,666,o),
(102,692,o),
(107,699,cs)
);
},
{
closed = 1;
nodes = (
(83,572,o),
(90,494,o),
(149,558,cs),
(247,664,o),
(257,733,o),
(233,767,cs),
(210,798,o),
(155,799,o),
(115,771,cs),
(63,734,o),
(18,636,o),
(81,679,cs),
(107,698,o),
(122,684,o),
(130,666,cs),
(137,651,o),
(138,632,o),
(137,630,cs)
);
}
);
width = 300;
}
);
unicode = 778;
},
{
glyphname = hookabovecomb;
lastChange = "2024-02-12 17:04:37 +0000";
layers = (
{
layerId = m01;
shapes = (
{
closed = 1;
nodes = (
(56,540,o),
(138,545,o),
(178,591,cs),
(218,637,o),
(216,700,o),
(185,744,cs),
(161,775,o),
(122,797,o),
(72,794,cs),
(33,792,o),
(-29,667,o),
(16,670,cs),
(51,672,o),
(73,665,o),
(87,654,cs),
(113,634,o),
(108,601,o),
(98,589,cs)
);
}
);
width = 300;
}
);
unicode = 777;
},
{
glyphname = leftangleabovecomb;
lastChange = "2024-02-12 17:04:37 +0000";
layers = (
{
layerId = m01;
shapes = (
{
closed = 1;
nodes = (
(23,714,o),
(-24,572,o),
(15,572,cs),
(112,572,o),
(208,573,o),
(305,573,cs),
(340,573,o),
(388,715,o),
(349,715,cs),
(252,715,o),
(156,714,o),
(59,714,cs)
);
},
{
closed = 1;
nodes = (
(383,736,o),
(256,646,o),
(236,585,cs),
(233,576,o),
(221,440,o),
(221,440,cs),
(216,386,o),
(345,493,o),
(349,542,cs),
(350,550,o),
(360,669,o),
(360,669,cs)
);
}
);
width = 300;
}
);
unicode = 794;
},
{
glyphname = dotbelowcomb;
lastChange = "2024-02-12 17:04:37 +0000";
layers = (
{
layerId = m01;
shapes = (
{
closed = 1;
nodes = (
(128,-104,o),
(164,2,o),
(82,-66,cs),
(-1,-134,o),
(-39,-263,o),
(53,-227,cs),
(95,-211,o),
(182,-56,o),
(129,-77,cs),
(128,-77,o),
(53,-165,o),
(54,-164,cs)
);
},
{
closed = 1;
nodes = (
(59,-126,o),
(9,-259,o),
(76,-209,cs),
(195,-120,o),
(207,3,o),
(118,-42,cs),
(71,-66,o),
(-27,-206,o),
(32,-176,cs),
(33,-176,o),
(115,-84,o),
(114,-85,cs)
);
}
);
width = 176;
}
);
unicode = 803;
},
{
glyphname = dieresisbelowcomb;
lastChange = "2024-02-12 17:04:37 +0000";
layers = (
{
layerId = m01;
shapes = (
{
closed = 1;
nodes = (
(303,-104,o),
(339,2,o),
(257,-66,cs),
(174,-134,o),
(136,-263,o),
(228,-227,cs),
(270,-211,o),
(357,-56,o),
(304,-77,cs),
(303,-77,o),
(228,-165,o),
(229,-164,cs)
);
},
{
closed = 1;
nodes = (
(234,-126,o),
(184,-259,o),
(251,-209,cs),
(370,-120,o),
(382,3,o),
(293,-42,cs),
(246,-66,o),
(148,-206,o),
(207,-176,cs),
(208,-176,o),
(290,-84,o),
(289,-85,cs)
);
},
{
closed = 1;
nodes = (
(128,-104,o),
(164,2,o),
(82,-66,cs),
(-1,-134,o),
(-39,-263,o),
(53,-227,cs),
(95,-211,o),
(182,-56,o),
(129,-77,cs),
(128,-77,o),
(53,-165,o),
(54,-164,cs)
);
},
{
closed = 1;
nodes = (
(59,-126,o),
(9,-259,o),
(76,-209,cs),
(195,-120,o),
(207,3,o),
(118,-42,cs),
(71,-66,o),
(-27,-206,o),
(32,-176,cs),
(33,-176,o),
(115,-84,o),
(114,-85,cs)
);
}
);
width = 351;
}
);
unicode = 804;
},
{
glyphname = cedillacomb;
lastChange = "2024-02-12 17:04:37 +0000";
layers = (
{
layerId = m01;
shapes = (
{
closed = 1;
nodes = (
(203,60,o),
(186,138,o),
(139,65,cs),
(109,19,o),
(73,-37,o),
(49,-75,cs),
(19,-120,o),
(46,-133,o),
(87,-102,cs),
(102,-91,o),
(225,-76,o),
(187,-166,cs),
(163,-222,o),
(247,-143,o),
(269,-90,cs),
(313,14,o),
(204,52,o),
(81,-40,c),
(94,-49,o),
(107,-58,o),
(119,-67,c),
(138,-38,o),
(146,-28,o),
(159,-7,cs)
);
},
{
closed = 1;
nodes = (
(270,-91,o),
(281,7,o),
(244,-59,cs),
(216,-110,o),
(181,-172,o),
(100,-133,cs),
(83,-125,o),
(-17,-224,o),
(2,-233,cs),
(91,-276,o),
(179,-257,o),
(238,-149,cs)
);
}
);
width = 300;
}
);
unicode = 807;
},
{
glyphname = caronbelowcomb;
lastChange = "2024-02-12 17:04:37 +0000";
layers = (
{
layerId = m01;
shapes = (
{
closed = 1;
nodes = (
(103,75,o),
(-15,1,o),
(2,-30,cs),
(35,-90,o),
(68,-150,o),
(102,-210,cs),
(119,-241,o),
(238,-167,o),
(220,-136,cs),
(187,-76,o),
(154,-16,o),
(120,44,cs)
);
},
{
closed = 1;
nodes = (
(78,-247,o),
(194,-206,o),
(222,-156,cs),
(256,-95,o),
(291,-34,o),
(326,28,cs),
(357,84,o),
(244,46,o),
(214,-6,cs),
(180,-67,o),
(145,-128,o),
(110,-190,cs)
);
}
);
width = 300;
}
);
unicode = 812;
},
